SplineFontDB: 3.2
FontName: MNH48BeringinPUA
FullName: MNH48 Beringin PUA
FamilyName: MNH48 Beringin PUA
Weight: Regular
Copyright: Copyright (c) 2020, Yaya MNH48.\nReleased under SIL Open Font License.\n\nFont for Aksara Beringin in Private Use Area (PUA).\nThis font variant is meant for people who use PUA to write Beringin.\nIt will NOT be usable if you are writing Beringin using Latin codepoints.\nhttp://beringin.mnh48.moe/mnh48-beringin
UComments: "2020-7-11: Created with FontForge (http://fontforge.org)"
Version: 1.0
ItalicAngle: 0
UnderlinePosition: -100
UnderlineWidth: 50
Ascent: 800
Descent: 200
InvalidEm: 0
sfntRevision: 0x00010000
LayerCount: 3
Layer: 0 0 "Back" 1
Layer: 1 0 "Fore" 0
Layer: 2 0 "Back 2" 1
HasVMetrics: 1
XUID: [1021 814 392742500 5261582]
StyleMap: 0x0000
FSType: 0
OS2Version: 0
OS2_WeightWidthSlopeOnly: 0
OS2_UseTypoMetrics: 1
CreationTime: 1594506946
ModificationTime: 1600449924
PfmFamily: 33
TTFWeight: 400
TTFWidth: 5
LineGap: 90
VLineGap: 90
OS2TypoAscent: 0
OS2TypoAOffset: 1
OS2TypoDescent: 0
OS2TypoDOffset: 1
OS2TypoLinegap: 90
OS2WinAscent: 0
OS2WinAOffset: 1
OS2WinDescent: 0
OS2WinDOffset: 1
HheadAscent: 0
HheadAOffset: 1
HheadDescent: 0
HheadDOffset: 1
OS2Vendor: 'PfEd'
Lookup: 1 0 0 "'rtla' Right to Left Alternates in Latin lookup 1" { "'rtla' Right to Left Alternates in Latin lookup 1-1" ("rtla") } ['rtla' ('DFLT' <'dflt' > 'latn' <'dflt' > ) ]
Lookup: 1 0 0 "'vert' Vertical Alternates lookup 0" { "'vert' Vertical Alternates lookup 0-1" ("vert") } ['vert' ('DFLT' <'dflt' > ) ]
MarkAttachClasses: 1
DEI: 91125
LangName: 1033
LangName: 1033
LangName: 1033
LangName: 1033
LangName: 1033
LangName: 1033
LangName: 1033
LangName: 1033
Encoding: Original
UnicodeInterp: none
NameList: AGL For New Fonts
DisplaySize: -48
AntiAlias: 1
FitToEm: 0
WinInfo: 0 28 10
BeginPrivate: 0
EndPrivate

StartChar: null_character
Encoding: 0 0 0
Width: 800
VWidth: 600
Flags: W
HStem: 440 130<466.371 549.098>
VStem: 440 130<460.902 543.629>
LayerCount: 3
Fore
SplineSet
510 440 m 0
 480 440 440 470 440 500 c 0
 440 530 480 570 510 570 c 0
 540 570 570 530 570 500 c 0
 570 470 540 440 510 440 c 0
EndSplineSet
Validated: 1
Substitution2: "'rtla' Right to Left Alternates in Latin lookup 1-1" null_character.rtla
Substitution2: "'vert' Vertical Alternates lookup 0-1" null_character.vert
EndChar

StartChar: beringin_exclamation_mark
Encoding: 2 60387 2
Width: 800
VWidth: 600
Flags: W
HStem: 240 80<356.838 420> 460 80<-50 160 260 357.294> 680 79<0 107.162 206 510>
VStem: 160 87<540 610.752>
LayerCount: 3
Fore
SplineSet
510 760 m 1
 510 680 l 1
 206 680 l 1
 237 617 247 540 247 540 c 1
 360 540 l 0
 468 540 500 320 500 320 c 1
 500 240 l 1
 421 240 l 0
 420 240 l 0
 299 240 204 389 173 460 c 1
 -50 460 l 1
 -50 540 l 1
 160 540 l 1
 147 602 120 677 60 680 c 1
 0 680 l 1
 0 759 l 1
 510 760 l 1
260 460 m 1
 298 421 331 320 420 320 c 1
 403 416 370 460 260 460 c 1
EndSplineSet
Validated: 1
Substitution2: "'rtla' Right to Left Alternates in Latin lookup 1-1" beringin_exclamation_mark.rtla
Substitution2: "'vert' Vertical Alternates lookup 0-1" beringin_exclamation_mark.vert
EndChar

StartChar: beringin_word_dup_mark
Encoding: 3 60398 3
Width: 800
VWidth: 600
Flags: W
HStem: 460 80<-50 19.646 230 470>
VStem: 150 80<540 730>
LayerCount: 3
Fore
SplineSet
230 460 m 1
 230 270 l 1
 150 270 l 1
 150 270 69 399 0 460 c 0
 -50 460 l 1
 -50 540 l 1
 150 540 l 1
 150 730 l 1
 230 730 l 1
 230 540 l 1
 470 540 l 1
 470 460 l 1
 230 460 l 1
EndSplineSet
Validated: 1
Substitution2: "'vert' Vertical Alternates lookup 0-1" beringin_word_dup_mark.vert
Substitution2: "'rtla' Right to Left Alternates in Latin lookup 1-1" beringin_word_dup_mark.rtla
EndChar

StartChar: beringin_ext_letter_ak
Encoding: 4 60414 4
Width: 800
VWidth: 600
Flags: W
HStem: 460 80<-50 6.38818> 680 80<145.3 600>
VStem: -50 130<460 537.955>
LayerCount: 3
Fore
SplineSet
600 760 m 1
 600 680 l 1
 190 680 l 0
 88 675 80 460 80 460 c 1
 -50 460 l 1
 -50 540 l 1
 3 540 l 1
 3 540 32 760 140 760 c 2
 600 760 l 1
EndSplineSet
Validated: 1
Substitution2: "'vert' Vertical Alternates lookup 0-1" beringin_ext_letter_ak.vert
Substitution2: "'rtla' Right to Left Alternates in Latin lookup 1-1" beringin_ext_letter_ak.rtla
EndChar

StartChar: beringin_open_parenthesis
Encoding: 5 60390 5
Width: 800
VWidth: 600
Flags: W
HStem: 240 21G<40 120> 460 80<120 850> 680 80<120 350>
VStem: 40 80<240 460 540 680>
LayerCount: 3
Fore
SplineSet
40 240 m 25
 40 760 l 1
 350 760 l 25
 350 680 l 25
 120 680 l 25
 120 540 l 25
 850 540 l 29
 850 460 l 29
 120 460 l 25
 120 240 l 1
 40 240 l 25
EndSplineSet
Validated: 1
Substitution2: "'vert' Vertical Alternates lookup 0-1" beringin_open_parenthesis.vert
Substitution2: "'rtla' Right to Left Alternates in Latin lookup 1-1" beringin_open_parenthesis.rtla
EndChar

StartChar: beringin_close_parenthesis
Encoding: 6 60391 6
Width: 800
VWidth: 600
Flags: W
HStem: 240 80<450 680> 460 80<-50 680> 740 20G<680 760> 740 20G<680 760>
VStem: 680 80<320 460 540 760>
LayerCount: 3
Fore
SplineSet
760 760 m 25xe8
 760 240 l 1
 450 240 l 25
 450 320 l 25
 680 320 l 25
 680 460 l 25
 -50 460 l 25
 -50 540 l 25
 680 540 l 25
 680 760 l 1
 760 760 l 25xe8
EndSplineSet
Validated: 1
Substitution2: "'vert' Vertical Alternates lookup 0-1" beringin_close_parenthesis.vert
Substitution2: "'rtla' Right to Left Alternates in Latin lookup 1-1" beringin_close_parenthesis.rtla
EndChar

StartChar: beringin_comma
Encoding: 7 60384 7
Width: 800
VWidth: 600
Flags: W
HStem: 240 80<353.557 420> 460 80<-50 179.996 253 361.656>
LayerCount: 3
Fore
SplineSet
-50 540 m 1
 360 540 l 0
 468 540 500 320 500 320 c 1
 500 240 l 1
 412 240 l 2
 290 240 200 390 170 460 c 1
 -50 460 l 2
 -50 540 l 1
253 462 m 1
 287 431 330 321 410 320 c 0
 420 320 l 1
 409 383 374 457 310 460 c 0
 253 462 l 1
EndSplineSet
Validated: 1
Substitution2: "'vert' Vertical Alternates lookup 0-1" beringin_comma.vert
Substitution2: "'rtla' Right to Left Alternates in Latin lookup 1-1" beringin_comma.rtla
EndChar

StartChar: beringin_hyphen
Encoding: 8 60397 8
Width: 800
VWidth: 600
Flags: W
HStem: 460 80<-50 850>
LayerCount: 3
Fore
SplineSet
-50 540 m 9
 850 540 l 25
 850 460 l 17
 -50 460 l 1
 -50 540 l 9
EndSplineSet
Validated: 1
Substitution2: "'vert' Vertical Alternates lookup 0-1" beringin_hyphen.vert
Substitution2: "'rtla' Right to Left Alternates in Latin lookup 1-1" beringin_hyphen.rtla
EndChar

StartChar: beringin_period
Encoding: 9 60385 9
Width: 800
VWidth: 600
Flags: W
HStem: 240 80<352.108 420> 460 80<-50 160 256 361.656> 680 80<0 107.363>
VStem: 160 90<540 609.609>
CounterMasks: 1 e0
LayerCount: 3
Fore
SplineSet
0 760 m 1
 110 760 l 2
 218 760 250 540 250 540 c 1
 360 540 l 0
 468 540 500 320 500 320 c 1
 500 240 l 1
 413 240 l 0
 412 240 l 2
 269 240 229 401 170 460 c 1
 -50 460 l 1
 -50 540 l 1
 160 540 l 1
 148 602 120 677 60 680 c 0
 0 680 l 1
 0 760 l 1
256 460 m 1
 290 426 332 321 410 320 c 0
 420 320 l 1
 409 383 374 457 310 460 c 1
 256 460 l 1
EndSplineSet
Validated: 1
Substitution2: "'vert' Vertical Alternates lookup 0-1" beringin_period.vert
Substitution2: "'rtla' Right to Left Alternates in Latin lookup 1-1" beringin_period.rtla
EndChar

StartChar: beringin_solidus
Encoding: 10 60396 10
Width: 800
VWidth: 600
Flags: W
HStem: 240 21G<300 380 420 500> 460 80<100 300 500 700> 740 20G<300 380 420 500> 740 20G<300 380 420 500>
VStem: 300 80<240 460 540 760> 420 80<240 460 540 760>
LayerCount: 3
Fore
SplineSet
420 760 m 1xec
 500 760 l 1
 500 540 l 5
 567 540 633 540 700 540 c 5
 700 460 l 1
 500 460 l 1
 500 240 l 1
 420 240 l 1
 420 760 l 1xec
380 240 m 1
 300 240 l 1
 300 460 l 1
 100 460 l 1
 100 540 l 5
 167 540 233 540 300 540 c 5
 300 760 l 1
 380 760 l 1
 380 240 l 1
EndSplineSet
Validated: 1
Substitution2: "'vert' Vertical Alternates lookup 0-1" beringin_solidus.vert
Substitution2: "'rtla' Right to Left Alternates in Latin lookup 1-1" beringin_solidus.rtla
EndChar

StartChar: beringin_digit_zero
Encoding: 11 60368 11
Width: 800
VWidth: 600
Flags: W
HStem: 240 21G<350 430> 460 80<150 350 430 650> 740 20G<350 430> 740 20G<350 430>
VStem: 350 80<240 460 540 760>
LayerCount: 3
Fore
SplineSet
350 540 m 1xe8
 350 760 l 1
 430 760 l 1
 430 540 l 1
 650 540 l 1
 650 460 l 1
 430 460 l 1
 430 387 430 313 430 240 c 1
 350 240 l 1
 350 460 l 1
 150 460 l 1
 150 540 l 1
 217 540 283 540 350 540 c 1xe8
EndSplineSet
Validated: 1
Substitution2: "'vert' Vertical Alternates lookup 0-1" beringin_digit_zero.vert
Substitution2: "'rtla' Right to Left Alternates in Latin lookup 1-1" beringin_digit_zero.rtla
EndChar

StartChar: beringin_digit_one
Encoding: 12 60369 12
Width: 800
VWidth: 600
Flags: W
HStem: 240 21G<240 320> 460 80<150 196.684 276 650>
VStem: 240 80<240 401.072>
LayerCount: 3
Fore
SplineSet
276 460 m 1
 307 397 320 320 320 320 c 1
 320 240 l 1
 240 240 l 1
 240 302 239 456 150 460 c 5
 150 540 l 1
 650 540 l 1
 650 460 l 1
 276 460 l 1
EndSplineSet
Validated: 1
Substitution2: "'vert' Vertical Alternates lookup 0-1" beringin_digit_one.vert
Substitution2: "'rtla' Right to Left Alternates in Latin lookup 1-1" beringin_digit_one.rtla
EndChar

StartChar: beringin_digit_two
Encoding: 13 60370 13
Width: 800
VWidth: 600
Flags: W
HStem: 240 21G<286.364 380> 460 80<380 650> 740 20G<300 380> 740 20G<300 380>
VStem: 300 80<540 760>
LayerCount: 3
Fore
SplineSet
380 460 m 1xe8
 380 240 l 1
 300 240 l 1
 300 240 219 399 150 460 c 0
 150 540 l 1
 300 540 l 1
 300 760 l 1
 380 760 l 1
 380 540 l 1
 650 540 l 1
 650 460 l 1
 380 460 l 1xe8
EndSplineSet
Validated: 1
Substitution2: "'vert' Vertical Alternates lookup 0-1" beringin_digit_two.vert
Substitution2: "'rtla' Right to Left Alternates in Latin lookup 1-1" beringin_digit_two.rtla
EndChar

StartChar: beringin_digit_three
Encoding: 14 60371 14
Width: 800
VWidth: 600
Flags: W
HStem: 460 80<150 194.281 276 650> 740 20G<240 320> 740 20G<240 320>
VStem: 240 80<680 760>
LayerCount: 3
Fore
SplineSet
276 540 m 1xd0
 650 540 l 1
 650 460 l 1
 533 460 267 460 150 460 c 1
 150 540 l 0
 233 544 240 686 240 740 c 0
 240 752 240 760 240 760 c 1
 320 760 l 1
 320 680 l 1
 317 680 l 1
 317 680 307 603 276 540 c 1xd0
EndSplineSet
Validated: 1
Substitution2: "'vert' Vertical Alternates lookup 0-1" beringin_digit_three.vert
Substitution2: "'rtla' Right to Left Alternates in Latin lookup 1-1" beringin_digit_three.rtla
EndChar

StartChar: beringin_digit_four
Encoding: 15 60372 15
Width: 800
VWidth: 600
Flags: W
HStem: 240 21G<300 380> 460 80<380 650> 740 20G<286.364 380> 740 20G<286.364 380>
VStem: 300 80<240 460>
LayerCount: 3
Fore
SplineSet
380 540 m 1xe8
 650 540 l 1
 650 460 l 1
 380 460 l 1
 380 240 l 1
 300 240 l 1
 300 460 l 1
 150 460 l 1
 150 540 l 0
 219 601 300 760 300 760 c 1
 380 760 l 1
 380 540 l 1xe8
EndSplineSet
Validated: 1
Substitution2: "'vert' Vertical Alternates lookup 0-1" beringin_digit_four.vert
Substitution2: "'rtla' Right to Left Alternates in Latin lookup 1-1" beringin_digit_four.rtla
EndChar

StartChar: beringin_digit_five
Encoding: 16 60373 16
Width: 800
VWidth: 600
Flags: W
HStem: 240 80<294.986 420> 460 80<240 650>
LayerCount: 3
Fore
SplineSet
650 540 m 1
 650 460 l 1
 240 460 l 1
 252 398 280 323 340 320 c 0
 389 317 411 317 420 317 c 1
 420 240 l 1
 300 240 l 0
 192 240 150 460 150 460 c 1
 150 540 l 1
 650 540 l 1
EndSplineSet
Validated: 1
Substitution2: "'vert' Vertical Alternates lookup 0-1" beringin_digit_five.vert
Substitution2: "'rtla' Right to Left Alternates in Latin lookup 1-1" beringin_digit_five.rtla
EndChar

StartChar: beringin_digit_six
Encoding: 17 60374 17
Width: 800
VWidth: 600
Flags: W
HStem: 240 80<294.986 420> 460 80<240 650> 740 20G<150 240> 740 20G<150 240>
VStem: 150 90<540 760>
LayerCount: 3
Fore
SplineSet
650 540 m 1xe8
 650 460 l 1
 240 460 l 1
 252 398 280 323 340 320 c 0
 389 317 411 317 420 317 c 1
 420 240 l 1
 420 240 415 240 300 240 c 0
 192 240 150 460 150 460 c 1
 150 760 l 1
 240 760 l 1
 240 540 l 1
 650 540 l 1xe8
EndSplineSet
Validated: 1
Substitution2: "'vert' Vertical Alternates lookup 0-1" beringin_digit_six.vert
Substitution2: "'rtla' Right to Left Alternates in Latin lookup 1-1" beringin_digit_six.rtla
EndChar

StartChar: beringin_digit_seven
Encoding: 18 60375 18
Width: 800
VWidth: 600
Flags: W
HStem: 460 80<240 650> 680 80<294.986 420>
LayerCount: 3
Fore
SplineSet
650 460 m 1
 150 460 l 1
 150 540 l 1
 150 540 192 760 300 760 c 4
 375 760 420 759 420 759 c 5
 420 680 l 1
 340 680 l 0
 280 677 252 602 240 540 c 1
 650 540 l 1
 650 460 l 1
EndSplineSet
Validated: 1
Substitution2: "'vert' Vertical Alternates lookup 0-1" beringin_digit_seven.vert
Substitution2: "'rtla' Right to Left Alternates in Latin lookup 1-1" beringin_digit_seven.rtla
EndChar

StartChar: beringin_digit_eight
Encoding: 19 60376 19
Width: 800
VWidth: 600
Flags: W
HStem: 240 21G<150 240> 460 80<240 650> 680 80<294.986 420>
VStem: 150 90<240 460>
LayerCount: 3
Fore
SplineSet
650 460 m 1
 240 460 l 1
 240 240 l 1
 150 240 l 1
 150 540 l 1
 150 540 192 760 300 760 c 0
 420 760 l 1
 421 680 l 5
 340 680 l 0
 280 677 252 602 240 540 c 1
 650 540 l 1
 650 460 l 1
EndSplineSet
Validated: 1
Substitution2: "'vert' Vertical Alternates lookup 0-1" beringin_digit_eight.vert
Substitution2: "'rtla' Right to Left Alternates in Latin lookup 1-1" beringin_digit_eight.rtla
EndChar

StartChar: beringin_digit_nine
Encoding: 20 60377 20
Width: 800
VWidth: 600
Flags: W
HStem: 240 80<300.763 417.823> 460 80<230 490 566.877 650> 680 80<300.763 417.823>
CounterMasks: 1 e0
LayerCount: 3
Fore
SplineSet
490 540 m 1
 467 609 426 680 360 680 c 0
 294 680 243 609 230 540 c 1
 490 540 l 1
360 240 m 0
 224 240 150 365 150 501 c 4
 150 637 224 760 360 760 c 0
 483 760 550 659 570 540 c 1
 650 540 l 1
 650 460 l 1
 570 460 l 1
 550 341 483 240 360 240 c 0
230 460 m 1
 243 391 294 320 360 320 c 0
 426 320 467 391 490 460 c 1
 230 460 l 1
EndSplineSet
Validated: 1
Substitution2: "'vert' Vertical Alternates lookup 0-1" beringin_digit_nine.vert
Substitution2: "'rtla' Right to Left Alternates in Latin lookup 1-1" beringin_digit_nine.rtla
EndChar

StartChar: beringin_colon
Encoding: 21 60389 21
Width: 800
VWidth: 600
Flags: W
HStem: 240 80<425.634 500> 460 80<-50 282.376> 680 80<419.347 500>
CounterMasks: 1 e0
LayerCount: 3
Fore
SplineSet
500 320 m 0
 500 240 l 3
 234 240 350 460 241 460 c 0
 240 460 240 460 240 460 c 0
 -50 460 l 1
 -50 540 l 1
 240 540 l 1
 350 540 238 760 498 760 c 0
 499 760 499 760 500 760 c 5
 500 680 l 3
 328 680 441 542 320 500 c 1
 441 461 328 320 500 320 c 0
EndSplineSet
Validated: 1
Substitution2: "'rtla' Right to Left Alternates in Latin lookup 1-1" beringin_colon.rtla
Substitution2: "'vert' Vertical Alternates lookup 0-1" beringin_colon.vert
EndChar

StartChar: beringin_semicolon
Encoding: 22 60388 22
Width: 800
VWidth: 600
Flags: W
HStem: 240 80<353.034 420> 280 80<0 170> 460 80<-50 179.996 250 361.656>
LayerCount: 3
Fore
SplineSet
0 360 m 25x60
 170 360 l 25
 170 280 l 25
 0 280 l 25
 0 360 l 25x60
-50 540 m 1
 360 540 l 2
 468 540 500 320 500 320 c 1
 500 240 l 1
 413 240 l 0
 412 240 l 0xa0
 290 240 200 390 170 460 c 1
 -50 460 l 1
 -50 540 l 1
250 461 m 5
 284 430 330 321 410 320 c 0
 420 320 l 1
 409 383 374 457 310 460 c 0
 250 461 l 5
EndSplineSet
Validated: 1
Substitution2: "'vert' Vertical Alternates lookup 0-1" beringin_semicolon.vert
Substitution2: "'rtla' Right to Left Alternates in Latin lookup 1-1" beringin_semicolon.rtla
EndChar

StartChar: beringin_open_double_quote
Encoding: 23 60394 23
Width: 800
VWidth: 600
Flags: W
HStem: 240 21G<40 120> 460 80<120 850> 590 60<120 270> 690 70<120 350>
VStem: 40 80<240 460 540 590 650 690>
LayerCount: 3
Fore
SplineSet
40 240 m 25
 40 760 l 1
 350 760 l 25
 350 690 l 25
 120 690 l 17
 120 650 l 1
 270 650 l 1
 270 590 l 1
 120 590 l 1
 120 540 l 9
 850 540 l 25
 850 460 l 25
 120 460 l 25
 120 240 l 1
 40 240 l 25
EndSplineSet
Validated: 1
Substitution2: "'vert' Vertical Alternates lookup 0-1" beringin_open_double_quote.vert
Substitution2: "'rtla' Right to Left Alternates in Latin lookup 1-1" beringin_open_double_quote.rtla
EndChar

StartChar: beringin_close_dble_quote
Encoding: 24 60395 24
Width: 800
VWidth: 600
Flags: W
HStem: 240 70<450 680> 350 60<530 680> 460 80<-50 680> 740 20G<680 760> 740 20G<680 760>
VStem: 680 80<310 350 410 460 540 760>
LayerCount: 3
Fore
SplineSet
760 760 m 25xf4
 760 240 l 1
 450 240 l 25
 450 310 l 25
 680 310 l 17
 680 350 l 1
 530 350 l 1
 530 410 l 1
 680 410 l 1
 680 460 l 9
 -50 460 l 25
 -50 540 l 25
 680 540 l 25
 680 760 l 1
 760 760 l 25xf4
EndSplineSet
Validated: 1
Substitution2: "'vert' Vertical Alternates lookup 0-1" beringin_close_dble_quote.vert
Substitution2: "'rtla' Right to Left Alternates in Latin lookup 1-1" beringin_close_dble_quote.rtla
EndChar

StartChar: beringin_question_mark
Encoding: 25 60386 25
Width: 800
VWidth: 600
Flags: W
HStem: 240 80<352.852 420> 460 80<-50 160 256 361.656> 680 80<0 107.363> 740 20G<279 325.63>
VStem: 160 81<540 609.609>
LayerCount: 3
Fore
SplineSet
544 576 m 25xd8
 487 519 l 25
 243 704 l 25
 299 760 l 25
 544 576 l 25xd8
0 760 m 1xe8
 110 760 l 2xd8
 218 760 241 540 241 540 c 5
 360 540 l 0
 468 540 500 320 500 320 c 1
 500 240 l 1
 413 240 l 0
 412 240 l 0
 292 240 201 389 170 460 c 1
 -50 460 l 1
 -50 540 l 1
 160 540 l 1
 148 602 120 677 60 680 c 0
 0 680 l 1
 0 760 l 1xe8
256 460 m 1
 290 426 332 321 410 320 c 0
 420 320 l 1
 409 383 374 457 310 460 c 1
 256 460 l 1
EndSplineSet
Validated: 1
Substitution2: "'vert' Vertical Alternates lookup 0-1" beringin_question_mark.vert
Substitution2: "'rtla' Right to Left Alternates in Latin lookup 1-1" beringin_question_mark.rtla
EndChar

StartChar: beringin_affix_an
Encoding: 26 60360 26
Width: 800
VWidth: 600
Flags: W
HStem: 240 85<515 573.688> 460 80<-50 266.19> 680 80<449.106 590.787>
VStem: 680 80<431.545 587.171>
LayerCount: 3
Fore
SplineSet
515 325 m 1
 593 334 680 423 680 500 c 0
 680 579 625 680 510 680 c 0
 415 680 340 539 340 460 c 1
 -50 460 l 1
 -50 540 l 1
 263 540 l 1
 283 659 360 760 510 760 c 0
 677 760 760 636 760 500 c 0
 760 366 649 243 515 240 c 0
 515 325 l 1
EndSplineSet
Validated: 1
Substitution2: "'vert' Vertical Alternates lookup 0-1" beringin_affix_an.vert
Substitution2: "'rtla' Right to Left Alternates in Latin lookup 1-1" beringin_affix_an.rtla
EndChar

StartChar: beringin_affix_ber
Encoding: 27 60356 27
Width: 800
VWidth: 600
Flags: W
HStem: 240 80<223.234 356.984> 460 80<533.64 850> 680 80<223.234 356.984>
VStem: 460 77<427.074 460 540 572.926>
CounterMasks: 1 e0
LayerCount: 3
Fore
SplineSet
290 320 m 0
 369 320 460 421 460 500 c 0
 460 579 369 680 290 680 c 0
 255 680 218 660 187 631 c 1
 123 690 l 1
 168 733 227 760 290 760 c 0
 413 760 517 659 537 540 c 1
 850 540 l 1
 850 460 l 1
 537 460 l 1
 517 341 413 240 290 240 c 0
 227 240 168 267 123 310 c 1
 187 369 l 1
 218 340 255 320 290 320 c 0
EndSplineSet
Validated: 1
Substitution2: "'vert' Vertical Alternates lookup 0-1" beringin_affix_ber.vert
Substitution2: "'rtla' Right to Left Alternates in Latin lookup 1-1" beringin_affix_ber.rtla
EndChar

StartChar: beringin_ext_letter_kya
Encoding: 28 60412 28
Width: 800
VWidth: 600
Flags: W
HStem: 240 80<280 408.267> 460 80<-50 3.66504 338.344 499 580 660 740 850> 680 80<145.3 500>
VStem: -50 130<460 537.955> 500 80<540 680> 660 80<240 460 540 760>
CounterMasks: 1 e0
LayerCount: 3
Fore
SplineSet
660 760 m 1
 740 760 l 1
 740 540 l 1
 850 540 l 1
 850 460 l 1
 740 460 l 1
 740 240 l 1
 660 240 l 1
 660 460 l 1
 580 460 l 1
 550 341 493 240 313 240 c 0
 312 240 311 240 310 240 c 2
 200 240 l 1
 200 320 l 1
 200 320 232 540 340 540 c 2
 500 540 l 1
 500 680 l 1
 190 680 l 1
 88 675 80 460 80 460 c 1
 -50 460 l 1
 -50 540 l 1
 0 540 l 1
 0 540 32 760 140 760 c 0
 580 760 l 1
 580 540 l 1
 660 540 l 1
 660 760 l 1
499 462 m 5
 390 460 l 2
 326 457 291 383 280 320 c 1
 310 320 l 2
 440 321 465 381 499 462 c 5
EndSplineSet
Validated: 1
Substitution2: "'vert' Vertical Alternates lookup 0-1" beringin_ext_letter_kya.vert
Substitution2: "'rtla' Right to Left Alternates in Latin lookup 1-1" beringin_ext_letter_kya.rtla
EndChar

StartChar: beringin_affix_di
Encoding: 29 60353 29
Width: 800
VWidth: 600
Flags: W
HStem: 240 80<222.54 357.076> 440 130<246.371 329.098> 460 80<535.628 850> 680 80<222.54 357.076>
VStem: 40 80<429.275 570.725> 220 130<460.902 543.629> 460 79<427.074 460 540 572.926>
LayerCount: 3
Fore
SplineSet
290 440 m 0xde
 260 440 220 470 220 500 c 0
 220 530 260 570 290 570 c 0
 320 570 350 530 350 500 c 0
 350 470 320 440 290 440 c 0xde
290 320 m 0
 369 320 460 421 460 500 c 0
 460 579 369 680 290 680 c 0
 211 680 120 579 120 500 c 0
 120 421 211 320 290 320 c 0
290 240 m 0
 154 240 40 364 40 500 c 0
 40 636 154 760 290 760 c 0
 413 760 519 659 539 540 c 5
 850 540 l 1
 850 460 l 1
 539 460 l 5xbe
 519 341 413 240 290 240 c 0
EndSplineSet
Validated: 1
Substitution2: "'vert' Vertical Alternates lookup 0-1" beringin_affix_di.vert
Substitution2: "'rtla' Right to Left Alternates in Latin lookup 1-1" beringin_affix_di.rtla
EndChar

StartChar: beringin_vowel_e
Encoding: 30 60348 30
Width: 800
VWidth: 600
Flags: W
HStem: 240 21G<260 389.333 660 740> 460 80<-50 204.7 740 850> 740 20G<660 740> 740 17G<500 580 660 740>
VStem: 500 80<384.986 757> 660 80<240 461 540 760>
LayerCount: 3
Fore
SplineSet
660 760 m 1xec
 740 760 l 1
 740 540 l 1
 850 540 l 1
 850 460 l 1
 740 461 l 5
 740 240 l 1
 660 240 l 1
 660 760 l 1xec
580 757 m 1xdc
 580 390 l 0
 580 282 360 240 360 240 c 1
 270 240 l 1
 270 240 262 455 160 460 c 0
 -50 460 l 1
 -50 540 l 1
 210 540 l 0
 306 540 340 366 346 327 c 1
 409 339 497 365 500 430 c 0
 500 757 l 1
 580 757 l 1xdc
EndSplineSet
Validated: 1
Substitution2: "'vert' Vertical Alternates lookup 0-1" beringin_vowel_e.vert
Substitution2: "'rtla' Right to Left Alternates in Latin lookup 1-1" beringin_vowel_e.rtla
EndChar

StartChar: beringin_ext_letter_gya
Encoding: 31 60413 31
Width: 800
VWidth: 600
Flags: W
HStem: 240 80<145.3 500> 460 80<-50 3.66504 338.344 500 580 660 740 850> 680 80<280 414.473>
VStem: -50 130<462.045 540> 500 80<320 460> 660 80<240 460 540 760>
CounterMasks: 1 e0
LayerCount: 3
Fore
SplineSet
660 240 m 1
 660 460 l 1
 580 460 l 1
 580 240 l 1
 140 240 l 0
 32 240 0 460 0 460 c 1
 -50 460 l 1
 -50 540 l 1
 80 540 l 1
 80 540 88 325 190 320 c 1
 500 320 l 1
 500 460 l 1
 340 460 l 2
 232 460 200 680 200 680 c 1
 200 760 l 1
 310 760 l 2
 311 760 312 760 313 760 c 0
 493 760 550 659 580 540 c 1
 660 540 l 1
 660 760 l 1
 740 760 l 1
 740 540 l 1
 850 540 l 1
 850 460 l 1
 740 460 l 1
 740 240 l 1
 660 240 l 1
500 539 m 5
 466 620 440 679 310 680 c 2
 280 680 l 1
 291 617 326 543 390 540 c 2
 500 539 l 5
EndSplineSet
Validated: 1
Substitution2: "'vert' Vertical Alternates lookup 0-1" beringin_ext_letter_gya.vert
Substitution2: "'rtla' Right to Left Alternates in Latin lookup 1-1" beringin_ext_letter_gya.rtla
EndChar

StartChar: beringin_letter_eng
Encoding: 32 60331 32
Width: 800
VWidth: 600
Flags: W
HStem: 460 80<-50 8.23389 300 511.117 600 850> 680 80<172.946 480.129>
VStem: 530 100<559.697 637.565>
LayerCount: 3
Fore
SplineSet
480 760 m 25
 550 743 630 651 630 651 c 5
 630 647 630 644 630 640 c 4
 630 601 610 556 600 540 c 1
 850 540 l 1
 850 460 l 1
 300 460 l 1
 300 540 l 1
 461 540 l 1
 493 544 530 567 530 597 c 0
 530 621 507 650 440 680 c 1
 220 680 l 1
 118 675 80 460 80 460 c 1
 -50 460 l 1
 -50 540 l 1
 3 540 l 1
 3 540 52 760 160 760 c 2
 480 760 l 25
EndSplineSet
Validated: 1
Substitution2: "'vert' Vertical Alternates lookup 0-1" beringin_letter_eng.vert
Substitution2: "'rtla' Right to Left Alternates in Latin lookup 1-1" beringin_letter_eng.rtla
EndChar

StartChar: beringin_affix_kah
Encoding: 33 60362 33
Width: 800
VWidth: 600
Flags: W
HStem: 240 90<550 621.515> 460 80<-50 266.36> 680 80<454.588 577.46>
VStem: 470 80<330 550> 680 80<398.118 570.725>
LayerCount: 3
Fore
SplineSet
569 330 m 5
 647 339 680 423 680 500 c 0
 680 579 589 680 510 680 c 0
 431 680 350 539 350 460 c 0
 263 460 l 1
 -50 460 l 1
 -50 540 l 1
 263 540 l 1
 283 659 387 760 510 760 c 0
 646 760 760 636 760 500 c 0
 760 366 669 243 535 240 c 0
 470 240 l 1
 470 550 l 1
 550 550 l 1
 550 330 l 1
 569 330 l 5
EndSplineSet
Validated: 1
Substitution2: "'vert' Vertical Alternates lookup 0-1" beringin_affix_kah.vert
Substitution2: "'rtla' Right to Left Alternates in Latin lookup 1-1" beringin_affix_kah.rtla
EndChar

StartChar: beringin_ext_letter_sya
Encoding: 34 60400 34
Width: 800
VWidth: 600
Flags: W
HStem: 240 80<159.871 445.719> 460 80<-50 30 129.313 340 580 660 740 850> 740 20G<200 246.63 500 580 660 740> 740 20G<200 246.63 500 580 660 740>
VStem: 10 100<362.435 440.689> 500 80<540 760> 660 80<240 460 540 760>
LayerCount: 3
Fore
SplineSet
130 240 m 1xee
 71 257 11 339 10 370 c 0
 10 373 10 376 10 380 c 0
 10 419 21 443 30 460 c 5
 -50 460 l 1
 -50 540 l 1
 340 540 l 1
 340 460 l 1
 180 460 l 1
 148 456 110 434 110 403 c 0
 110 379 133 350 200 320 c 1
 400 320 l 2
 474 324 492 438 500 500 c 1
 500 760 l 1
 580 760 l 1
 580 540 l 1
 660 540 l 1
 660 760 l 1
 740 760 l 1
 740 540 l 1
 850 540 l 1
 850 460 l 1
 740 460 l 1
 740 240 l 1
 660 240 l 1
 660 460 l 1
 580 460 l 1
 580 460 558 240 450 240 c 2
 130 240 l 1xee
465 576 m 1
 408 519 l 1
 164 704 l 1
 220 760 l 1
 465 576 l 1
EndSplineSet
Validated: 1
Substitution2: "'vert' Vertical Alternates lookup 0-1" beringin_ext_letter_sya.vert
Substitution2: "'rtla' Right to Left Alternates in Latin lookup 1-1" beringin_ext_letter_sya.rtla
EndChar

StartChar: beringin_ext_letter_jya
Encoding: 35 60411 35
Width: 800
VWidth: 600
Flags: W
HStem: 240 21G<200 246.63 500 580 660 740> 460 80<-50 30 129.313 340 580 660 740 850> 680 80<159.871 445.719>
VStem: 10 100<560.338 637.565> 500 80<240 460 540 600.116> 660 80<240 460 540 760>
LayerCount: 3
Fore
SplineSet
130 760 m 1
 450 760 l 2
 558 760 580 540 580 540 c 1
 660 540 l 1
 660 760 l 1
 740 760 l 1
 740 540 l 1
 850 540 l 1
 850 460 l 1
 740 460 l 1
 740 240 l 1
 660 240 l 1
 660 460 l 1
 580 460 l 1
 580 240 l 1
 500 240 l 1
 500 500 l 1
 492 562 474 676 400 680 c 2
 200 680 l 1
 133 650 110 621 110 597 c 0
 110 567 148 544 180 540 c 1
 340 540 l 1
 340 460 l 1
 -50 460 l 1
 -50 540 l 1
 30 540 l 5
 21 557 10 581 10 620 c 0
 10 623 10 627 10 630 c 0
 11 661 71 743 130 760 c 1
465 424 m 1
 220 240 l 1
 164 296 l 1
 408 481 l 1
 465 424 l 1
EndSplineSet
Validated: 1
Substitution2: "'vert' Vertical Alternates lookup 0-1" beringin_ext_letter_jya.vert
Substitution2: "'rtla' Right to Left Alternates in Latin lookup 1-1" beringin_ext_letter_jya.rtla
EndChar

StartChar: beringin_affix_ke
Encoding: 36 60359 36
Width: 800
VWidth: 600
Flags: W
HStem: 240 80<222.54 371.247> 460 80<240 850> 680 80<222.54 363.919>
VStem: 40 80<429.275 570.725>
CounterMasks: 1 e0
LayerCount: 3
Fore
SplineSet
850 540 m 1
 850 460 l 1
 240 460 l 1
 240 540 l 1
 850 540 l 1
440 591 m 1
 407 641 340 680 290 680 c 0
 211 680 120 579 120 500 c 0
 120 421 211 320 290 320 c 0
 340 320 407 350 440 400 c 9
 510 370 l 1
 468 286 386 240 290 240 c 0
 154 240 40 364 40 500 c 0
 40 636 154 760 290 760 c 0
 380 760 466 718 510 641 c 0
 440 591 l 1
EndSplineSet
Validated: 1
Substitution2: "'vert' Vertical Alternates lookup 0-1" beringin_affix_ke.vert
Substitution2: "'rtla' Right to Left Alternates in Latin lookup 1-1" beringin_affix_ke.rtla
EndChar

StartChar: beringin_affix_lah
Encoding: 37 60363 37
Width: 800
VWidth: 600
Flags: W
HStem: 240 85<450 574.953> 460 80<-50 264.372 360 540> 680 80<453.591 577.46>
VStem: 680 80<407.69 570.725>
LayerCount: 3
Fore
SplineSet
540 540 m 1
 540 460 l 1
 -50 460 l 1
 -50 540 l 1
 261 540 l 5
 281 659 387 760 510 760 c 0
 646 760 760 636 760 500 c 0
 760 366 717 243 450 240 c 0
 450 325 l 0
 661 334 680 423 680 500 c 0
 680 579 589 680 510 680 c 0
 453 680 390 609 360 540 c 1
 540 540 l 1
EndSplineSet
Validated: 1
Substitution2: "'vert' Vertical Alternates lookup 0-1" beringin_affix_lah.vert
Substitution2: "'rtla' Right to Left Alternates in Latin lookup 1-1" beringin_affix_lah.rtla
EndChar

StartChar: beringin_affix_men
Encoding: 38 60352 38
Width: 800
VWidth: 600
Flags: W
HStem: 240 80<222.54 357.076> 460 80<535.628 850> 680 80<222.54 357.076>
VStem: 40 80<429.275 570.725> 460 79<427.074 460 540 572.926>
CounterMasks: 1 e0
LayerCount: 3
Fore
SplineSet
290 320 m 0
 369 320 460 421 460 500 c 0
 460 579 369 680 290 680 c 0
 211 680 120 579 120 500 c 0
 120 421 211 320 290 320 c 0
290 240 m 0
 154 240 40 364 40 500 c 0
 40 636 154 760 290 760 c 0
 413 760 519 659 539 540 c 5
 850 540 l 1
 850 460 l 1
 539 460 l 5
 519 341 413 240 290 240 c 0
EndSplineSet
Validated: 1
Substitution2: "'vert' Vertical Alternates lookup 0-1" beringin_affix_men.vert
Substitution2: "'rtla' Right to Left Alternates in Latin lookup 1-1" beringin_affix_men.rtla
EndChar

StartChar: beringin_affix_kan
Encoding: 39 60361 39
Width: 800
VWidth: 600
Flags: W
HStem: 240 85<515 573.688> 440 130<466.371 549.098> 460 80<-50 266.36> 680 80<442.277 577.46>
VStem: 440 130<460.902 543.629> 680 80<431.545 570.725>
LayerCount: 3
Fore
SplineSet
510 440 m 0xdc
 480 440 440 470 440 500 c 0
 440 530 480 570 510 570 c 0
 540 570 570 530 570 500 c 0
 570 470 540 440 510 440 c 0xdc
515 325 m 1
 593 334 680 423 680 500 c 0
 680 579 589 680 510 680 c 0
 431 680 367 608 350 460 c 4
 263 460 l 1
 -50 460 l 1
 -50 540 l 1
 263 540 l 1xbc
 283 659 387 760 510 760 c 0
 646 760 760 636 760 500 c 0
 760 366 649 243 515 240 c 0
 515 325 l 1
EndSplineSet
Validated: 1
Substitution2: "'vert' Vertical Alternates lookup 0-1" beringin_affix_kan.vert
Substitution2: "'rtla' Right to Left Alternates in Latin lookup 1-1" beringin_affix_kan.rtla
EndChar

StartChar: beringin_ext_letter_kha
Encoding: 40 60401 40
Width: 800
VWidth: 600
Flags: W
HStem: 240 80<80 226.388 300 434.35> 460 80<-50 3.66504 358.344 520 594.6 850> 680 80<145.3 600>
VStem: -50 130<460 537.955> 223 77<320 388.378>
CounterMasks: 1 e0
LayerCount: 3
Fore
SplineSet
850 540 m 1
 850 460 l 1
 599 460 l 5
 569 341 513 240 333 240 c 0
 332 240 331 240 330 240 c 0
 80 240 l 1
 80 320 l 1
 223 320 l 1
 223 320 252 540 360 540 c 2
 850 540 l 1
520 460 m 1
 410 460 l 0
 346 457 311 383 300 320 c 1
 330 320 l 0
 460 321 486 379 520 460 c 1
600 680 m 1
 190 680 l 0
 88 675 80 460 80 460 c 1
 -50 460 l 1
 -50 540 l 1
 0 540 l 1
 0 540 32 760 140 760 c 0
 600 760 l 1
 600 680 l 1
EndSplineSet
Validated: 1
Substitution2: "'vert' Vertical Alternates lookup 0-1" beringin_ext_letter_kha.vert
Substitution2: "'rtla' Right to Left Alternates in Latin lookup 1-1" beringin_ext_letter_kha.rtla
EndChar

StartChar: beringin_affix_pen
Encoding: 41 60354 41
Width: 800
VWidth: 600
Flags: W
HStem: 240 80<222.54 355.456> 460 80<240 450 527.679 850> 680 80<222.54 355.456>
VStem: 40 80<429.275 570.725>
CounterMasks: 1 e0
LayerCount: 3
Fore
SplineSet
290 240 m 0
 154 240 40 364 40 500 c 0
 40 636 154 760 290 760 c 0
 413 760 511 659 531 540 c 5
 850 540 l 1
 850 460 l 1
 531 460 l 5
 511 341 413 240 290 240 c 0
450 540 m 1
 427 609 356 680 290 680 c 0
 211 680 120 579 120 500 c 0
 120 421 211 320 290 320 c 0
 356 320 427 391 450 460 c 1
 240 460 l 1
 240 540 l 1
 450 540 l 1
EndSplineSet
Validated: 1
Substitution2: "'vert' Vertical Alternates lookup 0-1" beringin_affix_pen.vert
Substitution2: "'rtla' Right to Left Alternates in Latin lookup 1-1" beringin_affix_pen.rtla
EndChar

StartChar: beringin_ext_letter_gha
Encoding: 42 60402 42
Width: 800
VWidth: 600
Flags: W
HStem: 240 80<145.3 600> 460 80<-50 3.66504 358.344 520 595.581 850> 680 80<80 226.388 300 432.718>
VStem: -50 130<462.045 540> 223 77<611.622 680>
CounterMasks: 1 e0
LayerCount: 3
Fore
SplineSet
850 460 m 1
 360 460 l 2
 252 460 223 680 223 680 c 1
 80 680 l 1
 80 760 l 1
 328 760 l 4
 329 760 330 760 331 760 c 4
 511 760 570 659 600 540 c 1
 850 540 l 1
 850 460 l 1
520 540 m 1
 486 621 460 679 330 680 c 0
 300 680 l 1
 311 617 346 543 410 540 c 0
 520 540 l 1
600 320 m 1
 600 240 l 1
 140 240 l 0
 32 240 0 460 0 460 c 1
 -50 460 l 1
 -50 540 l 1
 80 540 l 1
 80 540 88 325 190 320 c 0
 600 320 l 1
EndSplineSet
Validated: 1
Substitution2: "'vert' Vertical Alternates lookup 0-1" beringin_ext_letter_gha.vert
Substitution2: "'rtla' Right to Left Alternates in Latin lookup 1-1" beringin_ext_letter_gha.rtla
EndChar

StartChar: beringin_affix_per
Encoding: 43 60358 43
Width: 800
VWidth: 600
Flags: W
HStem: 240 80<223.234 355.456> 460 80<250 450 527.679 850> 680 80<223.234 355.456>
CounterMasks: 1 e0
LayerCount: 3
Fore
SplineSet
450 540 m 1
 427 609 356 680 290 680 c 0
 255 680 218 660 187 631 c 1
 123 690 l 1
 168 733 227 760 290 760 c 0
 413 760 511 659 531 540 c 5
 850 540 l 1
 850 460 l 1
 531 460 l 5
 511 341 413 240 290 240 c 0
 227 240 168 267 123 310 c 1
 187 369 l 1
 218 340 255 320 290 320 c 0
 356 320 427 391 450 460 c 1
 250 460 l 1
 250 540 l 1
 450 540 l 1
EndSplineSet
Validated: 1
Substitution2: "'vert' Vertical Alternates lookup 0-1" beringin_affix_per.vert
Substitution2: "'rtla' Right to Left Alternates in Latin lookup 1-1" beringin_affix_per.rtla
EndChar

StartChar: beringin_affix_se
Encoding: 44 60355 44
Width: 800
VWidth: 600
Flags: W
HStem: 240 80<222.54 356.984> 460 80<533.64 540 680 850> 680 80<222.54 356.984>
VStem: 40 80<429.275 570.725> 460 80<427.074 572.926> 600 80<240 461 540 760>
CounterMasks: 1 e0
LayerCount: 3
Fore
SplineSet
600 760 m 1
 680 760 l 1
 680 540 l 1
 850 540 l 1
 850 460 l 1
 680 461 l 1
 680 240 l 1
 600 240 l 1
 600 760 l 1
290 320 m 0
 369 320 460 421 460 500 c 0
 460 579 369 680 290 680 c 0
 211 680 120 579 120 500 c 0
 120 421 211 320 290 320 c 0
290 240 m 0
 154 240 40 364 40 500 c 0
 40 636 154 760 290 760 c 0
 413 760 517 659 537 540 c 1
 540 540 l 1
 540 460 l 1
 537 460 l 1
 517 341 413 240 290 240 c 0
EndSplineSet
Validated: 1
Substitution2: "'vert' Vertical Alternates lookup 0-1" beringin_affix_se.vert
Substitution2: "'rtla' Right to Left Alternates in Latin lookup 1-1" beringin_affix_se.rtla
EndChar

StartChar: beringin_affix_ter
Encoding: 45 60357 45
Width: 800
VWidth: 600
Flags: W
HStem: 240 80<223.234 357.076> 440 130<246.371 329.098> 460 80<535.628 850> 680 80<223.234 357.076>
VStem: 220 130<460.902 543.629> 460 79<427.074 460 540 572.926>
LayerCount: 3
Fore
SplineSet
290 440 m 0xdc
 260 440 220 470 220 500 c 0
 220 530 260 570 290 570 c 0
 320 570 350 530 350 500 c 0
 350 470 320 440 290 440 c 0xdc
290 320 m 0
 369 320 460 421 460 500 c 0
 460 579 369 680 290 680 c 0
 255 680 218 660 187 631 c 1
 123 690 l 1
 168 733 227 760 290 760 c 0
 413 760 519 659 539 540 c 5
 850 540 l 1
 850 460 l 1
 539 460 l 5xbc
 519 341 413 240 290 240 c 0
 227 240 168 267 123 310 c 1
 187 369 l 1
 218 340 255 320 290 320 c 0
EndSplineSet
Validated: 1
Substitution2: "'vert' Vertical Alternates lookup 0-1" beringin_affix_ter.vert
Substitution2: "'rtla' Right to Left Alternates in Latin lookup 1-1" beringin_affix_ter.rtla
EndChar

StartChar: beringin_ext_letter_tha
Encoding: 46 60403 46
Width: 800
VWidth: 600
Flags: W
HStem: 240 80<144.986 600> 460 80<-50 4.58789 585.427 850> 680 80<144.986 444.7>
CounterMasks: 1 e0
LayerCount: 3
Fore
SplineSet
600 240 m 1
 150 240 l 2
 42 240 0 460 0 460 c 1
 -50 460 l 1
 -50 540 l 1
 0 540 l 1
 0 540 42 760 150 760 c 0
 450 760 l 0
 558 760 589 540 589 540 c 5
 850 540 l 1
 850 460 l 1
 510 460 l 1
 510 460 502 675 400 680 c 1
 190 680 l 1
 116 676 88 562 80 500 c 1
 88 438 116 324 190 320 c 2
 600 320 l 1
 600 240 l 1
EndSplineSet
Validated: 1
Substitution2: "'vert' Vertical Alternates lookup 0-1" beringin_ext_letter_tha.vert
Substitution2: "'rtla' Right to Left Alternates in Latin lookup 1-1" beringin_ext_letter_tha.rtla
EndChar

StartChar: beringin_ext_letter_dha
Encoding: 47 60404 47
Width: 800
VWidth: 600
Flags: W
HStem: 240 80<144.986 444.7> 460 80<-50 4.58789 585.427 850> 680 80<144.986 600>
CounterMasks: 1 e0
LayerCount: 3
Fore
SplineSet
600 760 m 1
 600 680 l 1
 190 680 l 2
 116 676 92 562 84 500 c 1
 92 438 116 324 190 320 c 1
 400 320 l 1
 502 325 510 540 510 540 c 1
 850 540 l 1
 850 460 l 1
 589 460 l 5
 589 460 558 240 450 240 c 0
 150 240 l 0
 42 240 0 460 0 460 c 1
 -50 460 l 1
 -50 540 l 1
 0 540 l 1
 0 540 42 760 150 760 c 2
 600 760 l 1
EndSplineSet
Validated: 1
Substitution2: "'vert' Vertical Alternates lookup 0-1" beringin_ext_letter_dha.vert
Substitution2: "'rtla' Right to Left Alternates in Latin lookup 1-1" beringin_ext_letter_dha.rtla
EndChar

StartChar: beringin_ext_letter_swa
Encoding: 48 60405 48
Width: 800
VWidth: 600
Flags: W
HStem: 240 80<159.871 445.719> 460 80<-50 40 129.313 340 586.335 660 740 850> 740 20G<660 740> 740 20G<660 740>
VStem: 10 100<362.435 439.662> 500 80<540 662> 660 80<240 460 540 760>
LayerCount: 3
Fore
SplineSet
130 240 m 1xee
 71 257 11 339 10 370 c 0
 10 373 10 377 10 380 c 0
 10 419 31 443 40 460 c 1
 -50 460 l 1
 -50 540 l 1
 340 540 l 1
 340 460 l 1
 180 460 l 1
 148 456 110 433 110 403 c 0
 110 379 133 350 200 320 c 1
 400 320 l 2
 474 324 492 438 500 500 c 1
 500 662 l 1
 380 570 l 1
 310 620 l 1
 500 767 l 1
 501 760 l 1
 580 760 l 1xde
 580 540 l 1
 660 540 l 1
 660 760 l 1
 740 760 l 1
 740 540 l 1
 850 540 l 1
 850 460 l 1
 740 460 l 1
 740 240 l 1
 660 240 l 1
 660 460 l 1
 590 460 l 5
 590 460 558 240 450 240 c 2
 130 240 l 1xee
EndSplineSet
Validated: 1
Substitution2: "'vert' Vertical Alternates lookup 0-1" beringin_ext_letter_swa.vert
Substitution2: "'rtla' Right to Left Alternates in Latin lookup 1-1" beringin_ext_letter_swa.rtla
EndChar

StartChar: beringin_affix_nya
Encoding: 49 60364 49
Width: 800
VWidth: 600
Flags: W
HStem: 240 85<515 573.688> 460 80<-50 264.372> 680 80<454.522 577.46>
VStem: 680 80<431.545 570.725>
LayerCount: 3
Fore
SplineSet
540 450 m 25
 319 240 l 25
 240 290 l 25
 460 500 l 25
 540 450 l 25
515 325 m 1
 593 334 680 423 680 500 c 0
 680 579 589 680 510 680 c 0
 431 680 350 539 350 460 c 0
 263 460 l 1
 -50 460 l 1
 -50 540 l 1
 261 540 l 5
 281 659 387 760 510 760 c 0
 646 760 760 636 760 500 c 0
 760 366 649 243 515 240 c 0
 515 325 l 1
EndSplineSet
Validated: 1
Substitution2: "'vert' Vertical Alternates lookup 0-1" beringin_affix_nya.vert
Substitution2: "'rtla' Right to Left Alternates in Latin lookup 1-1" beringin_affix_nya.rtla
EndChar

StartChar: beringin_letter_nye
Encoding: 50 60330 50
Width: 800
VWidth: 600
Flags: W
HStem: 240 80<172.946 480.129> 460 80<-50 5.51074 300 510.687 610 850>
VStem: -50 130<462.045 540> 530 100<362.521 440.689>
LayerCount: 3
Fore
SplineSet
480 240 m 25
 160 240 l 2
 52 240 0 460 0 460 c 1
 -50 460 l 1
 -50 540 l 1
 80 540 l 1
 80 540 118 325 220 320 c 1
 440 320 l 1
 507 350 530 379 530 403 c 0
 530 434 492 456 460 460 c 1
 300 460 l 1
 300 540 l 1
 850 540 l 1
 850 460 l 1
 610 460 l 5
 619 443 630 419 630 380 c 0
 630 376 630 373 630 370 c 1
 630 370 550 257 480 240 c 25
EndSplineSet
Validated: 1
Substitution2: "'vert' Vertical Alternates lookup 0-1" beringin_letter_nye.vert
Substitution2: "'rtla' Right to Left Alternates in Latin lookup 1-1" beringin_letter_nye.rtla
EndChar

StartChar: beringin_ext_letter_dwa
Encoding: 51 60406 51
Width: 800
VWidth: 600
Flags: W
HStem: 240 21G<660 740> 460 80<-50 40 129.313 340 586.335 660 740 850> 680 80<159.871 445.719>
VStem: 10 100<560.338 637.565> 500 80<338 460> 660 80<240 460 540 760>
LayerCount: 3
Fore
SplineSet
130 760 m 1
 450 760 l 2
 558 760 590 540 590 540 c 5
 660 540 l 1
 660 760 l 1
 740 760 l 1
 740 540 l 1
 850 540 l 1
 850 460 l 1
 740 460 l 1
 740 240 l 1
 660 240 l 1
 660 460 l 1
 580 460 l 1
 580 240 l 1
 501 240 l 1
 500 233 l 1
 310 380 l 1
 380 430 l 1
 500 338 l 1
 500 500 l 1
 492 562 474 676 400 680 c 2
 200 680 l 1
 133 650 110 621 110 597 c 0
 110 567 148 544 180 540 c 1
 340 540 l 1
 340 460 l 1
 -50 460 l 1
 -50 540 l 1
 40 540 l 1
 31 557 10 581 10 620 c 0
 10 623 10 627 10 630 c 0
 11 661 71 743 130 760 c 1
EndSplineSet
Validated: 1
Substitution2: "'vert' Vertical Alternates lookup 0-1" beringin_ext_letter_dwa.vert
Substitution2: "'rtla' Right to Left Alternates in Latin lookup 1-1" beringin_ext_letter_dwa.rtla
EndChar

StartChar: beringin_open_single_quote
Encoding: 52 60392 52
Width: 800
VWidth: 600
Flags: W
HStem: 240 80<120 350> 460 80<120 850> 740 20G<40 120> 740 20G<40 120>
VStem: 40 80<320 460 540 760>
LayerCount: 3
Fore
SplineSet
40 760 m 25xe8
 120 760 l 1
 120 540 l 25
 850 540 l 25
 850 460 l 25
 120 460 l 25
 120 320 l 25
 350 320 l 25
 350 240 l 25
 40 240 l 1
 40 760 l 25xe8
EndSplineSet
Validated: 1
Substitution2: "'vert' Vertical Alternates lookup 0-1" beringin_open_single_quote.vert
Substitution2: "'rtla' Right to Left Alternates in Latin lookup 1-1" beringin_open_single_quote.rtla
EndChar

StartChar: beringin_ext_letter_tra
Encoding: 53 60407 53
Width: 800
VWidth: 600
Flags: W
HStem: 240 80<145.109 600> 460 80<-50 4.58789 300 850> 680 80<144.986 800>
CounterMasks: 1 e0
LayerCount: 3
Fore
SplineSet
850 540 m 1
 850 460 l 1
 300 460 l 1
 300 540 l 1
 850 540 l 1
190 680 m 5
 110 676 94 553 80 496 c 1
 90 432 121 324 190 320 c 2
 600 320 l 1
 600 240 l 1
 150 240 l 2
 42 240 0 460 0 460 c 1
 -50 460 l 1
 -50 540 l 1
 0 540 l 1
 0 540 42 760 150 760 c 0
 800 760 l 1
 800 680 l 5
 597 680 393 680 190 680 c 5
EndSplineSet
Validated: 1
Substitution2: "'vert' Vertical Alternates lookup 0-1" beringin_ext_letter_tra.vert
Substitution2: "'rtla' Right to Left Alternates in Latin lookup 1-1" beringin_ext_letter_tra.rtla
EndChar

StartChar: beringin_close_sgle_quote
Encoding: 54 60393 54
Width: 800
VWidth: 600
Flags: W
HStem: 240 21G<680 760> 460 80<-50 680> 680 80<450 680>
VStem: 680 80<240 460 540 680>
LayerCount: 3
Fore
SplineSet
760 240 m 25
 680 240 l 1
 680 460 l 25
 -50 460 l 29
 -50 540 l 29
 680 540 l 25
 680 680 l 25
 450 680 l 25
 450 760 l 25
 760 760 l 1
 760 240 l 25
EndSplineSet
Validated: 1
Substitution2: "'vert' Vertical Alternates lookup 0-1" beringin_close_sgle_quote.vert
Substitution2: "'rtla' Right to Left Alternates in Latin lookup 1-1" beringin_close_sgle_quote.rtla
EndChar

StartChar: beringin_vowel_a
Encoding: 55 60343 55
Width: 800
VWidth: 600
Flags: W
HStem: 240 21G<260 389.333> 460 80<-50 204.7 580 850> 737 20G<500 580>
VStem: 500 80<384.986 460 540 757>
LayerCount: 3
Fore
SplineSet
580 540 m 1
 850 540 l 1
 850 460 l 1
 580 460 l 1
 580 390 l 2
 580 282 360 240 360 240 c 1
 270 240 l 1
 270 240 262 455 160 460 c 0
 -50 460 l 1
 -50 540 l 1
 210 540 l 0
 306 540 340 365 346 327 c 1
 410 338 497 365 500 430 c 0
 500 757 l 1
 580 757 l 1
 580 540 l 1
EndSplineSet
Validated: 1
Substitution2: "'rtla' Right to Left Alternates in Latin lookup 1-1" beringin_vowel_a.rtla
Substitution2: "'vert' Vertical Alternates lookup 0-1" beringin_vowel_a.vert
EndChar

StartChar: beringin_letter_beh
Encoding: 56 60320 56
Width: 800
VWidth: 600
Flags: W
HStem: 240 80<0 444.7> 460 80<-50 340 583.612 850>
LayerCount: 3
Fore
SplineSet
0 240 m 25
 0 320 l 1
 400 320 l 0
 502 325 510 540 510 540 c 1
 850 540 l 1
 850 460 l 1
 587 460 l 25
 587 460 558 240 450 240 c 2
 0 240 l 25
-50 460 m 25
 -50 540 l 25
 340 540 l 25
 340 460 l 25
 -50 460 l 25
EndSplineSet
Validated: 1
Substitution2: "'vert' Vertical Alternates lookup 0-1" beringin_letter_beh.vert
Substitution2: "'rtla' Right to Left Alternates in Latin lookup 1-1" beringin_letter_beh.rtla
EndChar

StartChar: beringin_letter_cheh
Encoding: 57 60324 57
Width: 800
VWidth: 600
Flags: W
HStem: 240 80<200 654.7> 460 80<-50 204.407 280 441.656 795.427 850> 680 80<365.527 500>
VStem: 720 130<462.045 540>
CounterMasks: 1 e0
LayerCount: 3
Fore
SplineSet
200 240 m 1
 200 320 l 1
 610 320 l 0
 712 325 720 540 720 540 c 1
 850 540 l 1
 850 460 l 1
 799 460 l 5
 799 460 768 240 660 240 c 0
 200 240 l 1
-50 460 m 1
 -50 540 l 2
 200 540 l 1
 230 659 287 760 467 760 c 0
 468 760 469 760 470 760 c 0
 580 760 l 1
 580 680 l 1
 580 680 548 460 440 460 c 0
 325 460 -50 460 -50 460 c 1
280 540 m 1
 390 540 l 0
 454 543 489 617 500 680 c 1
 470 680 l 0
 340 679 314 621 280 540 c 1
EndSplineSet
Validated: 1
Substitution2: "'vert' Vertical Alternates lookup 0-1" beringin_letter_cheh.vert
Substitution2: "'rtla' Right to Left Alternates in Latin lookup 1-1" beringin_letter_cheh.rtla
EndChar

StartChar: beringin_letter_deh
Encoding: 58 60322 58
Width: 800
VWidth: 600
Flags: W
HStem: 240 80<145.3 600> 460 80<-50 5.49561 300 850>
VStem: -50 130<462.045 540>
LayerCount: 3
Fore
SplineSet
600 240 m 25
 150 240 l 2
 42 240 1 460 1 460 c 29
 -50 460 l 1
 -50 540 l 1
 80 540 l 1
 80 540 88 325 190 320 c 0
 600 320 l 1
 600 240 l 25
850 460 m 25
 300 460 l 25
 300 540 l 25
 850 540 l 25
 850 460 l 25
EndSplineSet
Validated: 1
Substitution2: "'vert' Vertical Alternates lookup 0-1" beringin_letter_deh.vert
Substitution2: "'rtla' Right to Left Alternates in Latin lookup 1-1" beringin_letter_deh.rtla
EndChar

StartChar: beringin_vowel_eh
Encoding: 59 60347 59
Width: 800
VWidth: 600
Flags: W
HStem: 240 21G<260 389.333> 460 80<-50 204.7 300 500 580 850> 740 20G<500 580> 740 20G<500 580>
VStem: 500 80<384.986 460 540 760>
LayerCount: 3
Fore
SplineSet
580 540 m 1xe8
 850 540 l 1
 850 460 l 1
 580 460 l 1
 580 390 l 2
 580 282 360 240 360 240 c 1
 270 240 l 1
 270 240 262 455 160 460 c 0
 -50 460 l 1
 -50 540 l 1
 500 540 l 1
 500 760 l 2
 580 760 l 1
 580 540 l 1xe8
300 460 m 1
 325 409 343 348 346 327 c 1
 410 338 497 365 500 430 c 0
 501 460 l 5
 300 460 l 1
EndSplineSet
Validated: 1
Substitution2: "'vert' Vertical Alternates lookup 0-1" beringin_vowel_eh.vert
Substitution2: "'rtla' Right to Left Alternates in Latin lookup 1-1" beringin_vowel_eh.rtla
EndChar

StartChar: beringin_letter_ehf
Encoding: 60 60337 60
Width: 800
VWidth: 600
Flags: W
HStem: 240 80<145.3 600> 460 80<-50 4.58789 200 390 585.427 850> 680 80<0 444.7>
VStem: -50 130<462.045 540>
CounterMasks: 1 e0
LayerCount: 3
Fore
SplineSet
390 540 m 25
 390 460 l 25
 200 460 l 25
 200 540 l 25
 390 540 l 25
600 240 m 25
 150 240 l 0
 42 240 0 460 0 460 c 25
 -50 460 l 1
 -50 540 l 1
 80 540 l 1
 80 540 88 325 190 320 c 0
 600 320 l 1
 600 240 l 25
0 760 m 25
 450 760 l 0
 558 760 589 540 589 540 c 29
 850 540 l 1
 850 460 l 1
 510 460 l 1
 510 460 502 675 400 680 c 0
 0 680 l 1
 0 760 l 25
EndSplineSet
Validated: 1
Substitution2: "'vert' Vertical Alternates lookup 0-1" beringin_letter_ehf.vert
Substitution2: "'rtla' Right to Left Alternates in Latin lookup 1-1" beringin_letter_ehf.rtla
EndChar

StartChar: beringin_letter_geh
Encoding: 61 60326 61
Width: 800
VWidth: 600
Flags: W
HStem: 240 80<145.3 600> 460 80<-50 3.66504 358.344 520 594.035 850> 680 80<300 434.473>
VStem: -50 130<462.045 540>
CounterMasks: 1 e0
LayerCount: 3
Fore
SplineSet
600 240 m 1
 140 240 l 2
 32 240 0 460 0 460 c 1
 -50 460 l 1
 -50 540 l 1
 80 540 l 1
 80 540 88 325 190 320 c 0
 600 320 l 1
 600 240 l 1
850 460 m 1
 360 460 l 2
 252 460 220 680 220 680 c 1
 220 760 l 1
 330 760 l 0
 331 760 332 760 333 760 c 0
 513 760 570 658 600 539 c 5
 712 539 850 540 850 540 c 1
 850 460 l 1
520 540 m 1
 486 621 460 679 330 680 c 0
 300 680 l 1
 311 617 346 543 410 540 c 0
 520 540 l 1
EndSplineSet
Validated: 1
Substitution2: "'vert' Vertical Alternates lookup 0-1" beringin_letter_geh.vert
Substitution2: "'rtla' Right to Left Alternates in Latin lookup 1-1" beringin_letter_geh.rtla
EndChar

StartChar: beringin_letter_ha
Encoding: 62 60336 62
Width: 800
VWidth: 600
Flags: W
HStem: 240 80<145.3 600> 460 80<-50 4.58789 585.427 850> 680 80<0 444.7>
VStem: -50 130<462.045 540>
CounterMasks: 1 e0
LayerCount: 3
Fore
SplineSet
600 240 m 25
 150 240 l 0
 42 240 0 460 0 460 c 25
 -50 460 l 1
 -50 540 l 1
 80 540 l 1
 80 540 88 325 190 320 c 0
 600 320 l 1
 600 240 l 25
0 760 m 25
 450 760 l 2
 558 760 589 540 589 540 c 29
 850 540 l 1
 850 460 l 1
 510 460 l 1
 510 460 502 675 400 680 c 0
 0 680 l 1
 0 760 l 25
EndSplineSet
Validated: 1
Substitution2: "'vert' Vertical Alternates lookup 0-1" beringin_letter_ha.vert
Substitution2: "'rtla' Right to Left Alternates in Latin lookup 1-1" beringin_letter_ha.rtla
EndChar

StartChar: beringin_vowel_i
Encoding: 63 60344 63
Width: 800
VWidth: 600
Flags: W
HStem: 240 21G<260 389.333> 460 80<-50 204.7 580 850> 740 20G<199 245.63> 740 17G<199 245.63 500 580>
VStem: 500 80<384.986 460 540 757>
LayerCount: 3
Fore
SplineSet
464 576 m 1xe8
 407 519 l 1
 163 704 l 1
 219 760 l 1
 464 576 l 1xe8
580 540 m 1
 850 540 l 1
 850 460 l 1
 580 460 l 1
 580 390 l 2
 580 282 360 240 360 240 c 1
 270 240 l 1
 270 240 262 455 160 460 c 0
 -50 460 l 1
 -50 540 l 1
 210 540 l 0
 306 540 340 365 346 327 c 1
 410 338 497 365 500 430 c 0
 500 757 l 1
 580 757 l 1xd8
 580 540 l 1
EndSplineSet
Validated: 1
Substitution2: "'vert' Vertical Alternates lookup 0-1" beringin_vowel_i.vert
Substitution2: "'rtla' Right to Left Alternates in Latin lookup 1-1" beringin_vowel_i.rtla
EndChar

StartChar: beringin_letter_jeh
Encoding: 64 60325 64
Width: 800
VWidth: 600
Flags: W
HStem: 240 80<365.527 500 573.612 580> 460 80<-50 204.407 280 441.656 795.427 850> 680 80<200 654.7>
VStem: 500 77<320 388.378> 720 130<460 537.955>
CounterMasks: 1 e0
LayerCount: 3
Fore
SplineSet
200 760 m 1
 660 760 l 0
 768 760 799 540 799 540 c 5
 850 540 l 1
 850 460 l 1
 720 460 l 1
 720 460 712 675 610 680 c 0
 200 680 l 1
 200 760 l 1
-50 540 m 1
 440 540 l 0
 548 540 577 320 577 320 c 1
 580 320 l 1
 580 240 l 1
 470 240 l 0
 469 240 468 240 467 240 c 0
 287 240 230 341 200 460 c 1
 -50 460 l 2
 -50 540 l 1
280 460 m 1
 314 379 340 321 470 320 c 0
 500 320 l 1
 489 383 454 457 390 460 c 0
 280 460 l 1
EndSplineSet
Validated: 1
Substitution2: "'vert' Vertical Alternates lookup 0-1" beringin_letter_jeh.vert
Substitution2: "'rtla' Right to Left Alternates in Latin lookup 1-1" beringin_letter_jeh.rtla
EndChar

StartChar: beringin_letter_ka
Encoding: 65 60327 65
Width: 800
VWidth: 600
Flags: W
HStem: 240 80<300 433.625> 460 80<-50 3.66504 358.344 520 595.632 850> 680 80<145.3 600>
VStem: -50 130<460 537.955>
CounterMasks: 1 e0
LayerCount: 3
Fore
SplineSet
600 760 m 1
 600 680 l 1
 190 680 l 0
 88 675 80 460 80 460 c 1
 -50 460 l 1
 -50 540 l 1
 0 540 l 1
 0 540 32 760 140 760 c 2
 600 760 l 1
850 540 m 1
 850 460 l 1
 600 460 l 1
 570 341 519 240 339 240 c 4
 338 240 331 240 330 240 c 0
 220 240 l 1
 220 320 l 1
 220 320 252 540 360 540 c 2
 850 540 l 1
520 460 m 1
 410 460 l 0
 346 457 311 383 300 320 c 1
 330 320 l 0
 460 321 486 379 520 460 c 1
EndSplineSet
Validated: 1
Substitution2: "'vert' Vertical Alternates lookup 0-1" beringin_letter_ka.vert
Substitution2: "'rtla' Right to Left Alternates in Latin lookup 1-1" beringin_letter_ka.rtla
EndChar

StartChar: beringin_letter_ehl
Encoding: 66 60334 66
Width: 800
VWidth: 600
Flags: W
HStem: 240 80<170.162 480.129> 460 80<-50 4.58789 300 510.687 610 850> 680 80<144.986 600>
VStem: 530 100<362.521 439.662>
CounterMasks: 1 e0
LayerCount: 3
Fore
SplineSet
600 760 m 1
 600 680 l 1
 190 680 l 0
 121 676 96 578 86 514 c 1
 100 457 140 324 220 320 c 1
 440 320 l 1
 507 350 530 379 530 403 c 0
 530 433 492 456 460 460 c 1
 300 460 l 1
 300 540 l 1
 850 540 l 1
 850 460 l 1
 610 460 l 5
 619 443 630 419 630 380 c 0
 630 377 630 373 630 370 c 1
 630 370 550 257 480 240 c 1
 160 240 l 2
 52 240 0 460 0 460 c 1
 -50 460 l 1
 -50 540 l 1
 0 540 l 1
 0 540 42 760 150 760 c 0
 600 760 l 1
EndSplineSet
Validated: 1
Substitution2: "'vert' Vertical Alternates lookup 0-1" beringin_letter_ehl.vert
Substitution2: "'rtla' Right to Left Alternates in Latin lookup 1-1" beringin_letter_ehl.rtla
EndChar

StartChar: beringin_letter_ehm
Encoding: 67 60328 67
Width: 800
VWidth: 600
Flags: W
HStem: 240 80<159.871 444.7> 460 80<-50 30 128.883 340 586.335 850>
VStem: 10 100<362.435 440.303>
LayerCount: 3
Fore
SplineSet
130 240 m 1
 71 257 11 339 10 370 c 0
 10 373 10 377 10 380 c 0
 10 419 21 443 30 460 c 5
 -50 460 l 1
 -50 540 l 1
 340 540 l 1
 340 460 l 1
 179 460 l 1
 147 456 110 433 110 403 c 0
 110 379 133 350 200 320 c 1
 400 320 l 1
 502 325 510 540 510 540 c 1
 850 540 l 1
 850 460 l 1
 590 460 l 1
 590 460 558 240 450 240 c 2
 130 240 l 1
EndSplineSet
Validated: 1
Substitution2: "'vert' Vertical Alternates lookup 0-1" beringin_letter_ehm.vert
Substitution2: "'rtla' Right to Left Alternates in Latin lookup 1-1" beringin_letter_ehm.rtla
EndChar

StartChar: beringin_letter_ehn
Encoding: 68 60329 68
Width: 800
VWidth: 600
Flags: W
HStem: 460 80<-50 40 129.313 340 585.427 850> 680 80<159.871 444.7>
VStem: 10 100<560.338 637.565>
LayerCount: 3
Fore
SplineSet
130 760 m 1
 450 760 l 2
 558 760 589 540 589 540 c 1
 850 540 l 1
 850 460 l 1
 510 460 l 1
 510 460 502 675 400 680 c 1
 200 680 l 1
 133 650 110 621 110 597 c 0
 110 567 148 544 180 540 c 1
 340 540 l 1
 340 460 l 1
 -50 460 l 1
 -50 540 l 1
 40 540 l 1
 31 557 10 581 10 620 c 0
 10 623 10 627 10 630 c 0
 11 661 71 743 130 760 c 1
EndSplineSet
Validated: 1
Substitution2: "'vert' Vertical Alternates lookup 0-1" beringin_letter_ehn.vert
Substitution2: "'rtla' Right to Left Alternates in Latin lookup 1-1" beringin_letter_ehn.rtla
EndChar

StartChar: beringin_vowel_o
Encoding: 69 60346 69
Width: 800
VWidth: 600
Flags: W
HStem: 240 21G<260 389.333> 460 80<-50 204.7 445.461 500 580 850> 680 80<390 502>
VStem: 308 82<600.575 680> 500 80<384.986 460 541 680>
LayerCount: 3
Fore
SplineSet
580 540 m 1
 850 540 l 1
 850 460 l 1
 580 460 l 1
 580 390 l 2
 580 282 360 240 360 240 c 1
 270 240 l 1
 270 240 262 455 160 460 c 0
 -50 460 l 1
 -50 540 l 1
 210 540 l 2
 306 540 340 365 346 327 c 1
 410 338 497 365 500 430 c 0
 500 460 l 1
 315 460 308 680 308 680 c 1
 310 680 l 1
 310 760 l 1
 580 760 l 1
 580 540 l 1
500 541 m 5
 502 680 l 1
 390 680 l 1
 390 623 423 542 500 541 c 5
EndSplineSet
Validated: 1
Substitution2: "'vert' Vertical Alternates lookup 0-1" beringin_vowel_o.vert
Substitution2: "'rtla' Right to Left Alternates in Latin lookup 1-1" beringin_vowel_o.rtla
EndChar

StartChar: beringin_letter_peh
Encoding: 70 60321 70
Width: 800
VWidth: 600
Flags: W
HStem: 460 80<-50 340 585.427 850> 680 80<0 444.7>
LayerCount: 3
Fore
SplineSet
0 760 m 25
 450 760 l 2
 558 760 589 540 589 540 c 29
 850 540 l 1
 850 460 l 1
 510 460 l 1
 510 460 502 675 400 680 c 0
 0 680 l 1
 0 760 l 25
-50 540 m 25
 340 540 l 25
 340 460 l 25
 -50 460 l 25
 -50 540 l 25
EndSplineSet
Validated: 1
Substitution2: "'vert' Vertical Alternates lookup 0-1" beringin_letter_peh.vert
Substitution2: "'rtla' Right to Left Alternates in Latin lookup 1-1" beringin_letter_peh.rtla
EndChar

StartChar: beringin_letter_ki
Encoding: 71 60341 71
Width: 800
VWidth: 600
Flags: W
HStem: 240 80<300 434.473> 460 80<-50 3.66504 358.344 520 595.593 660 740 850> 680 80<145.3 600>
VStem: -50 130<460 537.955> 660 80<240 460 540 760>
CounterMasks: 1 e0
LayerCount: 3
Fore
SplineSet
520 460 m 1
 410 460 l 0
 346 457 311 383 300 320 c 1
 330 320 l 0
 460 321 486 379 520 460 c 1
600 760 m 1
 600 680 l 1
 190 680 l 0
 88 675 80 460 80 460 c 1
 -50 460 l 1
 -50 540 l 1
 0 540 l 1
 0 540 32 760 140 760 c 0
 600 760 l 1
740 540 m 1
 850 540 l 1
 850 460 l 1
 740 461 l 5
 740 240 l 1
 660 240 l 1
 660 460 l 1
 600 460 l 1
 570 341 513 240 333 240 c 0
 332 240 331 240 330 240 c 0
 220 240 l 1
 220 320 l 1
 220 320 252 540 360 540 c 2
 660 540 l 1
 660 760 l 1
 740 760 l 1
 740 540 l 1
EndSplineSet
Validated: 1
Substitution2: "'vert' Vertical Alternates lookup 0-1" beringin_letter_ki.vert
Substitution2: "'rtla' Right to Left Alternates in Latin lookup 1-1" beringin_letter_ki.rtla
EndChar

StartChar: beringin_letter_ehr
Encoding: 72 60335 72
Width: 800
VWidth: 600
Flags: W
HStem: 240 80<144.986 600> 460 80<-50 4.58789 300 510.687 610 850> 680 80<170.162 480.129>
VStem: 530 100<560.338 637.479>
CounterMasks: 1 e0
LayerCount: 3
Fore
SplineSet
600 240 m 1
 150 240 l 2
 42 240 0 460 0 460 c 1
 -50 460 l 1
 -50 540 l 1
 0 540 l 1
 0 540 52 760 160 760 c 2
 480 760 l 1
 550 743 630 630 630 630 c 1
 630 627 630 623 630 620 c 0
 630 581 619 557 610 540 c 5
 850 540 l 1
 850 460 l 1
 300 460 l 1
 300 540 l 1
 460 540 l 1
 492 544 530 567 530 597 c 0
 530 621 507 650 440 680 c 1
 220 680 l 1
 140 676 100 543 86 486 c 1
 96 422 121 324 190 320 c 0
 600 320 l 1
 600 240 l 1
EndSplineSet
Validated: 1
Substitution2: "'vert' Vertical Alternates lookup 0-1" beringin_letter_ehr.vert
Substitution2: "'rtla' Right to Left Alternates in Latin lookup 1-1" beringin_letter_ehr.rtla
EndChar

StartChar: beringin_letter_ehs
Encoding: 73 60332 73
Width: 800
VWidth: 600
Flags: W
HStem: 240 80<159.871 446.656> 460 80<-50 40 129.313 340 586.335 850> 680 80<0 446.656>
VStem: 10 100<362.435 439.662>
CounterMasks: 1 e0
LayerCount: 3
Fore
SplineSet
130 240 m 1
 71 257 11 339 10 370 c 0
 10 373 10 377 10 380 c 0
 10 419 31 443 40 460 c 1
 -50 460 l 1
 -50 540 l 1
 340 540 l 1
 340 460 l 1
 180 460 l 1
 148 456 110 433 110 403 c 0
 110 379 133 350 200 320 c 1
 400 320 l 1
 474 324 498 438 506 500 c 1
 498 562 474 676 400 680 c 0
 0 680 l 1
 0 760 l 1
 450 760 l 0
 558 760 589 540 589 540 c 5
 850 540 l 1
 850 460 l 1
 590 460 l 1
 590 460 558 240 450 240 c 2
 130 240 l 1
EndSplineSet
Validated: 1
Substitution2: "'vert' Vertical Alternates lookup 0-1" beringin_letter_ehs.vert
Substitution2: "'rtla' Right to Left Alternates in Latin lookup 1-1" beringin_letter_ehs.rtla
EndChar

StartChar: beringin_letter_teh
Encoding: 74 60323 74
Width: 800
VWidth: 600
Flags: W
HStem: 460 80<-50 5.49561 300 850> 680 80<145.3 600>
VStem: -50 130<460 537.955>
LayerCount: 3
Fore
SplineSet
600 760 m 25
 600 680 l 1
 190 680 l 0
 88 675 80 460 80 460 c 1
 -50 460 l 1
 -50 540 l 1
 1 540 l 29
 1 540 42 760 150 760 c 0
 600 760 l 25
850 540 m 25
 850 460 l 25
 300 460 l 25
 300 540 l 25
 850 540 l 25
EndSplineSet
Validated: 1
Substitution2: "'vert' Vertical Alternates lookup 0-1" beringin_letter_teh.vert
Substitution2: "'rtla' Right to Left Alternates in Latin lookup 1-1" beringin_letter_teh.rtla
EndChar

StartChar: beringin_vowel_u
Encoding: 75 60345 75
Width: 800
VWidth: 600
Flags: W
HStem: 240 21G<260 389.333> 460 80<-50 204.7 580 850> 737 20G<464.15 580>
VStem: 500 80<384.986 460 540 661>
LayerCount: 3
Fore
SplineSet
580 460 m 1
 580 390 l 2
 580 282 360 240 360 240 c 1
 270 240 l 1
 270 240 262 455 160 460 c 0
 -50 460 l 1
 -50 540 l 1
 210 540 l 0
 306 540 340 365 346 327 c 1
 410 338 497 365 500 430 c 1
 500 661 l 1
 370 560 l 1
 300 610 l 1
 490 757 l 1
 580 757 l 1
 580 540 l 1
 850 540 l 1
 850 460 l 1
 580 460 l 1
EndSplineSet
Validated: 1
Substitution2: "'vert' Vertical Alternates lookup 0-1" beringin_vowel_u.vert
Substitution2: "'rtla' Right to Left Alternates in Latin lookup 1-1" beringin_vowel_u.rtla
EndChar

StartChar: beringin_letter_fi
Encoding: 76 60340 76
Width: 800
VWidth: 600
Flags: W
HStem: 240 80<0 444.7> 460 80<-50 4.58789 200 390 585.427 850> 680 80<145.3 600>
VStem: -50 130<460 537.955>
CounterMasks: 1 e0
LayerCount: 3
Fore
SplineSet
390 460 m 25
 200 460 l 25
 200 540 l 25
 390 540 l 25
 390 460 l 25
600 760 m 25
 600 680 l 1
 190 680 l 0
 88 675 80 460 80 460 c 1
 -50 460 l 1
 -50 540 l 1
 0 540 l 25
 0 540 42 760 150 760 c 2
 600 760 l 25
0 240 m 25
 0 320 l 1
 400 320 l 0
 502 325 510 540 510 540 c 1
 850 540 l 1
 850 460 l 1
 589 460 l 29
 589 460 558 240 450 240 c 2
 0 240 l 25
EndSplineSet
Validated: 1
Substitution2: "'vert' Vertical Alternates lookup 0-1" beringin_letter_fi.vert
Substitution2: "'rtla' Right to Left Alternates in Latin lookup 1-1" beringin_letter_fi.rtla
EndChar

StartChar: beringin_letter_weh
Encoding: 77 60339 77
Width: 800
VWidth: 600
Flags: W
HStem: 240 21G<260 389.333 660 740> 460 80<-50 204.7 740 850> 740 20G<660 740> 740 17G<464.15 580 660 740>
VStem: 500 80<384.986 660> 660 80<240 461 540 760>
LayerCount: 3
Fore
SplineSet
660 760 m 1xec
 740 760 l 1
 740 540 l 1
 850 540 l 1
 850 460 l 1
 740 461 l 1
 740 240 l 1
 660 240 l 1
 660 760 l 1xec
580 757 m 1xdc
 580 390 l 2
 580 282 360 240 360 240 c 1
 270 240 l 1
 270 240 262 455 160 460 c 0
 -50 460 l 1
 -50 540 l 1
 210 540 l 2
 306 540 340 365 346 327 c 1
 410 338 497 365 500 430 c 2
 500 660 l 1
 370 560 l 1
 300 610 l 1
 490 757 l 1
 580 757 l 1xdc
EndSplineSet
Validated: 1
Substitution2: "'vert' Vertical Alternates lookup 0-1" beringin_letter_weh.vert
Substitution2: "'rtla' Right to Left Alternates in Latin lookup 1-1" beringin_letter_weh.rtla
EndChar

StartChar: beringin_letter_ehks
Encoding: 78 60342 78
Width: 800
VWidth: 600
Flags: W
HStem: 240 80<0 446.656> 460 80<-50 40 128.883 340 586.335 660 740 850> 680 80<159.871 446.656>
VStem: 10 100<559.697 637.565> 660 80<240 460 540 760>
CounterMasks: 1 e0
LayerCount: 3
Fore
SplineSet
130 760 m 1
 450 760 l 2
 558 760 590 540 590 540 c 1
 660 540 l 1
 660 760 l 1
 740 760 l 1
 740 540 l 1
 850 540 l 1
 850 460 l 1
 740 460 l 1
 740 240 l 1
 660 240 l 1
 660 460 l 1
 590 460 l 1
 590 460 558 240 450 240 c 2
 0 240 l 1
 0 320 l 1
 400 320 l 0
 474 324 498 438 506 500 c 1
 498 562 474 676 400 680 c 1
 200 680 l 1
 133 650 110 621 110 597 c 0
 110 567 147 544 179 540 c 5
 340 540 l 1
 340 460 l 1
 -50 460 l 1
 -50 540 l 1
 40 540 l 1
 31 557 10 581 10 620 c 0
 10 623 10 627 10 630 c 0
 11 661 71 743 130 760 c 1
EndSplineSet
Validated: 1
Substitution2: "'vert' Vertical Alternates lookup 0-1" beringin_letter_ehks.vert
Substitution2: "'rtla' Right to Left Alternates in Latin lookup 1-1" beringin_letter_ehks.rtla
EndChar

StartChar: beringin_letter_yeh
Encoding: 79 60338 79
Width: 800
VWidth: 600
Flags: W
HStem: 240 21G<260 389.333 660 740> 460 80<-50 204.7 740 850> 740 20G<199 245.63 500 580 660 740> 740 20G<199 245.63 500 580 660 740>
VStem: 500 80<384.986 760> 660 80<240 461 540 760>
LayerCount: 3
Fore
SplineSet
464 576 m 25xec
 407 519 l 25
 163 704 l 25
 219 760 l 25
 464 576 l 25xec
660 760 m 1
 740 760 l 1
 740 540 l 1
 850 540 l 1
 850 460 l 1
 740 461 l 5
 740 240 l 1
 660 240 l 1
 660 760 l 1
580 760 m 1
 580 390 l 0
 580 282 360 240 360 240 c 1
 270 240 l 1
 270 240 262 455 160 460 c 0
 -50 460 l 1
 -50 540 l 1
 210 540 l 0
 306 540 340 366 346 327 c 1
 409 339 497 365 500 430 c 0
 500 760 l 1
 580 760 l 1
EndSplineSet
Validated: 1
Substitution2: "'vert' Vertical Alternates lookup 0-1" beringin_letter_yeh.vert
Substitution2: "'rtla' Right to Left Alternates in Latin lookup 1-1" beringin_letter_yeh.rtla
EndChar

StartChar: beringin_letter_zeht
Encoding: 80 60333 80
Width: 800
VWidth: 600
Flags: W
HStem: 240 80<-10 446.656> 460 80<-50 40 129.313 340 585.427 850> 680 80<159.871 446.656>
VStem: 10 100<560.338 637.565>
CounterMasks: 1 e0
LayerCount: 3
Fore
SplineSet
130 760 m 1
 450 760 l 2
 558 760 589 540 589 540 c 5
 850 540 l 1
 850 460 l 1
 589 460 l 5
 589 460 558 240 450 240 c 2
 -10 240 l 1
 -10 320 l 1
 400 320 l 0
 474 324 498 438 506 500 c 1
 498 562 474 676 400 680 c 1
 200 680 l 1
 133 650 110 621 110 597 c 0
 110 567 148 544 180 540 c 1
 340 540 l 1
 340 460 l 1
 -50 460 l 1
 -50 540 l 1
 40 540 l 1
 31 557 10 581 10 620 c 0
 10 623 10 627 10 630 c 0
 11 661 71 743 130 760 c 1
EndSplineSet
Validated: 1
Substitution2: "'vert' Vertical Alternates lookup 0-1" beringin_letter_zeht.vert
Substitution2: "'rtla' Right to Left Alternates in Latin lookup 1-1" beringin_letter_zeht.rtla
EndChar

StartChar: beringin_ext_letter_dza
Encoding: 81 60410 81
Width: 800
VWidth: 600
Flags: W
HStem: 240 21G<472.857 580> 460 80<-50 40 128.883 340 580 850> 680 80<159.871 445.719>
VStem: 10 100<559.697 637.565> 500 80<338 460 540 600.116>
LayerCount: 3
Fore
SplineSet
580 460 m 1
 580 240 l 1
 500 240 l 1
 310 380 l 1
 380 430 l 1
 500 338 l 1
 500 500 l 1
 492 562 474 676 400 680 c 2
 200 680 l 1
 133 650 110 621 110 597 c 0
 110 567 147 544 179 540 c 5
 340 540 l 1
 340 460 l 1
 -50 460 l 1
 -50 540 l 1
 40 540 l 1
 31 557 10 581 10 620 c 0
 10 623 10 627 10 630 c 0
 11 661 71 743 130 760 c 1
 450 760 l 2
 558 760 580 540 580 540 c 1
 850 540 l 1
 850 460 l 1
 580 460 l 1
EndSplineSet
Validated: 1
Substitution2: "'vert' Vertical Alternates lookup 0-1" beringin_ext_letter_dza.vert
Substitution2: "'rtla' Right to Left Alternates in Latin lookup 1-1" beringin_ext_letter_dza.rtla
EndChar

StartChar: beringin_ext_letter_tsa
Encoding: 82 60409 82
Width: 800
VWidth: 600
Flags: W
HStem: 240 80<159.871 445.719> 460 80<-50 40 128.883 340 580 850> 740 20G<472.857 580> 740 20G<472.857 580>
VStem: 10 100<362.435 440.303> 500 80<540 662>
LayerCount: 3
Fore
SplineSet
580 540 m 1xec
 850 540 l 1
 850 460 l 1
 580 460 l 1
 580 460 558 240 450 240 c 2
 130 240 l 1
 71 257 11 339 10 370 c 0
 10 373 10 377 10 380 c 0
 10 419 31 443 40 460 c 1
 -50 460 l 1
 -50 540 l 1
 340 540 l 1
 340 460 l 1
 179 460 l 5
 147 456 110 433 110 403 c 0
 110 379 133 350 200 320 c 1
 400 320 l 2
 474 324 492 438 500 500 c 1
 500 662 l 1
 380 570 l 1
 310 620 l 1
 500 760 l 1
 580 760 l 1
 580 540 l 1xec
EndSplineSet
Validated: 1
Substitution2: "'vert' Vertical Alternates lookup 0-1" beringin_ext_letter_tsa.vert
Substitution2: "'rtla' Right to Left Alternates in Latin lookup 1-1" beringin_ext_letter_tsa.rtla
EndChar

StartChar: beringin_ext_letter_dra
Encoding: 83 60408 83
Width: 800
VWidth: 600
Flags: W
HStem: 240 80<144.986 800> 460 80<-50 4.58789 300 850> 680 80<145.109 600>
CounterMasks: 1 e0
LayerCount: 3
Fore
SplineSet
300 460 m 1
 300 540 l 1
 850 540 l 1
 850 460 l 1
 300 460 l 1
650 320 m 5
 800 320 l 1
 800 240 l 1
 150 240 l 0
 42 240 0 460 0 460 c 1
 -50 460 l 1
 -50 540 l 1
 0 540 l 1
 0 540 42 760 150 760 c 2
 600 760 l 1
 600 680 l 1
 190 680 l 2
 121 676 90 568 80 504 c 1
 94 447 110 324 190 320 c 1
 650 320 l 5
EndSplineSet
Validated: 1
Substitution2: "'vert' Vertical Alternates lookup 0-1" beringin_ext_letter_dra.vert
Substitution2: "'rtla' Right to Left Alternates in Latin lookup 1-1" beringin_ext_letter_dra.rtla
EndChar

StartChar: null_character.vert
Encoding: 84 -1 84
Width: 600
VWidth: 800
Flags: W
HStem: 230 130<260.902 343.629>
VStem: 240 130<250.902 333.629>
LayerCount: 3
Fore
SplineSet
240 290 m 0
 240 320 270 360 300 360 c 0
 330 360 370 320 370 290 c 0
 370 260 330 230 300 230 c 0
 270 230 240 260 240 290 c 0
EndSplineSet
Validated: 1
EndChar

StartChar: beringin_exclamation_mark.vert
Encoding: 86 -1 86
Width: 600
VWidth: 800
Flags: W
HStem: 553 87<340 410.752> 830 20G<260 340 480 559.039>
VStem: 40 80<380 443.162> 260 80<442.706 540 640 850> 480 80<290 594 692.838 800>
LayerCount: 3
Fore
SplineSet
560 290 m 1
 480 290 l 1
 480 594 l 1
 417 563 340 553 340 553 c 1
 340 440 l 0
 340 332 120 300 120 300 c 1
 40 300 l 1
 40 379 l 0
 40 380 l 0
 40 501 189 596 260 627 c 1
 260 850 l 1
 340 850 l 1
 340 640 l 1
 402 653 477 680 480 740 c 1
 480 800 l 1
 559 800 l 1
 560 290 l 1
260 540 m 1
 221 502 120 469 120 380 c 1
 216 397 260 430 260 540 c 1
EndSplineSet
Validated: 1
EndChar

StartChar: beringin_word_dup_mark.vert
Encoding: 87 -1 87
Width: 600
VWidth: 800
Flags: W
HStem: 570 80<340 530> 830 20G<260 340>
VStem: 260 80<330 570 780.354 850>
LayerCount: 3
Fore
SplineSet
260 570 m 1
 70 570 l 1
 70 650 l 1
 70 650 199 731 260 800 c 0
 260 850 l 1
 340 850 l 1
 340 650 l 1
 530 650 l 1
 530 570 l 1
 340 570 l 1
 340 330 l 1
 260 330 l 1
 260 570 l 1
EndSplineSet
Validated: 1
EndChar

StartChar: beringin_ext_letter_ak.vert
Encoding: 88 -1 88
Width: 600
VWidth: 800
Flags: W
HStem: 720 130<260 337.955>
VStem: 260 80<793.612 850> 480 80<200 654.7>
LayerCount: 3
Fore
SplineSet
560 200 m 1
 480 200 l 1
 480 610 l 0
 475 712 260 720 260 720 c 1
 260 850 l 1
 340 850 l 1
 340 797 l 1
 340 797 560 768 560 660 c 2
 560 200 l 1
EndSplineSet
Validated: 1
EndChar

StartChar: beringin_open_parenthesis.vert
Encoding: 89 -1 89
Width: 600
VWidth: 800
Flags: W
HStem: -50 21G<260 340> 680 80<40 260 340 480>
VStem: 260 80<-50 680> 480 80<450 680>
LayerCount: 3
Fore
SplineSet
40 760 m 25
 560 760 l 1
 560 450 l 25
 480 450 l 25
 480 680 l 25
 340 680 l 25
 340 -50 l 29
 260 -50 l 29
 260 680 l 25
 40 680 l 1
 40 760 l 25
EndSplineSet
Validated: 1
EndChar

StartChar: beringin_close_parenthesis.vert
Encoding: 90 -1 90
Width: 600
VWidth: 800
Flags: W
HStem: 40 80<120 260 340 560> 830 20G<260 340>
VStem: 40 80<120 350> 260 80<120 850>
LayerCount: 3
Fore
SplineSet
560 40 m 25
 40 40 l 1
 40 350 l 25
 120 350 l 25
 120 120 l 25
 260 120 l 25
 260 850 l 25
 340 850 l 25
 340 120 l 25
 560 120 l 1
 560 40 l 25
EndSplineSet
Validated: 1
EndChar

StartChar: beringin_comma.vert
Encoding: 91 -1 91
Width: 600
VWidth: 800
Flags: W
HStem: 830 20G<260 340>
VStem: 40 80<380 446.443> 260 80<438.344 547 620.004 850>
LayerCount: 3
Fore
SplineSet
340 850 m 1
 340 440 l 0
 340 332 120 300 120 300 c 1
 40 300 l 1
 40 388 l 2
 40 510 190 600 260 630 c 1
 260 850 l 2
 340 850 l 1
262 547 m 1
 231 513 121 470 120 390 c 0
 120 380 l 1
 183 391 257 426 260 490 c 0
 262 547 l 1
EndSplineSet
Validated: 1
EndChar

StartChar: beringin_hyphen.vert
Encoding: 92 -1 92
Width: 600
VWidth: 800
Flags: W
HStem: -50 21G<260 340> 830 20G<260 340>
VStem: 260 80<-50 850>
LayerCount: 3
Fore
SplineSet
340 850 m 9
 340 -50 l 25
 260 -50 l 17
 260 850 l 1
 340 850 l 9
EndSplineSet
Validated: 1
EndChar

StartChar: beringin_period.vert
Encoding: 93 -1 93
Width: 600
VWidth: 800
Flags: W
HStem: 550 90<340 409.609> 780 70G<260 340 480 560>
VStem: 40 80<380 447.892> 260 80<438.344 544 640 850> 480 80<692.637 800>
LayerCount: 3
Fore
SplineSet
560 800 m 1
 560 690 l 2
 560 582 340 550 340 550 c 1
 340 440 l 0
 340 332 120 300 120 300 c 1
 40 300 l 1
 40 387 l 0
 40 388 l 2
 40 531 201 571 260 630 c 1
 260 850 l 1
 340 850 l 1
 340 640 l 1
 402 652 477 680 480 740 c 0
 480 800 l 1
 560 800 l 1
260 544 m 1
 226 510 121 468 120 390 c 0
 120 380 l 1
 183 391 257 426 260 490 c 1
 260 544 l 1
EndSplineSet
Validated: 1
EndChar

StartChar: beringin_solidus.vert
Encoding: 94 -1 94
Width: 600
VWidth: 800
Flags: W
HStem: 300 80<40 260 340 560> 420 80<40 260 340 560>
VStem: 260 80<100 300 500 700>
LayerCount: 3
Fore
SplineSet
560 380 m 1
 560 300 l 1
 340 300 l 5
 340 233 340 167 340 100 c 5
 260 100 l 1
 260 300 l 1
 40 300 l 1
 40 380 l 1
 560 380 l 1
40 420 m 1
 40 500 l 1
 260 500 l 1
 260 700 l 1
 340 700 l 5
 340 633 340 567 340 500 c 5
 560 500 l 1
 560 420 l 1
 40 420 l 1
EndSplineSet
Validated: 1
EndChar

StartChar: beringin_digit_zero.vert
Encoding: 95 -1 95
Width: 600
VWidth: 800
Flags: W
HStem: 370 80<40 260 340 560> 630 20G<260 340>
VStem: 260 80<150 370 450 650>
LayerCount: 3
Fore
SplineSet
340 450 m 5
 560 450 l 5
 560 370 l 5
 340 370 l 5
 340 150 l 5
 260 150 l 5
 260 370 l 5
 187 370 113 370 40 370 c 5
 40 450 l 5
 260 450 l 5
 260 650 l 5
 340 650 l 5
 340 583 340 517 340 450 c 5
EndSplineSet
Validated: 1
EndChar

StartChar: beringin_digit_one.vert
Encoding: 96 -1 96
Width: 600
VWidth: 800
Flags: W
HStem: 480 80<40 201.072> 630 20G<258 340>
VStem: 260 80<150 524 603.316 650>
LayerCount: 3
Fore
SplineSet
260 524 m 1
 197 493 120 480 120 480 c 1
 40 480 l 1
 40 560 l 1
 102 560 256 561 260 650 c 5
 340 650 l 1
 340 150 l 1
 260 150 l 1
 260 524 l 1
EndSplineSet
Validated: 1
EndChar

StartChar: beringin_digit_two.vert
Encoding: 97 -1 97
Width: 600
VWidth: 800
Flags: W
HStem: 420 80<340 560> 630 20G<229.5 340>
VStem: 260 80<150 420>
LayerCount: 3
Fore
SplineSet
260 420 m 1
 40 420 l 1
 40 500 l 1
 40 500 199 581 260 650 c 0
 340 650 l 1
 340 500 l 1
 560 500 l 1
 560 420 l 1
 340 420 l 1
 340 150 l 1
 260 150 l 1
 260 420 l 1
EndSplineSet
Validated: 1
EndChar

StartChar: beringin_digit_three.vert
Encoding: 98 -1 98
Width: 600
VWidth: 800
Flags: W
HStem: 480 80<480 560> 630 20G<260 342>
VStem: 260 80<150 524 605.719 650>
LayerCount: 3
Fore
SplineSet
340 524 m 1
 340 150 l 1
 260 150 l 1
 260 267 260 533 260 650 c 1
 340 650 l 0
 344 567 486 560 540 560 c 0
 552 560 560 560 560 560 c 1
 560 480 l 1
 480 480 l 1
 480 483 l 1
 480 483 403 493 340 524 c 1
EndSplineSet
Validated: 1
EndChar

StartChar: beringin_digit_four.vert
Encoding: 99 -1 99
Width: 600
VWidth: 800
Flags: W
HStem: 420 80<40 260> 630 20G<260 370.5>
VStem: 260 80<150 420>
LayerCount: 3
Fore
SplineSet
340 420 m 1
 340 150 l 1
 260 150 l 1
 260 420 l 1
 40 420 l 1
 40 500 l 1
 260 500 l 1
 260 650 l 1
 340 650 l 0
 401 581 560 500 560 500 c 1
 560 420 l 1
 340 420 l 1
EndSplineSet
Validated: 1
EndChar

StartChar: beringin_digit_five.vert
Encoding: 100 -1 100
Width: 600
VWidth: 800
Flags: W
HStem: 630 20G<230.667 340>
VStem: 40 77<380 503.387> 260 80<150 560>
LayerCount: 3
Fore
SplineSet
340 150 m 1
 260 150 l 1
 260 560 l 1
 198 548 123 520 120 460 c 0
 117 411 117 389 117 380 c 1
 40 380 l 1
 40 500 l 0
 40 608 260 650 260 650 c 1
 340 650 l 1
 340 150 l 1
EndSplineSet
Validated: 1
EndChar

StartChar: beringin_digit_six.vert
Encoding: 101 -1 101
Width: 600
VWidth: 800
Flags: W
HStem: 560 90<340 560>
VStem: 40 77<380 503.387> 260 80<150 560>
LayerCount: 3
Fore
SplineSet
340 150 m 1
 260 150 l 1
 260 560 l 1
 198 548 123 520 120 460 c 0
 117 411 117 389 117 380 c 1
 40 380 l 1
 40 380 40 385 40 500 c 0
 40 608 260 650 260 650 c 1
 560 650 l 1
 560 560 l 1
 340 560 l 1
 340 150 l 1
EndSplineSet
Validated: 1
EndChar

StartChar: beringin_digit_seven.vert
Encoding: 102 -1 102
Width: 600
VWidth: 800
Flags: W
HStem: 630 20G<260 369.333>
VStem: 260 80<150 560> 480 80<380 505.014>
LayerCount: 3
Fore
SplineSet
260 150 m 1
 260 650 l 1
 340 650 l 1
 340 650 560 608 560 500 c 4
 560 425 559 380 559 380 c 5
 480 380 l 1
 480 460 l 0
 477 520 402 548 340 560 c 1
 340 150 l 1
 260 150 l 1
EndSplineSet
Validated: 1
EndChar

StartChar: beringin_digit_eight.vert
Encoding: 103 -1 103
Width: 600
VWidth: 800
Flags: W
HStem: 560 90<40 260>
VStem: 260 80<150 560> 480 80<380 505.014>
LayerCount: 3
Fore
SplineSet
260 150 m 1
 260 560 l 1
 40 560 l 1
 40 650 l 1
 340 650 l 1
 340 650 560 608 560 500 c 0
 560 380 l 1
 480 379 l 5
 480 460 l 0
 477 520 402 548 340 560 c 1
 340 150 l 1
 260 150 l 1
EndSplineSet
Validated: 1
EndChar

StartChar: beringin_digit_nine.vert
Encoding: 104 -1 104
Width: 600
VWidth: 800
Flags: W
HStem: 630 20G<233 369>
VStem: 40 80<382.177 499.237> 260 80<150 233.123 310 570> 480 80<382.177 499.237>
LayerCount: 3
Fore
SplineSet
340 310 m 1
 409 333 480 374 480 440 c 0
 480 506 409 557 340 570 c 1
 340 310 l 1
40 440 m 0
 40 576 165 650 301 650 c 4
 437 650 560 576 560 440 c 0
 560 317 459 250 340 230 c 1
 340 150 l 1
 260 150 l 1
 260 230 l 1
 141 250 40 317 40 440 c 0
260 570 m 1
 191 557 120 506 120 440 c 0
 120 374 191 333 260 310 c 1
 260 570 l 1
EndSplineSet
Validated: 1
EndChar

StartChar: beringin_colon.vert
Encoding: 105 -1 105
Width: 600
VWidth: 800
Flags: W
HStem: 830 20G<260 340>
VStem: 40 80<300 374.366> 260 80<517.624 850> 480 80<300 380.653>
LayerCount: 3
Fore
SplineSet
120 300 m 3
 40 300 l 3
 40 566 260 450 260 559 c 0
 260 560 260 560 260 560 c 0
 260 850 l 1
 340 850 l 1
 340 560 l 1
 340 450 560 562 560 302 c 0
 560 301 560 301 560 300 c 5
 480 300 l 3
 480 472 342 359 300 480 c 1
 261 359 120 472 120 300 c 3
EndSplineSet
Validated: 1
EndChar

StartChar: beringin_semicolon.vert
Encoding: 106 -1 106
Width: 600
VWidth: 800
Flags: W
HStem: 780 20G<80 160 260 340>
VStem: 40 80<380 446.966> 80 80<630 800> 260 80<438.344 550 620.004 850>
LayerCount: 3
Fore
SplineSet
160 800 m 25xb0
 160 630 l 25
 80 630 l 25
 80 800 l 25
 160 800 l 25xb0
340 850 m 1
 340 440 l 2
 340 332 120 300 120 300 c 1
 40 300 l 1
 40 387 l 0
 40 388 l 0xd0
 40 510 190 600 260 630 c 1
 260 850 l 1
 340 850 l 1
261 550 m 5
 230 516 121 470 120 390 c 0
 120 380 l 1
 183 391 257 426 260 490 c 0
 261 550 l 5
EndSplineSet
Validated: 1
EndChar

StartChar: beringin_open_double_quote.vert
Encoding: 107 -1 107
Width: 600
VWidth: 800
Flags: W
HStem: -50 21G<260 340> 680 80<40 260 340 390 450 490>
VStem: 260 80<-50 680> 390 60<530 680> 490 70<450 680>
LayerCount: 3
Fore
SplineSet
40 760 m 25
 560 760 l 1
 560 450 l 25
 490 450 l 25
 490 680 l 17
 450 680 l 1
 450 530 l 1
 390 530 l 1
 390 680 l 1
 340 680 l 9
 340 -50 l 25
 260 -50 l 25
 260 680 l 25
 40 680 l 1
 40 760 l 25
EndSplineSet
Validated: 1
EndChar

StartChar: beringin_close_dble_quote.vert
Encoding: 108 -1 108
Width: 600
VWidth: 800
Flags: W
HStem: 40 80<110 150 210 260 340 560> 830 20G<260 340>
VStem: 40 70<120 350> 150 60<120 270> 260 80<120 850>
LayerCount: 3
Fore
SplineSet
560 40 m 25
 40 40 l 1
 40 350 l 25
 110 350 l 25
 110 120 l 17
 150 120 l 1
 150 270 l 1
 210 270 l 1
 210 120 l 1
 260 120 l 9
 260 850 l 25
 340 850 l 25
 340 120 l 25
 560 120 l 1
 560 40 l 25
EndSplineSet
Validated: 1
EndChar

StartChar: beringin_question_mark.vert
Encoding: 109 -1 109
Width: 600
VWidth: 800
Flags: W
HStem: 559 81<340 409.609> 780 70G<260 340 480 560>
VStem: 40 80<380 447.148> 260 80<438.344 544 640 850> 480 80<692.637 800>
LayerCount: 3
Fore
SplineSet
376 256 m 25
 319 313 l 25
 504 557 l 25
 560 501 l 25
 376 256 l 25
560 800 m 1
 560 690 l 2
 560 582 340 559 340 559 c 5
 340 440 l 0
 340 332 120 300 120 300 c 1
 40 300 l 1
 40 387 l 0
 40 388 l 0
 40 508 189 599 260 630 c 1
 260 850 l 1
 340 850 l 1
 340 640 l 1
 402 652 477 680 480 740 c 0
 480 800 l 1
 560 800 l 1
260 544 m 1
 226 510 121 468 120 390 c 0
 120 380 l 1
 183 391 257 426 260 490 c 1
 260 544 l 1
EndSplineSet
Validated: 1
EndChar

StartChar: beringin_affix_an.vert
Encoding: 110 -1 110
Width: 600
VWidth: 800
Flags: W
HStem: 40 80<231.545 387.171> 830 20G<260 340>
VStem: 40 85<226.312 285> 260 80<533.81 850> 480 80<209.213 350.894>
LayerCount: 3
Fore
SplineSet
125 285 m 1
 134 207 223 120 300 120 c 0
 379 120 480 175 480 290 c 0
 480 385 339 460 260 460 c 1
 260 850 l 1
 340 850 l 1
 340 537 l 1
 459 517 560 440 560 290 c 0
 560 123 436 40 300 40 c 0
 166 40 43 151 40 285 c 0
 125 285 l 1
EndSplineSet
Validated: 1
EndChar

StartChar: beringin_affix_ber.vert
Encoding: 111 -1 111
Width: 600
VWidth: 800
Flags: W
HStem: -50 21G<260 340> 263 77<227.074 260 340 372.926>
VStem: 40 80<443.016 576.766> 260 80<-50 266.36> 480 80<443.016 576.766>
LayerCount: 3
Fore
SplineSet
120 510 m 0
 120 431 221 340 300 340 c 0
 379 340 480 431 480 510 c 0
 480 545 460 582 431 613 c 1
 490 677 l 1
 533 632 560 573 560 510 c 0
 560 387 459 283 340 263 c 1
 340 -50 l 1
 260 -50 l 1
 260 263 l 1
 141 283 40 387 40 510 c 0
 40 573 67 632 110 677 c 1
 169 613 l 1
 140 582 120 545 120 510 c 0
EndSplineSet
Validated: 1
EndChar

StartChar: beringin_ext_letter_kya.vert
Encoding: 112 -1 112
Width: 600
VWidth: 800
Flags: W
HStem: -50 21G<260 340> 60 80<40 260 340 560> 220 80<340 480> 720 130<260 337.955>
VStem: 40 80<391.733 520> 260 80<-50 60 140 220 301 461.656 796.335 850> 480 80<300 654.7>
LayerCount: 3
Fore
SplineSet
560 140 m 1
 560 60 l 1
 340 60 l 1
 340 -50 l 1
 260 -50 l 1
 260 60 l 1
 40 60 l 1
 40 140 l 1
 260 140 l 1
 260 220 l 1
 141 250 40 307 40 487 c 0
 40 488 40 489 40 490 c 2
 40 600 l 1
 120 600 l 1
 120 600 340 568 340 460 c 2
 340 300 l 1
 480 300 l 1
 480 610 l 1
 475 712 260 720 260 720 c 1
 260 850 l 1
 340 850 l 1
 340 800 l 1
 340 800 560 768 560 660 c 0
 560 220 l 1
 340 220 l 1
 340 140 l 1
 560 140 l 1
262 301 m 5
 260 410 l 2
 257 474 183 509 120 520 c 1
 120 490 l 2
 121 360 181 335 262 301 c 5
EndSplineSet
Validated: 1
EndChar

StartChar: beringin_affix_di.vert
Encoding: 113 -1 113
Width: 600
VWidth: 800
Flags: W
HStem: -50 21G<260 340> 261 79<227.074 260 340 372.926> 450 130<260.902 343.629> 680 80<229.275 370.725>
VStem: 40 80<442.924 577.46> 240 130<470.902 553.629> 260 80<-50 264.372> 480 80<442.924 577.46>
LayerCount: 3
Fore
SplineSet
240 510 m 0xfd
 240 540 270 580 300 580 c 0
 330 580 370 540 370 510 c 0
 370 480 330 450 300 450 c 0
 270 450 240 480 240 510 c 0xfd
120 510 m 0
 120 431 221 340 300 340 c 0
 379 340 480 431 480 510 c 0
 480 589 379 680 300 680 c 0
 221 680 120 589 120 510 c 0
40 510 m 0
 40 646 164 760 300 760 c 0
 436 760 560 646 560 510 c 0
 560 387 459 281 340 261 c 5
 340 -50 l 1
 260 -50 l 1
 260 261 l 5xfb
 141 281 40 387 40 510 c 0
EndSplineSet
Validated: 1
EndChar

StartChar: beringin_vowel_e.vert
Encoding: 114 -1 114
Width: 600
VWidth: 800
Flags: W
HStem: -50 21G<260 340> 60 80<40 261 340 560> 220 80<184.986 557> 830 20G<260 340>
VStem: 260 80<-50 60 595.3 850>
LayerCount: 3
Fore
SplineSet
560 140 m 1
 560 60 l 1
 340 60 l 1
 340 -50 l 1
 260 -50 l 1
 261 60 l 5
 40 60 l 1
 40 140 l 1
 560 140 l 1
557 220 m 1
 190 220 l 0
 82 220 40 440 40 440 c 1
 40 530 l 1
 40 530 255 538 260 640 c 0
 260 850 l 1
 340 850 l 1
 340 590 l 0
 340 494 166 460 127 454 c 1
 139 391 165 303 230 300 c 0
 557 300 l 1
 557 220 l 1
EndSplineSet
Validated: 1
EndChar

StartChar: beringin_ext_letter_gya.vert
Encoding: 115 -1 115
Width: 600
VWidth: 800
Flags: W
HStem: -50 21G<260 340> 60 80<40 260 340 560> 220 80<120 260> 720 130<262.045 340>
VStem: 40 80<300 654.7> 260 80<-50 60 140 220 300 461.656 796.335 850> 480 80<385.527 520>
LayerCount: 3
Fore
SplineSet
40 140 m 1
 260 140 l 1
 260 220 l 1
 40 220 l 1
 40 660 l 0
 40 768 260 800 260 800 c 1
 260 850 l 1
 340 850 l 1
 340 720 l 1
 340 720 125 712 120 610 c 1
 120 300 l 1
 260 300 l 1
 260 460 l 2
 260 568 480 600 480 600 c 1
 560 600 l 1
 560 490 l 2
 560 489 560 488 560 487 c 0
 560 307 459 250 340 220 c 1
 340 140 l 1
 560 140 l 1
 560 60 l 1
 340 60 l 1
 340 -50 l 1
 260 -50 l 1
 260 60 l 1
 40 60 l 1
 40 140 l 1
339 300 m 5
 420 334 479 360 480 490 c 2
 480 520 l 1
 417 509 343 474 340 410 c 2
 339 300 l 5
EndSplineSet
Validated: 1
EndChar

StartChar: beringin_letter_eng.vert
Encoding: 116 -1 116
Width: 600
VWidth: 800
Flags: W
HStem: -50 21G<260 340> 170 100<359.697 437.565>
VStem: 260 80<-50 200 288.883 500 791.766 850> 480 80<319.871 627.054>
LayerCount: 3
Fore
SplineSet
560 320 m 25
 543 250 451 170 451 170 c 5
 447 170 444 170 440 170 c 4
 401 170 356 190 340 200 c 1
 340 -50 l 1
 260 -50 l 1
 260 500 l 1
 340 500 l 1
 340 339 l 1
 344 307 367 270 397 270 c 0
 421 270 450 293 480 360 c 1
 480 580 l 1
 475 682 260 720 260 720 c 1
 260 850 l 1
 340 850 l 1
 340 797 l 1
 340 797 560 748 560 640 c 2
 560 320 l 25
EndSplineSet
Validated: 1
EndChar

StartChar: beringin_affix_kah.vert
Encoding: 117 -1 117
Width: 600
VWidth: 800
Flags: W
HStem: 40 80<198.118 370.725> 250 80<130 350> 830 20G<260 340>
VStem: 40 90<178.485 250> 260 80<533.64 850> 480 80<222.54 345.412>
LayerCount: 3
Fore
SplineSet
130 231 m 5
 139 153 223 120 300 120 c 0
 379 120 480 211 480 290 c 0
 480 369 339 450 260 450 c 0
 260 537 l 1
 260 850 l 1
 340 850 l 1
 340 537 l 1
 459 517 560 413 560 290 c 0
 560 154 436 40 300 40 c 0
 166 40 43 131 40 265 c 0
 40 330 l 1
 350 330 l 1
 350 250 l 1
 130 250 l 1
 130 231 l 5
EndSplineSet
Validated: 1
EndChar

StartChar: beringin_ext_letter_sya.vert
Encoding: 118 -1 118
Width: 600
VWidth: 800
Flags: W
HStem: -50 21G<260 340> 60 80<40 260 340 560> 220 80<340 560> 690 100<162.435 240.689> 830 20G<260 340>
VStem: 40 80<354.281 640.129> 260 80<-50 60 140 220 460 670.687 770 850>
LayerCount: 3
Fore
SplineSet
40 670 m 1
 57 729 139 789 170 790 c 0
 173 790 176 790 180 790 c 0
 219 790 243 779 260 770 c 5
 260 850 l 1
 340 850 l 1
 340 460 l 1
 260 460 l 1
 260 620 l 1
 256 652 234 690 203 690 c 0
 179 690 150 667 120 600 c 1
 120 400 l 2
 124 326 238 308 300 300 c 1
 560 300 l 1
 560 220 l 1
 340 220 l 1
 340 140 l 1
 560 140 l 1
 560 60 l 1
 340 60 l 1
 340 -50 l 1
 260 -50 l 1
 260 60 l 1
 40 60 l 1
 40 140 l 1
 260 140 l 1
 260 220 l 1
 260 220 40 242 40 350 c 2
 40 670 l 1
376 335 m 1
 319 392 l 1
 504 636 l 1
 560 580 l 1
 376 335 l 1
EndSplineSet
Validated: 1
EndChar

StartChar: beringin_ext_letter_jya.vert
Encoding: 119 -1 119
Width: 600
VWidth: 800
Flags: W
HStem: -50 21G<260 340> 60 80<40 260 340 560> 220 80<40 260 340 400.116> 690 100<360.338 437.565> 830 20G<260 340>
VStem: 260 80<-50 60 140 220 460 670.687 770 850> 480 80<354.281 640.129>
LayerCount: 3
Fore
SplineSet
560 670 m 1
 560 350 l 2
 560 242 340 220 340 220 c 1
 340 140 l 1
 560 140 l 1
 560 60 l 1
 340 60 l 1
 340 -50 l 1
 260 -50 l 1
 260 60 l 1
 40 60 l 1
 40 140 l 1
 260 140 l 1
 260 220 l 1
 40 220 l 1
 40 300 l 1
 300 300 l 1
 362 308 476 326 480 400 c 2
 480 600 l 1
 450 667 421 690 397 690 c 0
 367 690 344 652 340 620 c 1
 340 460 l 1
 260 460 l 1
 260 850 l 1
 340 850 l 1
 340 770 l 5
 357 779 381 790 420 790 c 0
 423 790 427 790 430 790 c 0
 461 789 543 729 560 670 c 1
224 335 m 1
 40 580 l 1
 96 636 l 1
 281 392 l 1
 224 335 l 1
EndSplineSet
Validated: 1
EndChar

StartChar: beringin_affix_ke.vert
Encoding: 120 -1 120
Width: 600
VWidth: 800
Flags: W
HStem: -50 21G<260 340> 680 80<229.275 370.725>
VStem: 40 80<428.753 577.46> 260 80<-50 560> 480 80<436.081 577.46>
LayerCount: 3
Fore
SplineSet
340 -50 m 1
 260 -50 l 1
 260 560 l 1
 340 560 l 1
 340 -50 l 1
391 360 m 1
 441 393 480 460 480 510 c 0
 480 589 379 680 300 680 c 0
 221 680 120 589 120 510 c 0
 120 460 150 393 200 360 c 9
 170 290 l 1
 86 332 40 414 40 510 c 0
 40 646 164 760 300 760 c 0
 436 760 560 646 560 510 c 0
 560 420 518 334 441 290 c 0
 391 360 l 1
EndSplineSet
Validated: 1
EndChar

StartChar: beringin_affix_lah.vert
Encoding: 121 -1 121
Width: 600
VWidth: 800
Flags: W
HStem: 40 80<207.69 370.725> 830 20G<260 340>
VStem: 40 85<225.047 350> 260 80<260 440 535.628 850> 480 80<222.54 346.409>
LayerCount: 3
Fore
SplineSet
340 260 m 1
 260 260 l 1
 260 850 l 1
 340 850 l 1
 340 539 l 5
 459 519 560 413 560 290 c 0
 560 154 436 40 300 40 c 0
 166 40 43 83 40 350 c 0
 125 350 l 0
 134 139 223 120 300 120 c 0
 379 120 480 211 480 290 c 0
 480 347 409 410 340 440 c 1
 340 260 l 1
EndSplineSet
Validated: 1
EndChar

StartChar: beringin_affix_men.vert
Encoding: 122 -1 122
Width: 600
VWidth: 800
Flags: W
HStem: -50 21G<260 340> 261 79<227.074 260 340 372.926> 680 80<229.275 370.725>
VStem: 40 80<442.924 577.46> 260 80<-50 264.372> 480 80<442.924 577.46>
LayerCount: 3
Fore
SplineSet
120 510 m 0
 120 431 221 340 300 340 c 0
 379 340 480 431 480 510 c 0
 480 589 379 680 300 680 c 0
 221 680 120 589 120 510 c 0
40 510 m 0
 40 646 164 760 300 760 c 0
 436 760 560 646 560 510 c 0
 560 387 459 281 340 261 c 5
 340 -50 l 1
 260 -50 l 1
 260 261 l 5
 141 281 40 387 40 510 c 0
EndSplineSet
Validated: 1
EndChar

StartChar: beringin_affix_kan.vert
Encoding: 123 -1 123
Width: 600
VWidth: 800
Flags: W
HStem: 40 80<231.545 370.725> 230 130<260.902 343.629> 830 20G<260 340>
VStem: 40 85<226.312 285> 240 130<250.902 333.629> 260 80<533.64 850> 480 80<222.54 357.723>
LayerCount: 3
Fore
SplineSet
240 290 m 0xfa
 240 320 270 360 300 360 c 0
 330 360 370 320 370 290 c 0
 370 260 330 230 300 230 c 0
 270 230 240 260 240 290 c 0xfa
125 285 m 1
 134 207 223 120 300 120 c 0
 379 120 480 211 480 290 c 0
 480 369 408 433 260 450 c 4
 260 537 l 1
 260 850 l 1
 340 850 l 1
 340 537 l 1xf6
 459 517 560 413 560 290 c 0
 560 154 436 40 300 40 c 0
 166 40 43 151 40 285 c 0
 125 285 l 1
EndSplineSet
Validated: 1
EndChar

StartChar: beringin_ext_letter_kha.vert
Encoding: 124 -1 124
Width: 600
VWidth: 800
Flags: W
HStem: -50 21G<260 340> 500 77<120 188.378> 720 130<260 337.955>
VStem: 40 80<365.65 500 573.612 720> 260 80<-50 205.4 280 441.656 796.335 850> 480 80<200 654.7>
LayerCount: 3
Fore
SplineSet
340 -50 m 1
 260 -50 l 1
 260 201 l 5
 141 231 40 287 40 467 c 0
 40 468 40 469 40 470 c 0
 40 720 l 1
 120 720 l 1
 120 577 l 1
 120 577 340 548 340 440 c 2
 340 -50 l 1
260 280 m 1
 260 390 l 0
 257 454 183 489 120 500 c 1
 120 470 l 0
 121 340 179 314 260 280 c 1
480 200 m 1
 480 610 l 0
 475 712 260 720 260 720 c 1
 260 850 l 1
 340 850 l 1
 340 800 l 1
 340 800 560 768 560 660 c 0
 560 200 l 1
 480 200 l 1
EndSplineSet
Validated: 1
EndChar

StartChar: beringin_affix_pen.vert
Encoding: 125 -1 125
Width: 600
VWidth: 800
Flags: W
HStem: -50 21G<260 340> 680 80<229.275 370.725>
VStem: 40 80<444.544 577.46> 260 80<-50 272.321 350 560> 480 80<444.544 577.46>
LayerCount: 3
Fore
SplineSet
40 510 m 0
 40 646 164 760 300 760 c 0
 436 760 560 646 560 510 c 0
 560 387 459 289 340 269 c 5
 340 -50 l 1
 260 -50 l 1
 260 269 l 5
 141 289 40 387 40 510 c 0
340 350 m 1
 409 373 480 444 480 510 c 0
 480 589 379 680 300 680 c 0
 221 680 120 589 120 510 c 0
 120 444 191 373 260 350 c 1
 260 560 l 1
 340 560 l 1
 340 350 l 1
EndSplineSet
Validated: 1
EndChar

StartChar: beringin_ext_letter_gha.vert
Encoding: 126 -1 126
Width: 600
VWidth: 800
Flags: W
HStem: -50 21G<260 340> 500 77<411.622 480> 720 130<262.045 340>
VStem: 40 80<200 654.7> 260 80<-50 204.419 280 441.656 796.335 850> 480 80<367.282 500 573.612 720>
LayerCount: 3
Fore
SplineSet
260 -50 m 1
 260 440 l 2
 260 548 480 577 480 577 c 1
 480 720 l 1
 560 720 l 1
 560 472 l 4
 560 471 560 470 560 469 c 4
 560 289 459 230 340 200 c 1
 340 -50 l 1
 260 -50 l 1
340 280 m 1
 421 314 479 340 480 470 c 0
 480 500 l 1
 417 489 343 454 340 390 c 0
 340 280 l 1
120 200 m 1
 40 200 l 1
 40 660 l 0
 40 768 260 800 260 800 c 1
 260 850 l 1
 340 850 l 1
 340 720 l 1
 340 720 125 712 120 610 c 0
 120 200 l 1
EndSplineSet
Validated: 1
EndChar

StartChar: beringin_affix_per.vert
Encoding: 127 -1 127
Width: 600
VWidth: 800
Flags: W
HStem: -50 21G<260 340>
VStem: 40 80<444.544 576.766> 260 80<-50 272.321 350 550> 480 80<444.544 576.766>
LayerCount: 3
Fore
SplineSet
340 350 m 1
 409 373 480 444 480 510 c 0
 480 545 460 582 431 613 c 1
 490 677 l 1
 533 632 560 573 560 510 c 0
 560 387 459 289 340 269 c 5
 340 -50 l 1
 260 -50 l 1
 260 269 l 5
 141 289 40 387 40 510 c 0
 40 573 67 632 110 677 c 1
 169 613 l 1
 140 582 120 545 120 510 c 0
 120 444 191 373 260 350 c 1
 260 550 l 1
 340 550 l 1
 340 350 l 1
EndSplineSet
Validated: 1
EndChar

StartChar: beringin_affix_se.vert
Encoding: 128 -1 128
Width: 600
VWidth: 800
Flags: W
HStem: -50 21G<260 340> 120 80<40 261 340 560> 260 80<227.074 372.926> 680 80<229.275 370.725>
VStem: 40 80<443.016 577.46> 260 80<-50 120 260 266.36> 480 80<443.016 577.46>
LayerCount: 3
Fore
SplineSet
560 200 m 1
 560 120 l 1
 340 120 l 1
 340 -50 l 1
 260 -50 l 1
 261 120 l 5
 40 120 l 1
 40 200 l 1
 560 200 l 1
120 510 m 0
 120 431 221 340 300 340 c 0
 379 340 480 431 480 510 c 0
 480 589 379 680 300 680 c 0
 221 680 120 589 120 510 c 0
40 510 m 0
 40 646 164 760 300 760 c 0
 436 760 560 646 560 510 c 0
 560 387 459 283 340 263 c 1
 340 260 l 1
 260 260 l 1
 260 263 l 1
 141 283 40 387 40 510 c 0
EndSplineSet
Validated: 1
EndChar

StartChar: beringin_affix_ter.vert
Encoding: 129 -1 129
Width: 600
VWidth: 800
Flags: W
HStem: -50 21G<260 340> 261 79<227.074 260 340 372.926> 450 130<260.902 343.629>
VStem: 40 80<442.924 576.766> 240 130<470.902 553.629> 260 80<-50 264.372> 480 80<442.924 576.766>
LayerCount: 3
Fore
SplineSet
240 510 m 0xfa
 240 540 270 580 300 580 c 0
 330 580 370 540 370 510 c 0
 370 480 330 450 300 450 c 0
 270 450 240 480 240 510 c 0xfa
120 510 m 0
 120 431 221 340 300 340 c 0
 379 340 480 431 480 510 c 0
 480 545 460 582 431 613 c 1
 490 677 l 1
 533 632 560 573 560 510 c 0
 560 387 459 281 340 261 c 5
 340 -50 l 1
 260 -50 l 1
 260 261 l 5xf6
 141 281 40 387 40 510 c 0
 40 573 67 632 110 677 c 1
 169 613 l 1
 140 582 120 545 120 510 c 0
EndSplineSet
Validated: 1
EndChar

StartChar: beringin_ext_letter_tha.vert
Encoding: 130 -1 130
Width: 600
VWidth: 800
Flags: W
HStem: -50 21G<260 340> 830 20G<260 340>
VStem: 40 80<200 655.014> 260 80<-50 214.573 795.412 850> 480 80<355.3 655.014>
LayerCount: 3
Fore
SplineSet
40 200 m 1
 40 650 l 2
 40 758 260 800 260 800 c 1
 260 850 l 1
 340 850 l 1
 340 800 l 1
 340 800 560 758 560 650 c 0
 560 350 l 0
 560 242 340 211 340 211 c 5
 340 -50 l 1
 260 -50 l 1
 260 290 l 1
 260 290 475 298 480 400 c 1
 480 610 l 1
 476 684 362 712 300 720 c 1
 238 712 124 684 120 610 c 2
 120 200 l 1
 40 200 l 1
EndSplineSet
Validated: 1
EndChar

StartChar: beringin_ext_letter_dha.vert
Encoding: 131 -1 131
Width: 600
VWidth: 800
Flags: W
HStem: -50 21G<260 340> 830 20G<260 340>
VStem: 40 80<355.3 655.014> 260 80<-50 214.573 795.412 850> 480 80<200 655.014>
LayerCount: 3
Fore
SplineSet
560 200 m 1
 480 200 l 1
 480 610 l 2
 476 684 362 708 300 716 c 1
 238 708 124 684 120 610 c 1
 120 400 l 1
 125 298 340 290 340 290 c 1
 340 -50 l 1
 260 -50 l 1
 260 211 l 5
 260 211 40 242 40 350 c 0
 40 650 l 0
 40 758 260 800 260 800 c 1
 260 850 l 1
 340 850 l 1
 340 800 l 1
 340 800 560 758 560 650 c 2
 560 200 l 1
EndSplineSet
Validated: 1
EndChar

StartChar: beringin_ext_letter_swa.vert
Encoding: 132 -1 132
Width: 600
VWidth: 800
Flags: W
HStem: -50 21G<260 340> 60 80<40 260 340 560> 220 80<340 462> 690 100<162.435 239.662> 830 20G<260 340>
VStem: 40 80<354.281 640.129> 260 80<-50 60 140 213.665 460 670.687 760 850>
LayerCount: 3
Fore
SplineSet
40 670 m 1
 57 729 139 789 170 790 c 0
 173 790 177 790 180 790 c 0
 219 790 243 769 260 760 c 1
 260 850 l 1
 340 850 l 1
 340 460 l 1
 260 460 l 1
 260 620 l 1
 256 652 233 690 203 690 c 0
 179 690 150 667 120 600 c 1
 120 400 l 2
 124 326 238 308 300 300 c 1
 462 300 l 1
 370 420 l 1
 420 490 l 1
 567 300 l 1
 560 299 l 1
 560 220 l 1
 340 220 l 1
 340 140 l 1
 560 140 l 1
 560 60 l 1
 340 60 l 1
 340 -50 l 1
 260 -50 l 1
 260 60 l 1
 40 60 l 1
 40 140 l 1
 260 140 l 1
 260 210 l 5
 260 210 40 242 40 350 c 2
 40 670 l 1
EndSplineSet
Validated: 1
EndChar

StartChar: beringin_affix_nya.vert
Encoding: 133 -1 133
Width: 600
VWidth: 800
Flags: W
HStem: 40 80<231.545 370.725> 830 20G<260 340>
VStem: 40 85<226.312 285> 260 80<535.628 850> 480 80<222.54 345.478>
LayerCount: 3
Fore
SplineSet
250 260 m 25
 40 481 l 25
 90 560 l 25
 300 340 l 25
 250 260 l 25
125 285 m 1
 134 207 223 120 300 120 c 0
 379 120 480 211 480 290 c 0
 480 369 339 450 260 450 c 0
 260 537 l 1
 260 850 l 1
 340 850 l 1
 340 539 l 5
 459 519 560 413 560 290 c 0
 560 154 436 40 300 40 c 0
 166 40 43 151 40 285 c 0
 125 285 l 1
EndSplineSet
Validated: 1
EndChar

StartChar: beringin_letter_nye.vert
Encoding: 134 -1 134
Width: 600
VWidth: 800
Flags: W
HStem: -50 21G<260 340> 170 100<162.521 240.689> 720 130<262.045 340>
VStem: 40 80<319.871 627.054> 260 80<-50 190 289.313 500 794.489 850>
LayerCount: 3
Fore
SplineSet
40 320 m 25
 40 640 l 2
 40 748 260 800 260 800 c 1
 260 850 l 1
 340 850 l 1
 340 720 l 1
 340 720 125 682 120 580 c 1
 120 360 l 1
 150 293 179 270 203 270 c 0
 234 270 256 308 260 340 c 1
 260 500 l 1
 340 500 l 1
 340 -50 l 1
 260 -50 l 1
 260 190 l 5
 243 181 219 170 180 170 c 0
 176 170 173 170 170 170 c 1
 170 170 57 250 40 320 c 25
EndSplineSet
Validated: 1
EndChar

StartChar: beringin_ext_letter_dwa.vert
Encoding: 135 -1 135
Width: 600
VWidth: 800
Flags: W
HStem: -50 21G<260 340> 60 80<40 260 340 560> 220 80<138 260> 690 100<360.338 437.565> 830 20G<260 340>
VStem: 260 80<-50 60 140 213.665 460 670.687 760 850> 480 80<354.281 640.129>
LayerCount: 3
Fore
SplineSet
560 670 m 1
 560 350 l 2
 560 242 340 210 340 210 c 5
 340 140 l 1
 560 140 l 1
 560 60 l 1
 340 60 l 1
 340 -50 l 1
 260 -50 l 1
 260 60 l 1
 40 60 l 1
 40 140 l 1
 260 140 l 1
 260 220 l 1
 40 220 l 1
 40 299 l 1
 33 300 l 1
 180 490 l 1
 230 420 l 1
 138 300 l 1
 300 300 l 1
 362 308 476 326 480 400 c 2
 480 600 l 1
 450 667 421 690 397 690 c 0
 367 690 344 652 340 620 c 1
 340 460 l 1
 260 460 l 1
 260 850 l 1
 340 850 l 1
 340 760 l 1
 357 769 381 790 420 790 c 0
 423 790 427 790 430 790 c 0
 461 789 543 729 560 670 c 1
EndSplineSet
Validated: 1
EndChar

StartChar: beringin_open_single_quote.vert
Encoding: 136 -1 136
Width: 600
VWidth: 800
Flags: W
HStem: -50 21G<260 340> 680 80<120 260 340 560>
VStem: 40 80<450 680> 260 80<-50 680>
LayerCount: 3
Fore
SplineSet
560 760 m 25
 560 680 l 1
 340 680 l 25
 340 -50 l 25
 260 -50 l 25
 260 680 l 25
 120 680 l 25
 120 450 l 25
 40 450 l 25
 40 760 l 1
 560 760 l 25
EndSplineSet
Validated: 1
EndChar

StartChar: beringin_ext_letter_tra.vert
Encoding: 137 -1 137
Width: 600
VWidth: 800
Flags: W
HStem: -50 21G<260 340> 830 20G<260 340>
VStem: 40 80<200 654.891> 260 80<-50 500 795.412 850> 480 80<0 655.014>
LayerCount: 3
Fore
SplineSet
340 -50 m 1
 260 -50 l 1
 260 500 l 1
 340 500 l 1
 340 -50 l 1
480 610 m 5
 476 690 353 706 296 720 c 1
 232 710 124 679 120 610 c 2
 120 200 l 1
 40 200 l 1
 40 650 l 2
 40 758 260 800 260 800 c 1
 260 850 l 1
 340 850 l 1
 340 800 l 1
 340 800 560 758 560 650 c 0
 560 0 l 1
 480 0 l 5
 480 203 480 407 480 610 c 5
EndSplineSet
Validated: 1
EndChar

StartChar: beringin_close_sgle_quote.vert
Encoding: 138 -1 138
Width: 600
VWidth: 800
Flags: W
HStem: 40 80<40 260 340 480> 830 20G<260 340>
VStem: 260 80<120 850> 480 80<120 350>
LayerCount: 3
Fore
SplineSet
40 40 m 25
 40 120 l 1
 260 120 l 25
 260 850 l 29
 340 850 l 29
 340 120 l 25
 480 120 l 25
 480 350 l 25
 560 350 l 25
 560 40 l 1
 40 40 l 25
EndSplineSet
Validated: 1
EndChar

StartChar: beringin_vowel_a.vert
Encoding: 139 -1 139
Width: 600
VWidth: 800
Flags: W
HStem: -50 21G<260 340> 220 80<184.986 260 340 557> 830 20G<260 340>
VStem: 260 80<-50 220 595.3 850>
LayerCount: 3
Fore
SplineSet
340 220 m 1
 340 -50 l 1
 260 -50 l 1
 260 220 l 1
 190 220 l 2
 82 220 40 440 40 440 c 1
 40 530 l 1
 40 530 255 538 260 640 c 0
 260 850 l 1
 340 850 l 1
 340 590 l 0
 340 494 165 460 127 454 c 1
 138 390 165 303 230 300 c 0
 557 300 l 1
 557 220 l 1
 340 220 l 1
EndSplineSet
Validated: 1
EndChar

StartChar: beringin_letter_beh.vert
Encoding: 140 -1 140
Width: 600
VWidth: 800
Flags: W
HStem: -50 21G<260 340> 780 20G<40 120 260 340>
VStem: 40 80<355.3 800> 260 80<-50 216.388 460 850>
LayerCount: 3
Fore
SplineSet
40 800 m 25
 120 800 l 1
 120 400 l 0
 125 298 340 290 340 290 c 1
 340 -50 l 1
 260 -50 l 1
 260 213 l 25
 260 213 40 242 40 350 c 2
 40 800 l 25
260 850 m 25
 340 850 l 25
 340 460 l 25
 260 460 l 25
 260 850 l 25
EndSplineSet
Validated: 1
EndChar

StartChar: beringin_letter_cheh.vert
Encoding: 141 -1 141
Width: 600
VWidth: 800
Flags: W
HStem: -50 130<262.045 340> 830 20G<260 340>
VStem: 40 80<145.3 600> 260 80<-50 4.57275 358.344 520 595.593 850> 480 80<300 434.473>
LayerCount: 3
Fore
SplineSet
40 600 m 1
 120 600 l 1
 120 190 l 0
 125 88 340 80 340 80 c 1
 340 -50 l 1
 260 -50 l 1
 260 1 l 5
 260 1 40 32 40 140 c 0
 40 600 l 1
260 850 m 1
 340 850 l 2
 340 600 l 1
 459 570 560 513 560 333 c 0
 560 332 560 331 560 330 c 0
 560 220 l 1
 480 220 l 1
 480 220 260 252 260 360 c 0
 260 475 260 850 260 850 c 1
340 520 m 1
 340 410 l 0
 343 346 417 311 480 300 c 1
 480 330 l 0
 479 460 421 486 340 520 c 1
EndSplineSet
Validated: 1
EndChar

StartChar: beringin_letter_deh.vert
Encoding: 142 -1 142
Width: 600
VWidth: 800
Flags: W
HStem: -50 21G<260 340> 720 130<262.045 340>
VStem: 40 80<200 654.7> 260 80<-50 500 794.504 850>
LayerCount: 3
Fore
SplineSet
40 200 m 25
 40 650 l 2
 40 758 260 799 260 799 c 29
 260 850 l 1
 340 850 l 1
 340 720 l 1
 340 720 125 712 120 610 c 0
 120 200 l 1
 40 200 l 25
260 -50 m 25
 260 500 l 25
 340 500 l 25
 340 -50 l 25
 260 -50 l 25
EndSplineSet
Validated: 1
EndChar

StartChar: beringin_vowel_eh.vert
Encoding: 143 -1 143
Width: 600
VWidth: 800
Flags: W
HStem: -50 21G<260 340> 220 80<184.986 260 340 560> 830 20G<260 340>
VStem: 260 80<-50 220 300 500 595.3 850>
LayerCount: 3
Fore
SplineSet
340 220 m 1
 340 -50 l 1
 260 -50 l 1
 260 220 l 1
 190 220 l 2
 82 220 40 440 40 440 c 1
 40 530 l 1
 40 530 255 538 260 640 c 0
 260 850 l 1
 340 850 l 1
 340 300 l 1
 560 300 l 2
 560 220 l 1
 340 220 l 1
260 500 m 1
 209 475 148 457 127 454 c 1
 138 390 165 303 230 300 c 0
 260 299 l 5
 260 500 l 1
EndSplineSet
Validated: 1
EndChar

StartChar: beringin_letter_ehf.vert
Encoding: 144 -1 144
Width: 600
VWidth: 800
Flags: W
HStem: -50 21G<260 340> 720 130<262.045 340> 780 20G<480 560>
VStem: 40 80<200 654.7> 260 80<-50 214.573 410 600 795.412 850> 480 80<355.3 800>
LayerCount: 3
Fore
SplineSet
340 410 m 25x9c
 260 410 l 25
 260 600 l 25
 340 600 l 25
 340 410 l 25x9c
40 200 m 25
 40 650 l 0
 40 758 260 800 260 800 c 25xbc
 260 850 l 1
 340 850 l 1
 340 720 l 1xdc
 340 720 125 712 120 610 c 0
 120 200 l 1
 40 200 l 25
560 800 m 25
 560 350 l 0
 560 242 340 211 340 211 c 29
 340 -50 l 1
 260 -50 l 1
 260 290 l 1
 260 290 475 298 480 400 c 0
 480 800 l 1
 560 800 l 25
EndSplineSet
Validated: 1
EndChar

StartChar: beringin_letter_geh.vert
Encoding: 145 -1 145
Width: 600
VWidth: 800
Flags: W
HStem: -50 21G<260 340> 720 130<262.045 340>
VStem: 40 80<200 654.7> 260 80<-50 205.965 280 441.656 796.335 850> 480 80<365.527 500>
LayerCount: 3
Fore
SplineSet
40 200 m 1
 40 660 l 2
 40 768 260 800 260 800 c 1
 260 850 l 1
 340 850 l 1
 340 720 l 1
 340 720 125 712 120 610 c 0
 120 200 l 1
 40 200 l 1
260 -50 m 1
 260 440 l 2
 260 548 480 580 480 580 c 1
 560 580 l 1
 560 470 l 0
 560 469 560 468 560 467 c 0
 560 287 458 230 339 200 c 5
 339 88 340 -50 340 -50 c 1
 260 -50 l 1
340 280 m 1
 421 314 479 340 480 470 c 0
 480 500 l 1
 417 489 343 454 340 390 c 0
 340 280 l 1
EndSplineSet
Validated: 1
EndChar

StartChar: beringin_letter_ha.vert
Encoding: 146 -1 146
Width: 600
VWidth: 800
Flags: W
HStem: -50 21G<260 340> 720 130<262.045 340> 780 20G<480 560>
VStem: 40 80<200 654.7> 260 80<-50 214.573 795.412 850> 480 80<355.3 800>
LayerCount: 3
Fore
SplineSet
40 200 m 25xdc
 40 650 l 0
 40 758 260 800 260 800 c 25xbc
 260 850 l 1
 340 850 l 1
 340 720 l 1
 340 720 125 712 120 610 c 0
 120 200 l 1
 40 200 l 25xdc
560 800 m 25
 560 350 l 2
 560 242 340 211 340 211 c 29
 340 -50 l 1
 260 -50 l 1
 260 290 l 1
 260 290 475 298 480 400 c 0
 480 800 l 1
 560 800 l 25
EndSplineSet
Validated: 1
EndChar

StartChar: beringin_vowel_i.vert
Encoding: 147 -1 147
Width: 600
VWidth: 800
Flags: W
HStem: -50 21G<260 340> 220 80<184.986 260 340 557> 830 20G<260 340>
VStem: 260 80<-50 220 595.3 850>
LayerCount: 3
Fore
SplineSet
376 336 m 1
 319 393 l 1
 504 637 l 1
 560 581 l 1
 376 336 l 1
340 220 m 1
 340 -50 l 1
 260 -50 l 1
 260 220 l 1
 190 220 l 2
 82 220 40 440 40 440 c 1
 40 530 l 1
 40 530 255 538 260 640 c 0
 260 850 l 1
 340 850 l 1
 340 590 l 0
 340 494 165 460 127 454 c 1
 138 390 165 303 230 300 c 0
 557 300 l 1
 557 220 l 1
 340 220 l 1
EndSplineSet
Validated: 1
EndChar

StartChar: beringin_letter_jeh.vert
Encoding: 148 -1 148
Width: 600
VWidth: 800
Flags: W
HStem: -50 130<260 337.955> 223 77<120 188.378> 830 20G<260 340>
VStem: 40 80<220 226.388 300 434.473> 260 80<-50 4.57275 358.344 520 595.593 850> 480 80<145.3 600>
LayerCount: 3
Fore
SplineSet
560 600 m 1
 560 140 l 0
 560 32 340 1 340 1 c 5
 340 -50 l 1
 260 -50 l 1
 260 80 l 1
 260 80 475 88 480 190 c 0
 480 600 l 1
 560 600 l 1
340 850 m 1
 340 360 l 0
 340 252 120 223 120 223 c 1
 120 220 l 1
 40 220 l 1
 40 330 l 0
 40 331 40 332 40 333 c 0
 40 513 141 570 260 600 c 1
 260 850 l 2
 340 850 l 1
260 520 m 1
 179 486 121 460 120 330 c 0
 120 300 l 1
 183 311 257 346 260 410 c 0
 260 520 l 1
EndSplineSet
Validated: 1
EndChar

StartChar: beringin_letter_ka.vert
Encoding: 149 -1 149
Width: 600
VWidth: 800
Flags: W
HStem: -50 21G<260 340> 720 130<260 337.955>
VStem: 40 80<366.375 500> 260 80<-50 204.368 280 441.656 796.335 850> 480 80<200 654.7>
LayerCount: 3
Fore
SplineSet
560 200 m 1
 480 200 l 1
 480 610 l 0
 475 712 260 720 260 720 c 1
 260 850 l 1
 340 850 l 1
 340 800 l 1
 340 800 560 768 560 660 c 2
 560 200 l 1
340 -50 m 1
 260 -50 l 1
 260 200 l 1
 141 230 40 281 40 461 c 4
 40 462 40 469 40 470 c 0
 40 580 l 1
 120 580 l 1
 120 580 340 548 340 440 c 2
 340 -50 l 1
260 280 m 1
 260 390 l 0
 257 454 183 489 120 500 c 1
 120 470 l 0
 121 340 179 314 260 280 c 1
EndSplineSet
Validated: 1
EndChar

StartChar: beringin_letter_ehl.vert
Encoding: 150 -1 150
Width: 600
VWidth: 800
Flags: W
HStem: -50 21G<260 340> 170 100<162.521 239.662> 830 20G<260 340>
VStem: 40 80<319.871 629.838> 260 80<-50 190 289.313 500 795.412 850> 480 80<200 655.014>
LayerCount: 3
Fore
SplineSet
560 200 m 1
 480 200 l 1
 480 610 l 0
 476 679 378 704 314 714 c 1
 257 700 124 660 120 580 c 1
 120 360 l 1
 150 293 179 270 203 270 c 0
 233 270 256 308 260 340 c 1
 260 500 l 1
 340 500 l 1
 340 -50 l 1
 260 -50 l 1
 260 190 l 5
 243 181 219 170 180 170 c 0
 177 170 173 170 170 170 c 1
 170 170 57 250 40 320 c 1
 40 640 l 2
 40 748 260 800 260 800 c 1
 260 850 l 1
 340 850 l 1
 340 800 l 1
 340 800 560 758 560 650 c 0
 560 200 l 1
EndSplineSet
Validated: 1
EndChar

StartChar: beringin_letter_ehm.vert
Encoding: 151 -1 151
Width: 600
VWidth: 800
Flags: W
HStem: -50 21G<260 340> 690 100<162.435 240.303> 830 20G<260 340>
VStem: 40 80<355.3 640.129> 260 80<-50 213.665 460 671.117 770 850>
LayerCount: 3
Fore
SplineSet
40 670 m 1
 57 729 139 789 170 790 c 0
 173 790 177 790 180 790 c 0
 219 790 243 779 260 770 c 5
 260 850 l 1
 340 850 l 1
 340 460 l 1
 260 460 l 1
 260 621 l 1
 256 653 233 690 203 690 c 0
 179 690 150 667 120 600 c 1
 120 400 l 1
 125 298 340 290 340 290 c 1
 340 -50 l 1
 260 -50 l 1
 260 210 l 1
 260 210 40 242 40 350 c 2
 40 670 l 1
EndSplineSet
Validated: 1
EndChar

StartChar: beringin_letter_ehn.vert
Encoding: 152 -1 152
Width: 600
VWidth: 800
Flags: W
HStem: -50 21G<260 340> 690 100<360.338 437.565> 830 20G<260 340>
VStem: 260 80<-50 214.573 460 670.687 760 850> 480 80<355.3 640.129>
LayerCount: 3
Fore
SplineSet
560 670 m 1
 560 350 l 2
 560 242 340 211 340 211 c 5
 340 -50 l 1
 260 -50 l 1
 260 290 l 1
 260 290 475 298 480 400 c 1
 480 600 l 1
 450 667 421 690 397 690 c 0
 367 690 344 652 340 620 c 1
 340 460 l 1
 260 460 l 1
 260 850 l 1
 340 850 l 1
 340 760 l 1
 357 769 381 790 420 790 c 0
 423 790 427 790 430 790 c 0
 461 789 543 729 560 670 c 1
EndSplineSet
Validated: 1
EndChar

StartChar: beringin_vowel_o.vert
Encoding: 153 -1 153
Width: 600
VWidth: 800
Flags: W
HStem: -50 21G<260 340> 220 80<184.986 260 341 480> 410 82<400.575 480> 830 20G<260 340>
VStem: 260 80<-50 220 300 354.539 595.3 850> 480 80<298 410>
LayerCount: 3
Fore
SplineSet
340 220 m 1
 340 -50 l 1
 260 -50 l 1
 260 220 l 1
 190 220 l 2
 82 220 40 440 40 440 c 1
 40 530 l 1
 40 530 255 538 260 640 c 0
 260 850 l 1
 340 850 l 1
 340 590 l 2
 340 494 165 460 127 454 c 1
 138 390 165 303 230 300 c 0
 260 300 l 1
 260 485 480 492 480 492 c 1
 480 490 l 1
 560 490 l 1
 560 220 l 1
 340 220 l 1
341 300 m 5
 480 298 l 1
 480 410 l 1
 423 410 342 377 341 300 c 5
EndSplineSet
Validated: 1
EndChar

StartChar: beringin_letter_peh.vert
Encoding: 154 -1 154
Width: 600
VWidth: 800
Flags: W
HStem: -50 21G<260 340> 780 70G<260 340 480 560>
VStem: 260 80<-50 214.573 460 850> 480 80<355.3 800>
LayerCount: 3
Fore
SplineSet
560 800 m 25
 560 350 l 2
 560 242 340 211 340 211 c 29
 340 -50 l 1
 260 -50 l 1
 260 290 l 1
 260 290 475 298 480 400 c 0
 480 800 l 1
 560 800 l 25
340 850 m 25
 340 460 l 25
 260 460 l 25
 260 850 l 25
 340 850 l 25
EndSplineSet
Validated: 1
EndChar

StartChar: beringin_letter_ki.vert
Encoding: 155 -1 155
Width: 600
VWidth: 800
Flags: W
HStem: -50 21G<260 340> 60 80<40 260 340 560> 720 130<260 337.955>
VStem: 40 80<365.527 500> 260 80<-50 60 140 204.407 280 441.656 796.335 850> 480 80<200 654.7>
LayerCount: 3
Fore
SplineSet
260 280 m 1
 260 390 l 0
 257 454 183 489 120 500 c 1
 120 470 l 0
 121 340 179 314 260 280 c 1
560 200 m 1
 480 200 l 1
 480 610 l 0
 475 712 260 720 260 720 c 1
 260 850 l 1
 340 850 l 1
 340 800 l 1
 340 800 560 768 560 660 c 0
 560 200 l 1
340 60 m 1
 340 -50 l 1
 260 -50 l 1
 261 60 l 5
 40 60 l 1
 40 140 l 1
 260 140 l 1
 260 200 l 1
 141 230 40 287 40 467 c 0
 40 468 40 469 40 470 c 0
 40 580 l 1
 120 580 l 1
 120 580 340 548 340 440 c 2
 340 140 l 1
 560 140 l 1
 560 60 l 1
 340 60 l 1
EndSplineSet
Validated: 1
EndChar

StartChar: beringin_letter_ehr.vert
Encoding: 156 -1 156
Width: 600
VWidth: 800
Flags: W
HStem: -50 21G<260 340> 170 100<360.338 437.479> 830 20G<260 340>
VStem: 40 80<200 655.014> 260 80<-50 190 289.313 500 795.412 850> 480 80<319.871 629.838>
LayerCount: 3
Fore
SplineSet
40 200 m 1
 40 650 l 2
 40 758 260 800 260 800 c 1
 260 850 l 1
 340 850 l 1
 340 800 l 1
 340 800 560 748 560 640 c 2
 560 320 l 1
 543 250 430 170 430 170 c 1
 427 170 423 170 420 170 c 0
 381 170 357 181 340 190 c 5
 340 -50 l 1
 260 -50 l 1
 260 500 l 1
 340 500 l 1
 340 340 l 1
 344 308 367 270 397 270 c 0
 421 270 450 293 480 360 c 1
 480 580 l 1
 476 660 343 700 286 714 c 1
 222 704 124 679 120 610 c 0
 120 200 l 1
 40 200 l 1
EndSplineSet
Validated: 1
EndChar

StartChar: beringin_letter_ehs.vert
Encoding: 157 -1 157
Width: 600
VWidth: 800
Flags: W
HStem: -50 21G<260 340> 690 100<162.435 239.662> 830 20G<260 340 480 560>
VStem: 40 80<353.344 640.129> 260 80<-50 213.665 460 670.687 760 850> 480 80<353.344 800>
LayerCount: 3
Fore
SplineSet
40 670 m 1
 57 729 139 789 170 790 c 0
 173 790 177 790 180 790 c 0
 219 790 243 769 260 760 c 1
 260 850 l 1
 340 850 l 1
 340 460 l 1
 260 460 l 1
 260 620 l 1
 256 652 233 690 203 690 c 0
 179 690 150 667 120 600 c 1
 120 400 l 1
 124 326 238 302 300 294 c 1
 362 302 476 326 480 400 c 0
 480 800 l 1
 560 800 l 1
 560 350 l 0
 560 242 340 211 340 211 c 5
 340 -50 l 1
 260 -50 l 1
 260 210 l 1
 260 210 40 242 40 350 c 2
 40 670 l 1
EndSplineSet
Validated: 1
EndChar

StartChar: beringin_letter_teh.vert
Encoding: 158 -1 158
Width: 600
VWidth: 800
Flags: W
HStem: -50 21G<260 340> 720 130<260 337.955>
VStem: 260 80<-50 500 794.504 850> 480 80<200 654.7>
LayerCount: 3
Fore
SplineSet
560 200 m 25
 480 200 l 1
 480 610 l 0
 475 712 260 720 260 720 c 1
 260 850 l 1
 340 850 l 1
 340 799 l 29
 340 799 560 758 560 650 c 0
 560 200 l 25
340 -50 m 25
 260 -50 l 25
 260 500 l 25
 340 500 l 25
 340 -50 l 25
EndSplineSet
Validated: 1
EndChar

StartChar: beringin_vowel_u.vert
Encoding: 159 -1 159
Width: 600
VWidth: 800
Flags: W
HStem: -50 21G<260 340> 220 80<184.986 260 340 461> 830 20G<260 340>
VStem: 260 80<-50 220 595.3 850>
LayerCount: 3
Fore
SplineSet
260 220 m 1
 190 220 l 2
 82 220 40 440 40 440 c 1
 40 530 l 1
 40 530 255 538 260 640 c 0
 260 850 l 1
 340 850 l 1
 340 590 l 0
 340 494 165 460 127 454 c 1
 138 390 165 303 230 300 c 1
 461 300 l 5
 360 430 l 1
 410 500 l 1
 557 310 l 1
 557 220 l 1
 340 220 l 1
 340 -50 l 1
 260 -50 l 1
 260 220 l 1
EndSplineSet
Validated: 1
EndChar

StartChar: beringin_letter_fi.vert
Encoding: 160 -1 160
Width: 600
VWidth: 800
Flags: W
HStem: -50 21G<260 340> 720 130<260 337.955> 780 20G<40 120>
VStem: 40 80<355.3 800> 260 80<-50 214.573 410 600 795.412 850> 480 80<200 654.7>
LayerCount: 3
Fore
SplineSet
260 410 m 25x9c
 260 600 l 25
 340 600 l 25
 340 410 l 25
 260 410 l 25x9c
560 200 m 25
 480 200 l 1
 480 610 l 0
 475 712 260 720 260 720 c 1
 260 850 l 1
 340 850 l 1xdc
 340 800 l 25xbc
 340 800 560 758 560 650 c 2
 560 200 l 25
40 800 m 25xbc
 120 800 l 1
 120 400 l 0
 125 298 340 290 340 290 c 1
 340 -50 l 1
 260 -50 l 1
 260 211 l 29
 260 211 40 242 40 350 c 2
 40 800 l 25xbc
EndSplineSet
Validated: 1
EndChar

StartChar: beringin_letter_weh.vert
Encoding: 161 -1 161
Width: 600
VWidth: 800
Flags: W
HStem: -50 21G<260 340> 60 80<40 261 340 560> 220 80<184.986 460> 830 20G<260 340>
VStem: 260 80<-50 60 595.3 850>
LayerCount: 3
Fore
SplineSet
560 140 m 1
 560 60 l 1
 340 60 l 1
 340 -50 l 1
 260 -50 l 1
 261 60 l 5
 40 60 l 1
 40 140 l 1
 560 140 l 1
557 220 m 1
 190 220 l 2
 82 220 40 440 40 440 c 1
 40 530 l 1
 40 530 255 538 260 640 c 0
 260 850 l 1
 340 850 l 1
 340 590 l 2
 340 494 165 460 127 454 c 1
 138 390 165 303 230 300 c 2
 460 300 l 1
 360 430 l 1
 410 500 l 1
 557 310 l 1
 557 220 l 1
EndSplineSet
Validated: 1
EndChar

StartChar: beringin_letter_ehks.vert
Encoding: 162 -1 162
Width: 600
VWidth: 800
Flags: W
HStem: -50 21G<260 340> 60 80<40 260 340 560> 690 100<359.697 437.565> 780 20G<40 120 260 340>
VStem: 40 80<353.344 800> 260 80<-50 60 140 213.665 460 671.117 760 850> 480 80<353.344 640.129>
LayerCount: 3
Fore
SplineSet
560 670 m 1xee
 560 350 l 2
 560 242 340 210 340 210 c 1
 340 140 l 1
 560 140 l 1
 560 60 l 1
 340 60 l 1
 340 -50 l 1
 260 -50 l 1
 260 60 l 1
 40 60 l 1
 40 140 l 1
 260 140 l 1
 260 210 l 1
 260 210 40 242 40 350 c 2
 40 800 l 1
 120 800 l 1xde
 120 400 l 0
 124 326 238 302 300 294 c 1
 362 302 476 326 480 400 c 1
 480 600 l 1
 450 667 421 690 397 690 c 0
 367 690 344 653 340 621 c 5
 340 460 l 1
 260 460 l 1
 260 850 l 1
 340 850 l 1
 340 760 l 1
 357 769 381 790 420 790 c 0
 423 790 427 790 430 790 c 0
 461 789 543 729 560 670 c 1xee
EndSplineSet
Validated: 1
EndChar

StartChar: beringin_letter_yeh.vert
Encoding: 163 -1 163
Width: 600
VWidth: 800
Flags: W
HStem: -50 21G<260 340> 60 80<40 261 340 560> 220 80<184.986 560> 830 20G<260 340>
VStem: 260 80<-50 60 595.3 850>
LayerCount: 3
Fore
SplineSet
376 336 m 25
 319 393 l 25
 504 637 l 25
 560 581 l 25
 376 336 l 25
560 140 m 1
 560 60 l 1
 340 60 l 1
 340 -50 l 1
 260 -50 l 1
 261 60 l 5
 40 60 l 1
 40 140 l 1
 560 140 l 1
560 220 m 1
 190 220 l 0
 82 220 40 440 40 440 c 1
 40 530 l 1
 40 530 255 538 260 640 c 0
 260 850 l 1
 340 850 l 1
 340 590 l 0
 340 494 166 460 127 454 c 1
 139 391 165 303 230 300 c 0
 560 300 l 1
 560 220 l 1
EndSplineSet
Validated: 1
EndChar

StartChar: beringin_letter_zeht.vert
Encoding: 164 -1 164
Width: 600
VWidth: 800
Flags: W
HStem: -50 21G<260 340> 690 100<360.338 437.565> 790 20G<40 120 260 340>
VStem: 40 80<353.344 810> 260 80<-50 214.573 460 670.687 760 850> 480 80<353.344 640.129>
LayerCount: 3
Fore
SplineSet
560 670 m 1xdc
 560 350 l 2
 560 242 340 211 340 211 c 5
 340 -50 l 1
 260 -50 l 1
 260 211 l 5
 260 211 40 242 40 350 c 2
 40 810 l 1
 120 810 l 1xbc
 120 400 l 0
 124 326 238 302 300 294 c 1
 362 302 476 326 480 400 c 1
 480 600 l 1
 450 667 421 690 397 690 c 0
 367 690 344 652 340 620 c 1
 340 460 l 1
 260 460 l 1
 260 850 l 1
 340 850 l 1
 340 760 l 1
 357 769 381 790 420 790 c 0
 423 790 427 790 430 790 c 0
 461 789 543 729 560 670 c 1xdc
EndSplineSet
Validated: 1
EndChar

StartChar: beringin_ext_letter_dza.vert
Encoding: 165 -1 165
Width: 600
VWidth: 800
Flags: W
HStem: -50 21G<260 340> 220 80<138 260 340 400.116> 690 100<359.697 437.565> 830 20G<260 340>
VStem: 260 80<-50 220 460 671.117 760 850> 480 80<354.281 640.129>
LayerCount: 3
Fore
SplineSet
260 220 m 1
 40 220 l 1
 40 300 l 1
 180 490 l 1
 230 420 l 1
 138 300 l 1
 300 300 l 1
 362 308 476 326 480 400 c 2
 480 600 l 1
 450 667 421 690 397 690 c 0
 367 690 344 653 340 621 c 5
 340 460 l 1
 260 460 l 1
 260 850 l 1
 340 850 l 1
 340 760 l 1
 357 769 381 790 420 790 c 0
 423 790 427 790 430 790 c 0
 461 789 543 729 560 670 c 1
 560 350 l 2
 560 242 340 220 340 220 c 1
 340 -50 l 1
 260 -50 l 1
 260 220 l 1
EndSplineSet
Validated: 1
EndChar

StartChar: beringin_ext_letter_tsa.vert
Encoding: 166 -1 166
Width: 600
VWidth: 800
Flags: W
HStem: -50 21G<260 340> 220 80<340 462> 690 100<162.435 240.303> 830 20G<260 340>
VStem: 40 80<354.281 640.129> 260 80<-50 220 460 671.117 760 850>
LayerCount: 3
Fore
SplineSet
340 220 m 1
 340 -50 l 1
 260 -50 l 1
 260 220 l 1
 260 220 40 242 40 350 c 2
 40 670 l 1
 57 729 139 789 170 790 c 0
 173 790 177 790 180 790 c 0
 219 790 243 769 260 760 c 1
 260 850 l 1
 340 850 l 1
 340 460 l 1
 260 460 l 1
 260 621 l 5
 256 653 233 690 203 690 c 0
 179 690 150 667 120 600 c 1
 120 400 l 2
 124 326 238 308 300 300 c 1
 462 300 l 1
 370 420 l 1
 420 490 l 1
 560 300 l 1
 560 220 l 1
 340 220 l 1
EndSplineSet
Validated: 1
EndChar

StartChar: beringin_ext_letter_dra.vert
Encoding: 167 -1 167
Width: 600
VWidth: 800
Flags: W
HStem: -50 21G<260 340> 830 20G<260 340>
VStem: 40 80<0 655.014> 260 80<-50 500 795.412 850> 480 80<200 654.891>
LayerCount: 3
Fore
SplineSet
260 500 m 1
 340 500 l 1
 340 -50 l 1
 260 -50 l 1
 260 500 l 1
120 150 m 5
 120 0 l 1
 40 0 l 1
 40 650 l 0
 40 758 260 800 260 800 c 1
 260 850 l 1
 340 850 l 1
 340 800 l 1
 340 800 560 758 560 650 c 2
 560 200 l 1
 480 200 l 1
 480 610 l 2
 476 679 368 710 304 720 c 1
 247 706 124 690 120 610 c 1
 120 150 l 5
EndSplineSet
Validated: 1
EndChar

StartChar: null_character.rtla
Encoding: 168 -1 168
Width: 800
VWidth: 600
Flags: W
HStem: 430 130<250.902 333.629>
VStem: 230 130<456.371 539.098>
LayerCount: 3
Fore
SplineSet
290 560 m 0
 320 560 360 530 360 500 c 0
 360 470 320 430 290 430 c 0
 260 430 230 470 230 500 c 0
 230 530 260 560 290 560 c 0
EndSplineSet
Validated: 1
EndChar

StartChar: beringin_exclamation_mark.rtla
Encoding: 170 -1 170
Width: 800
VWidth: 600
Flags: W
HStem: 240 80<290 594 692.838 800> 460 80<442.706 540 640 850> 680 80<380 443.162>
LayerCount: 3
Fore
SplineSet
290 240 m 1
 290 320 l 1
 594 320 l 1
 563 383 553 460 553 460 c 1
 440 460 l 0
 332 460 300 680 300 680 c 1
 300 760 l 1
 379 760 l 0
 380 760 l 0
 501 760 596 611 627 540 c 1
 850 540 l 1
 850 460 l 1
 640 460 l 1
 653 398 680 323 740 320 c 1
 800 320 l 1
 800 241 l 1
 290 240 l 1
540 540 m 1
 502 579 469 680 380 680 c 1
 397 584 430 540 540 540 c 1
EndSplineSet
Validated: 1
EndChar

StartChar: beringin_word_dup_mark.rtla
Encoding: 171 -1 171
Width: 800
VWidth: 600
Flags: W
HStem: 460 80<330 570 780.354 850>
VStem: 570 80<270 460>
LayerCount: 3
Fore
SplineSet
570 540 m 1
 570 730 l 1
 650 730 l 1
 650 730 731 601 800 540 c 0
 850 540 l 1
 850 460 l 1
 650 460 l 1
 650 270 l 1
 570 270 l 1
 570 460 l 1
 330 460 l 1
 330 540 l 1
 570 540 l 1
EndSplineSet
Validated: 1
EndChar

StartChar: beringin_ext_letter_ak.rtla
Encoding: 172 -1 172
Width: 800
VWidth: 600
Flags: W
HStem: 240 80<200 654.7> 460 80<797 850>
LayerCount: 3
Fore
SplineSet
200 240 m 1
 200 320 l 1
 610 320 l 0
 712 325 720 540 720 540 c 1
 850 540 l 1
 850 460 l 1
 797 460 l 1
 797 460 768 240 660 240 c 2
 200 240 l 1
EndSplineSet
Validated: 1
EndChar

StartChar: beringin_open_parenthesis.rtla
Encoding: 173 -1 173
Width: 800
VWidth: 600
Flags: W
HStem: 240 80<450 680> 460 80<-50 680> 740 20G<680 760> 740 20G<680 760>
VStem: 680 80<320 460 540 760>
LayerCount: 3
Fore
SplineSet
760 760 m 25xe8
 760 240 l 1
 450 240 l 25
 450 320 l 25
 680 320 l 25
 680 460 l 25
 -50 460 l 29
 -50 540 l 29
 680 540 l 25
 680 760 l 1
 760 760 l 25xe8
EndSplineSet
Validated: 1
EndChar

StartChar: beringin_close_parenthesis.rtla
Encoding: 174 -1 174
Width: 800
VWidth: 600
Flags: W
HStem: 240 21G<40 120> 240 21G<40 120> 460 80<120 850> 680 80<120 350>
VStem: 40 80<240 460 540 680>
LayerCount: 3
Fore
SplineSet
40 240 m 25xb8
 40 760 l 1
 350 760 l 25
 350 680 l 25
 120 680 l 25
 120 540 l 25
 850 540 l 25
 850 460 l 25
 120 460 l 25
 120 240 l 1
 40 240 l 25xb8
EndSplineSet
Validated: 1
EndChar

StartChar: beringin_comma.rtla
Encoding: 175 -1 175
Width: 800
VWidth: 600
Flags: W
HStem: 460 80<438.344 547 620.004 850> 680 80<380 446.443>
LayerCount: 3
Fore
SplineSet
850 460 m 1
 440 460 l 0
 332 460 300 680 300 680 c 1
 300 760 l 1
 388 760 l 2
 510 760 600 610 630 540 c 1
 850 540 l 2
 850 460 l 1
547 538 m 1
 513 569 470 679 390 680 c 0
 380 680 l 1
 391 617 426 543 490 540 c 0
 547 538 l 1
EndSplineSet
Validated: 1
EndChar

StartChar: beringin_hyphen.rtla
Encoding: 176 -1 176
Width: 800
VWidth: 600
Flags: W
HStem: 460 80<-50 850>
LayerCount: 3
Fore
SplineSet
850 460 m 9
 -50 460 l 25
 -50 540 l 17
 850 540 l 1
 850 460 l 9
EndSplineSet
Validated: 1
EndChar

StartChar: beringin_period.rtla
Encoding: 177 -1 177
Width: 800
VWidth: 600
Flags: W
HStem: 240 80<692.637 800> 460 80<438.344 544 640 850> 680 80<380 447.892>
LayerCount: 3
Fore
SplineSet
800 240 m 1
 690 240 l 2
 582 240 550 460 550 460 c 1
 440 460 l 0
 332 460 300 680 300 680 c 1
 300 760 l 1
 387 760 l 0
 388 760 l 2
 531 760 571 599 630 540 c 1
 850 540 l 1
 850 460 l 1
 640 460 l 1
 652 398 680 323 740 320 c 0
 800 320 l 1
 800 240 l 1
544 540 m 1
 510 574 468 679 390 680 c 0
 380 680 l 1
 391 617 426 543 490 540 c 1
 544 540 l 1
EndSplineSet
Validated: 1
EndChar

StartChar: beringin_solidus.rtla
Encoding: 178 -1 178
Width: 800
VWidth: 600
Flags: W
HStem: 240 21G<300 380 420 500> 240 21G<300 380 420 500> 460 80<100 300 500 700> 740 20G<300 380 420 500> 740 20G<300 380 420 500>
VStem: 300 80<240 460 540 760> 420 80<240 460 540 760>
LayerCount: 3
Fore
SplineSet
380 240 m 1xb6
 300 240 l 1
 300 460 l 5
 233 460 167 460 100 460 c 5
 100 540 l 1
 300 540 l 1
 300 760 l 1
 380 760 l 1
 380 240 l 1xb6
420 760 m 1
 500 760 l 1
 500 540 l 1
 700 540 l 1
 700 460 l 5
 633 460 567 460 500 460 c 5
 500 240 l 1
 420 240 l 1
 420 760 l 1
EndSplineSet
Validated: 1
EndChar

StartChar: beringin_digit_zero.rtla
Encoding: 179 -1 179
Width: 800
VWidth: 600
Flags: W
HStem: 240 21G<370 450> 240 21G<370 450> 460 80<150 370 450 650> 740 20G<370 450> 740 20G<370 450>
VStem: 370 80<240 460 540 760>
LayerCount: 3
Fore
SplineSet
450 460 m 1xb4
 450 240 l 1
 370 240 l 1
 370 460 l 1
 150 460 l 1
 150 540 l 5
 370 540 l 1
 370 613 370 687 370 760 c 1
 450 760 l 1
 450 540 l 1
 650 540 l 1
 650 460 l 1
 583 460 517 460 450 460 c 1xb4
EndSplineSet
Validated: 1
EndChar

StartChar: beringin_digit_one.rtla
Encoding: 180 -1 180
Width: 800
VWidth: 600
Flags: W
HStem: 460 80<150 524 603.316 650> 740 20G<480 560> 740 20G<480 560>
VStem: 480 80<680 760>
LayerCount: 3
Fore
SplineSet
524 540 m 1xd0
 493 603 480 680 480 680 c 1
 480 760 l 1
 560 760 l 1
 560 698 561 544 650 540 c 5
 650 460 l 1
 150 460 l 1
 150 540 l 1
 524 540 l 1xd0
EndSplineSet
Validated: 1
EndChar

StartChar: beringin_digit_two.rtla
Encoding: 181 -1 181
Width: 800
VWidth: 600
Flags: W
HStem: 240 21G<420 500> 240 21G<420 500> 460 80<150 420> 740 20G<420 500> 740 20G<420 500>
VStem: 420 80<240 460>
LayerCount: 3
Fore
SplineSet
420 540 m 1xb4
 420 760 l 1
 500 760 l 1
 500 760 581 601 650 540 c 0
 650 460 l 1
 500 460 l 1
 500 240 l 1
 420 240 l 1
 420 460 l 1
 150 460 l 1
 150 540 l 1
 420 540 l 1xb4
EndSplineSet
Validated: 1
EndChar

StartChar: beringin_digit_three.rtla
Encoding: 182 -1 182
Width: 800
VWidth: 600
Flags: W
HStem: 240 21G<480 560> 240 21G<480 560> 460 80<150 524 605.719 650>
VStem: 480 80<240 320>
LayerCount: 3
Fore
SplineSet
524 460 m 1xb0
 150 460 l 1
 150 540 l 1
 267 540 533 540 650 540 c 1
 650 460 l 0
 567 456 560 314 560 260 c 0
 560 248 560 240 560 240 c 1
 480 240 l 1
 480 320 l 1
 483 320 l 1
 483 320 493 397 524 460 c 1xb0
EndSplineSet
Validated: 1
EndChar

StartChar: beringin_digit_four.rtla
Encoding: 183 -1 183
Width: 800
VWidth: 600
Flags: W
HStem: 240 21G<420 500> 240 21G<420 500> 460 80<150 420> 740 20G<420 500> 740 20G<420 500>
VStem: 420 80<540 760>
LayerCount: 3
Fore
SplineSet
420 460 m 1xb4
 150 460 l 1
 150 540 l 1
 420 540 l 1
 420 760 l 1
 500 760 l 1
 500 540 l 1
 650 540 l 1
 650 460 l 0
 581 399 500 240 500 240 c 1
 420 240 l 1
 420 460 l 1xb4
EndSplineSet
Validated: 1
EndChar

StartChar: beringin_digit_five.rtla
Encoding: 184 -1 184
Width: 800
VWidth: 600
Flags: W
HStem: 460 80<150 560> 680 80<380 505.014>
LayerCount: 3
Fore
SplineSet
150 460 m 1
 150 540 l 1
 560 540 l 1
 548 602 520 677 460 680 c 0
 411 683 389 683 380 683 c 1
 380 760 l 1
 500 760 l 0
 608 760 650 540 650 540 c 1
 650 460 l 1
 150 460 l 1
EndSplineSet
Validated: 1
EndChar

StartChar: beringin_digit_six.rtla
Encoding: 185 -1 185
Width: 800
VWidth: 600
Flags: W
HStem: 240 21G<560 650> 240 21G<560 650> 460 80<150 560> 680 80<380 505.014>
VStem: 560 90<240 460>
LayerCount: 3
Fore
SplineSet
150 460 m 1xb8
 150 540 l 1
 560 540 l 1
 548 602 520 677 460 680 c 0
 411 683 389 683 380 683 c 1
 380 760 l 1
 380 760 385 760 500 760 c 0
 608 760 650 540 650 540 c 1
 650 240 l 1
 560 240 l 1
 560 460 l 1
 150 460 l 1xb8
EndSplineSet
Validated: 1
EndChar

StartChar: beringin_digit_seven.rtla
Encoding: 186 -1 186
Width: 800
VWidth: 600
Flags: W
HStem: 240 80<380.033 505.014> 460 80<150 560>
LayerCount: 3
Fore
SplineSet
150 540 m 1
 650 540 l 1
 650 460 l 1
 650 460 608 240 500 240 c 4
 425 240 380 241 380 241 c 5
 380 320 l 1
 460 320 l 0
 520 323 548 398 560 460 c 1
 150 460 l 1
 150 540 l 1
EndSplineSet
Validated: 1
EndChar

StartChar: beringin_digit_eight.rtla
Encoding: 187 -1 187
Width: 800
VWidth: 600
Flags: W
HStem: 240 80<380 505.014> 460 80<150 560> 740 20G<560 650> 740 20G<560 650>
VStem: 560 90<540 760>
LayerCount: 3
Fore
SplineSet
150 540 m 1xe8
 560 540 l 1
 560 760 l 1
 650 760 l 1
 650 460 l 1
 650 460 608 240 500 240 c 0
 380 240 l 1
 379 320 l 5
 460 320 l 0
 520 323 548 398 560 460 c 1
 150 460 l 1
 150 540 l 1xe8
EndSplineSet
Validated: 1
EndChar

StartChar: beringin_digit_nine.rtla
Encoding: 188 -1 188
Width: 800
VWidth: 600
Flags: W
HStem: 240 80<382.177 499.237> 460 80<150 233.123 310 570> 680 80<382.177 499.237>
LayerCount: 3
Fore
SplineSet
310 460 m 1
 333 391 374 320 440 320 c 0
 506 320 557 391 570 460 c 1
 310 460 l 1
440 760 m 0
 576 760 650 635 650 499 c 4
 650 363 576 240 440 240 c 0
 317 240 250 341 230 460 c 1
 150 460 l 1
 150 540 l 1
 230 540 l 1
 250 659 317 760 440 760 c 0
570 540 m 1
 557 609 506 680 440 680 c 0
 374 680 333 609 310 540 c 1
 570 540 l 1
EndSplineSet
Validated: 1
EndChar

StartChar: beringin_colon.rtla
Encoding: 189 -1 189
Width: 800
VWidth: 600
Flags: W
HStem: 240 80<300 380.653> 460 80<517.624 850> 680 80<300 374.366>
LayerCount: 3
Fore
SplineSet
300 680 m 0
 300 760 l 3
 566 760 450 540 559 540 c 0
 560 540 560 540 560 540 c 0
 850 540 l 1
 850 460 l 1
 560 460 l 1
 450 460 562 240 302 240 c 0
 301 240 301 240 300 240 c 5
 300 320 l 3
 472 320 359 458 480 500 c 1
 359 539 472 680 300 680 c 0
EndSplineSet
Validated: 1
EndChar

StartChar: beringin_semicolon.rtla
Encoding: 190 -1 190
Width: 800
VWidth: 600
Flags: W
HStem: 460 80<438.344 550 620.004 850> 640 80<630 800> 680 80<380 446.966>
LayerCount: 3
Fore
SplineSet
800 640 m 25xc0
 630 640 l 25
 630 720 l 25
 800 720 l 25
 800 640 l 25xc0
850 460 m 1
 440 460 l 2
 332 460 300 680 300 680 c 1
 300 760 l 1
 387 760 l 0
 388 760 l 0xa0
 510 760 600 610 630 540 c 1
 850 540 l 1
 850 460 l 1
550 539 m 5
 516 570 470 679 390 680 c 0
 380 680 l 1
 391 617 426 543 490 540 c 0
 550 539 l 5
EndSplineSet
Validated: 1
EndChar

StartChar: beringin_open_double_quote.rtla
Encoding: 191 -1 191
Width: 800
VWidth: 600
Flags: W
HStem: 240 70<450 680> 350 60<530 680> 460 80<-50 680> 740 20G<680 760> 740 20G<680 760>
VStem: 680 80<310 350 410 460 540 760>
LayerCount: 3
Fore
SplineSet
760 760 m 25xf4
 760 240 l 1
 450 240 l 25
 450 310 l 25
 680 310 l 17
 680 350 l 1
 530 350 l 1
 530 410 l 1
 680 410 l 1
 680 460 l 9
 -50 460 l 25
 -50 540 l 25
 680 540 l 25
 680 760 l 1
 760 760 l 25xf4
EndSplineSet
Validated: 1
EndChar

StartChar: beringin_close_dble_quote.rtla
Encoding: 192 -1 192
Width: 800
VWidth: 600
Flags: W
HStem: 240 21G<40 120> 240 21G<40 120> 460 80<120 850> 590 60<120 270> 690 70<120 350>
VStem: 40 80<240 460 540 590 650 690>
LayerCount: 3
Fore
SplineSet
40 240 m 25xbc
 40 760 l 1
 350 760 l 25
 350 690 l 25
 120 690 l 17
 120 650 l 1
 270 650 l 1
 270 590 l 1
 120 590 l 1
 120 540 l 9
 850 540 l 25
 850 460 l 25
 120 460 l 25
 120 240 l 1
 40 240 l 25xbc
EndSplineSet
Validated: 1
EndChar

StartChar: beringin_question_mark.rtla
Encoding: 193 -1 193
Width: 800
VWidth: 600
Flags: W
HStem: 240 80<692.637 800> 240 21G<474.37 521> 460 80<438.344 544 640 850> 680 80<380 447.148>
LayerCount: 3
Fore
SplineSet
256 424 m 25x70
 313 481 l 25
 557 296 l 25
 501 240 l 25
 256 424 l 25x70
800 240 m 1xb0
 690 240 l 2x70
 582 240 559 460 559 460 c 5
 440 460 l 0
 332 460 300 680 300 680 c 1
 300 760 l 1
 387 760 l 0
 388 760 l 0
 508 760 599 611 630 540 c 1
 850 540 l 1
 850 460 l 1
 640 460 l 1
 652 398 680 323 740 320 c 0
 800 320 l 1
 800 240 l 1xb0
544 540 m 1
 510 574 468 679 390 680 c 0
 380 680 l 1
 391 617 426 543 490 540 c 1
 544 540 l 1
EndSplineSet
Validated: 1
EndChar

StartChar: beringin_affix_an.rtla
Encoding: 194 -1 194
Width: 800
VWidth: 600
Flags: W
HStem: 240 80<209.213 350.894> 460 80<533.81 850> 675 85<226.312 285>
VStem: 40 80<412.829 568.455>
LayerCount: 3
Fore
SplineSet
285 675 m 1
 207 666 120 577 120 500 c 0
 120 421 175 320 290 320 c 0
 385 320 460 461 460 540 c 1
 850 540 l 1
 850 460 l 1
 537 460 l 1
 517 341 440 240 290 240 c 0
 123 240 40 364 40 500 c 0
 40 634 151 757 285 760 c 0
 285 675 l 1
EndSplineSet
Validated: 1
EndChar

StartChar: beringin_affix_ber.rtla
Encoding: 195 -1 195
Width: 800
VWidth: 600
Flags: W
HStem: 240 80<443.016 576.766> 460 80<-50 266.36> 680 80<443.016 576.766>
VStem: 263 77<427.074 460 540 572.926>
LayerCount: 3
Fore
SplineSet
510 680 m 0
 431 680 340 579 340 500 c 0
 340 421 431 320 510 320 c 0
 545 320 582 340 613 369 c 1
 677 310 l 1
 632 267 573 240 510 240 c 0
 387 240 283 341 263 460 c 1
 -50 460 l 1
 -50 540 l 1
 263 540 l 1
 283 659 387 760 510 760 c 0
 573 760 632 733 677 690 c 1
 613 631 l 1
 582 660 545 680 510 680 c 0
EndSplineSet
Validated: 1
EndChar

StartChar: beringin_ext_letter_kya.rtla
Encoding: 196 -1 196
Width: 800
VWidth: 600
Flags: W
HStem: 240 80<300 654.7> 460 80<-50 60 140 220 301 461.656 800 850> 680 80<391.733 520>
VStem: 60 80<240 460 540 760> 220 80<320 460>
LayerCount: 3
Fore
SplineSet
140 240 m 1
 60 240 l 1
 60 460 l 1
 -50 460 l 1
 -50 540 l 1
 60 540 l 1
 60 760 l 1
 140 760 l 1
 140 540 l 1
 220 540 l 1
 250 659 307 760 487 760 c 0
 488 760 489 760 490 760 c 2
 600 760 l 1
 600 680 l 1
 600 680 568 460 460 460 c 2
 300 460 l 1
 300 320 l 1
 610 320 l 1
 712 325 720 540 720 540 c 1
 850 540 l 1
 850 460 l 1
 800 460 l 1
 800 460 768 240 660 240 c 0
 220 240 l 1
 220 460 l 1
 140 460 l 1
 140 240 l 1
301 538 m 5
 410 540 l 2
 474 543 509 617 520 680 c 1
 490 680 l 2
 360 679 335 619 301 538 c 5
EndSplineSet
Validated: 1
EndChar

StartChar: beringin_affix_di.rtla
Encoding: 197 -1 197
Width: 800
VWidth: 600
Flags: W
HStem: 240 80<442.924 577.46> 430 130<470.902 553.629> 460 80<-50 264.372> 680 80<442.924 577.46>
VStem: 261 79<427.074 460 540 572.926> 450 130<456.371 539.098> 680 80<429.275 570.725>
LayerCount: 3
Fore
SplineSet
510 560 m 0xde
 540 560 580 530 580 500 c 0
 580 470 540 430 510 430 c 0
 480 430 450 470 450 500 c 0
 450 530 480 560 510 560 c 0xde
510 680 m 0
 431 680 340 579 340 500 c 0
 340 421 431 320 510 320 c 0
 589 320 680 421 680 500 c 0
 680 579 589 680 510 680 c 0
510 760 m 0
 646 760 760 636 760 500 c 0
 760 364 646 240 510 240 c 0
 387 240 281 341 261 460 c 5
 -50 460 l 1
 -50 540 l 1
 261 540 l 5xbe
 281 659 387 760 510 760 c 0
EndSplineSet
Validated: 1
EndChar

StartChar: beringin_vowel_e.rtla
Encoding: 198 -1 198
Width: 800
VWidth: 600
Flags: W
HStem: 240 21G<60 140> 240 21G<60 140> 460 80<-50 60 595.3 850> 740 20G<60 140 440 530> 740 20G<60 140 440 530>
VStem: 60 80<240 460 539 760> 220 80<243 615.014>
LayerCount: 3
Fore
SplineSet
140 240 m 1xb6
 60 240 l 1
 60 460 l 1
 -50 460 l 1
 -50 540 l 1
 60 539 l 5
 60 760 l 1
 140 760 l 1
 140 240 l 1xb6
220 243 m 1
 220 610 l 0
 220 718 440 760 440 760 c 1
 530 760 l 1
 530 760 538 545 640 540 c 0
 850 540 l 1
 850 460 l 1
 590 460 l 0
 494 460 460 634 454 673 c 1
 391 661 303 635 300 570 c 0
 300 243 l 1
 220 243 l 1
EndSplineSet
Validated: 1
EndChar

StartChar: beringin_ext_letter_gya.rtla
Encoding: 199 -1 199
Width: 800
VWidth: 600
Flags: W
HStem: 240 80<385.527 520> 460 80<-50 60 140 220 300 461.656 800 850> 680 80<300 654.7>
VStem: 60 80<240 460 540 760> 220 80<540 680>
LayerCount: 3
Fore
SplineSet
140 760 m 1
 140 540 l 1
 220 540 l 1
 220 760 l 1
 660 760 l 0
 768 760 800 540 800 540 c 1
 850 540 l 1
 850 460 l 1
 720 460 l 1
 720 460 712 675 610 680 c 1
 300 680 l 1
 300 540 l 1
 460 540 l 2
 568 540 600 320 600 320 c 1
 600 240 l 1
 490 240 l 2
 489 240 488 240 487 240 c 0
 307 240 250 341 220 460 c 1
 140 460 l 1
 140 240 l 1
 60 240 l 1
 60 460 l 1
 -50 460 l 1
 -50 540 l 1
 60 540 l 1
 60 760 l 1
 140 760 l 1
300 461 m 5
 334 380 360 321 490 320 c 2
 520 320 l 1
 509 383 474 457 410 460 c 2
 300 461 l 5
EndSplineSet
Validated: 1
EndChar

StartChar: beringin_letter_eng.rtla
Encoding: 200 -1 200
Width: 800
VWidth: 600
Flags: W
HStem: 240 80<319.871 627.054> 460 80<-50 200 288.883 500 797 850>
VStem: 170 100<362.435 440.303>
LayerCount: 3
Fore
SplineSet
320 240 m 25
 250 257 170 349 170 349 c 5
 170 353 170 356 170 360 c 4
 170 399 190 444 200 460 c 1
 -50 460 l 1
 -50 540 l 1
 500 540 l 1
 500 460 l 1
 339 460 l 1
 307 456 270 433 270 403 c 0
 270 379 293 350 360 320 c 1
 580 320 l 1
 682 325 720 540 720 540 c 1
 850 540 l 1
 850 460 l 1
 797 460 l 1
 797 460 748 240 640 240 c 2
 320 240 l 25
EndSplineSet
Validated: 1
EndChar

StartChar: beringin_affix_kah.rtla
Encoding: 201 -1 201
Width: 800
VWidth: 600
Flags: W
HStem: 240 80<222.54 345.412> 460 80<533.64 850> 670 90<178.485 250>
VStem: 40 80<429.275 601.882> 250 80<450 670>
LayerCount: 3
Fore
SplineSet
231 670 m 5
 153 661 120 577 120 500 c 0
 120 421 211 320 290 320 c 0
 369 320 450 461 450 540 c 0
 537 540 l 1
 850 540 l 1
 850 460 l 1
 537 460 l 1
 517 341 413 240 290 240 c 0
 154 240 40 364 40 500 c 0
 40 634 131 757 265 760 c 0
 330 760 l 1
 330 450 l 1
 250 450 l 1
 250 670 l 1
 231 670 l 5
EndSplineSet
Validated: 1
EndChar

StartChar: beringin_ext_letter_sya.rtla
Encoding: 202 -1 202
Width: 800
VWidth: 600
Flags: W
HStem: 240 21G<60 140 220 300 553.37 600> 240 21G<60 140 220 300 553.37 600> 460 80<-50 60 140 220 460 670.687 770 850> 680 80<354.281 640.129>
VStem: 60 80<240 460 540 760> 220 80<240 460> 690 100<559.311 637.565>
LayerCount: 3
Fore
SplineSet
670 760 m 1xbe
 729 743 789 661 790 630 c 0
 790 627 790 624 790 620 c 0
 790 581 779 557 770 540 c 5
 850 540 l 1
 850 460 l 1
 460 460 l 1
 460 540 l 1
 620 540 l 1
 652 544 690 566 690 597 c 0
 690 621 667 650 600 680 c 1
 400 680 l 2
 326 676 308 562 300 500 c 1
 300 240 l 1
 220 240 l 1
 220 460 l 1
 140 460 l 1
 140 240 l 1
 60 240 l 1
 60 460 l 1
 -50 460 l 1
 -50 540 l 1
 60 540 l 1
 60 760 l 1
 140 760 l 1
 140 540 l 1
 220 540 l 1
 220 540 242 760 350 760 c 2
 670 760 l 1xbe
335 424 m 1
 392 481 l 1
 636 296 l 1
 580 240 l 1
 335 424 l 1
EndSplineSet
Validated: 1
EndChar

StartChar: beringin_ext_letter_jya.rtla
Encoding: 203 -1 203
Width: 800
VWidth: 600
Flags: W
HStem: 240 80<354.281 640.129> 460 80<-50 60 140 220 460 670.687 770 850> 740 20G<60 140 220 300 553.37 600> 740 20G<60 140 220 300 553.37 600>
VStem: 60 80<240 460 540 760> 220 80<540 760> 690 100<362.435 439.662>
LayerCount: 3
Fore
SplineSet
670 240 m 1xee
 350 240 l 2
 242 240 220 460 220 460 c 1
 140 460 l 1
 140 240 l 1
 60 240 l 1
 60 460 l 1
 -50 460 l 1
 -50 540 l 1
 60 540 l 1
 60 760 l 1
 140 760 l 1
 140 540 l 1
 220 540 l 1
 220 760 l 1
 300 760 l 1
 300 500 l 1
 308 438 326 324 400 320 c 2
 600 320 l 1
 667 350 690 379 690 403 c 0
 690 433 652 456 620 460 c 1
 460 460 l 1
 460 540 l 1
 850 540 l 1
 850 460 l 1
 770 460 l 5
 779 443 790 419 790 380 c 0
 790 377 790 373 790 370 c 0
 789 339 729 257 670 240 c 1xee
335 576 m 1
 580 760 l 1
 636 704 l 1
 392 519 l 1
 335 576 l 1
EndSplineSet
Validated: 1
EndChar

StartChar: beringin_affix_ke.rtla
Encoding: 204 -1 204
Width: 800
VWidth: 600
Flags: W
HStem: 240 80<436.081 577.46> 460 80<-50 560> 680 80<428.753 577.46>
VStem: 680 80<429.275 570.725>
LayerCount: 3
Fore
SplineSet
-50 460 m 1
 -50 540 l 1
 560 540 l 1
 560 460 l 1
 -50 460 l 1
360 409 m 1
 393 359 460 320 510 320 c 0
 589 320 680 421 680 500 c 0
 680 579 589 680 510 680 c 0
 460 680 393 650 360 600 c 9
 290 630 l 1
 332 714 414 760 510 760 c 0
 646 760 760 636 760 500 c 0
 760 364 646 240 510 240 c 0
 420 240 334 282 290 359 c 0
 360 409 l 1
EndSplineSet
Validated: 1
EndChar

StartChar: beringin_affix_lah.rtla
Encoding: 205 -1 205
Width: 800
VWidth: 600
Flags: W
HStem: 240 80<222.54 346.409> 460 80<260 440 535.628 850> 675 85<225.047 350>
VStem: 40 80<429.275 592.31>
LayerCount: 3
Fore
SplineSet
260 460 m 1
 260 540 l 1
 850 540 l 1
 850 460 l 1
 539 460 l 5
 519 341 413 240 290 240 c 0
 154 240 40 364 40 500 c 0
 40 634 83 757 350 760 c 0
 350 675 l 0
 139 666 120 577 120 500 c 0
 120 421 211 320 290 320 c 0
 347 320 410 391 440 460 c 1
 260 460 l 1
EndSplineSet
Validated: 1
EndChar

StartChar: beringin_affix_men.rtla
Encoding: 206 -1 206
Width: 800
VWidth: 600
Flags: W
HStem: 240 80<442.924 577.46> 460 80<-50 264.372> 680 80<442.924 577.46>
VStem: 261 79<427.074 460 540 572.926> 680 80<429.275 570.725>
LayerCount: 3
Fore
SplineSet
510 680 m 0
 431 680 340 579 340 500 c 0
 340 421 431 320 510 320 c 0
 589 320 680 421 680 500 c 0
 680 579 589 680 510 680 c 0
510 760 m 0
 646 760 760 636 760 500 c 0
 760 364 646 240 510 240 c 0
 387 240 281 341 261 460 c 5
 -50 460 l 1
 -50 540 l 1
 261 540 l 5
 281 659 387 760 510 760 c 0
EndSplineSet
Validated: 1
EndChar

StartChar: beringin_affix_kan.rtla
Encoding: 207 -1 207
Width: 800
VWidth: 600
Flags: W
HStem: 240 80<222.54 357.723> 430 130<250.902 333.629> 460 80<533.64 850> 675 85<226.312 285>
VStem: 40 80<429.275 568.455> 230 130<456.371 539.098>
LayerCount: 3
Fore
SplineSet
290 560 m 0xdc
 320 560 360 530 360 500 c 0
 360 470 320 430 290 430 c 0
 260 430 230 470 230 500 c 0
 230 530 260 560 290 560 c 0xdc
285 675 m 1
 207 666 120 577 120 500 c 0
 120 421 211 320 290 320 c 0
 369 320 433 392 450 540 c 4
 537 540 l 1
 850 540 l 1
 850 460 l 1
 537 460 l 1xbc
 517 341 413 240 290 240 c 0
 154 240 40 364 40 500 c 0
 40 634 151 757 285 760 c 0
 285 675 l 1
EndSplineSet
Validated: 1
EndChar

StartChar: beringin_ext_letter_kha.rtla
Encoding: 208 -1 208
Width: 800
VWidth: 600
Flags: W
HStem: 240 80<200 654.7> 460 80<-50 205.4 280 441.656 800 850> 680 80<365.65 500 577 720>
LayerCount: 3
Fore
SplineSet
-50 460 m 1
 -50 540 l 1
 201 540 l 5
 231 659 287 760 467 760 c 0
 468 760 469 760 470 760 c 0
 720 760 l 1
 720 680 l 1
 577 680 l 1
 577 680 548 460 440 460 c 2
 -50 460 l 1
280 540 m 1
 390 540 l 0
 454 543 489 617 500 680 c 1
 470 680 l 0
 340 679 314 621 280 540 c 1
200 320 m 1
 610 320 l 0
 712 325 720 540 720 540 c 1
 850 540 l 1
 850 460 l 1
 800 460 l 1
 800 460 768 240 660 240 c 0
 200 240 l 1
 200 320 l 1
EndSplineSet
Validated: 1
EndChar

StartChar: beringin_affix_pen.rtla
Encoding: 209 -1 209
Width: 800
VWidth: 600
Flags: W
HStem: 240 80<444.544 577.46> 460 80<-50 272.321 350 560> 680 80<444.544 577.46>
VStem: 680 80<429.275 570.725>
LayerCount: 3
Fore
SplineSet
510 760 m 0
 646 760 760 636 760 500 c 0
 760 364 646 240 510 240 c 0
 387 240 289 341 269 460 c 5
 -50 460 l 1
 -50 540 l 1
 269 540 l 5
 289 659 387 760 510 760 c 0
350 460 m 1
 373 391 444 320 510 320 c 0
 589 320 680 421 680 500 c 0
 680 579 589 680 510 680 c 0
 444 680 373 609 350 540 c 1
 560 540 l 1
 560 460 l 1
 350 460 l 1
EndSplineSet
Validated: 1
EndChar

StartChar: beringin_ext_letter_gha.rtla
Encoding: 210 -1 210
Width: 800
VWidth: 600
Flags: W
HStem: 240 80<367.282 500 577 720> 460 80<-50 204.419 280 441.656 800 850> 680 80<200 654.7>
LayerCount: 3
Fore
SplineSet
-50 540 m 1
 440 540 l 2
 548 540 577 320 577 320 c 1
 720 320 l 1
 720 240 l 1
 472 240 l 4
 471 240 470 240 469 240 c 4
 289 240 230 341 200 460 c 1
 -50 460 l 1
 -50 540 l 1
280 460 m 1
 314 379 340 321 470 320 c 0
 500 320 l 1
 489 383 454 457 390 460 c 0
 280 460 l 1
200 680 m 1
 200 760 l 1
 660 760 l 0
 768 760 800 540 800 540 c 1
 850 540 l 1
 850 460 l 1
 720 460 l 1
 720 460 712 675 610 680 c 0
 200 680 l 1
EndSplineSet
Validated: 1
EndChar

StartChar: beringin_affix_per.rtla
Encoding: 211 -1 211
Width: 800
VWidth: 600
Flags: W
HStem: 240 80<444.544 576.766> 460 80<-50 272.321 350 550> 680 80<444.544 576.766>
LayerCount: 3
Fore
SplineSet
350 460 m 1
 373 391 444 320 510 320 c 0
 545 320 582 340 613 369 c 1
 677 310 l 1
 632 267 573 240 510 240 c 0
 387 240 289 341 269 460 c 5
 -50 460 l 1
 -50 540 l 1
 269 540 l 5
 289 659 387 760 510 760 c 0
 573 760 632 733 677 690 c 1
 613 631 l 1
 582 660 545 680 510 680 c 0
 444 680 373 609 350 540 c 1
 550 540 l 1
 550 460 l 1
 350 460 l 1
EndSplineSet
Validated: 1
EndChar

StartChar: beringin_affix_se.rtla
Encoding: 212 -1 212
Width: 800
VWidth: 600
Flags: W
HStem: 240 80<443.016 577.46> 460 80<-50 120 260 266.36> 680 80<443.016 577.46>
VStem: 120 80<240 460 539 760> 260 80<427.074 572.926> 680 80<429.275 570.725>
LayerCount: 3
Fore
SplineSet
200 240 m 1
 120 240 l 1
 120 460 l 1
 -50 460 l 1
 -50 540 l 1
 120 539 l 1
 120 760 l 1
 200 760 l 1
 200 240 l 1
510 680 m 0
 431 680 340 579 340 500 c 0
 340 421 431 320 510 320 c 0
 589 320 680 421 680 500 c 0
 680 579 589 680 510 680 c 0
510 760 m 0
 646 760 760 636 760 500 c 0
 760 364 646 240 510 240 c 0
 387 240 283 341 263 460 c 1
 260 460 l 1
 260 540 l 1
 263 540 l 1
 283 659 387 760 510 760 c 0
EndSplineSet
Validated: 1
EndChar

StartChar: beringin_affix_ter.rtla
Encoding: 213 -1 213
Width: 800
VWidth: 600
Flags: W
HStem: 240 80<442.924 576.766> 430 130<470.902 553.629> 460 80<-50 264.372> 680 80<442.924 576.766>
VStem: 261 79<427.074 460 540 572.926> 450 130<456.371 539.098>
LayerCount: 3
Fore
SplineSet
510 560 m 0xdc
 540 560 580 530 580 500 c 0
 580 470 540 430 510 430 c 0
 480 430 450 470 450 500 c 0
 450 530 480 560 510 560 c 0xdc
510 680 m 0
 431 680 340 579 340 500 c 0
 340 421 431 320 510 320 c 0
 545 320 582 340 613 369 c 1
 677 310 l 1
 632 267 573 240 510 240 c 0
 387 240 281 341 261 460 c 5
 -50 460 l 1
 -50 540 l 1
 261 540 l 5xbc
 281 659 387 760 510 760 c 0
 573 760 632 733 677 690 c 1
 613 631 l 1
 582 660 545 680 510 680 c 0
EndSplineSet
Validated: 1
EndChar

StartChar: beringin_ext_letter_tha.rtla
Encoding: 214 -1 214
Width: 800
VWidth: 600
Flags: W
HStem: 240 80<355.3 655.014> 460 80<-50 211 800 850> 680 80<200 655.014>
LayerCount: 3
Fore
SplineSet
200 760 m 1
 650 760 l 2
 758 760 800 540 800 540 c 1
 850 540 l 1
 850 460 l 1
 800 460 l 1
 800 460 758 240 650 240 c 0
 350 240 l 0
 242 240 211 460 211 460 c 5
 -50 460 l 1
 -50 540 l 1
 290 540 l 1
 290 540 298 325 400 320 c 1
 610 320 l 1
 684 324 712 438 720 500 c 1
 712 562 684 676 610 680 c 2
 200 680 l 1
 200 760 l 1
EndSplineSet
Validated: 1
EndChar

StartChar: beringin_ext_letter_dha.rtla
Encoding: 215 -1 215
Width: 800
VWidth: 600
Flags: W
HStem: 240 80<200 655.014> 460 80<-50 211 800 850> 680 80<355.3 655.014>
LayerCount: 3
Fore
SplineSet
200 240 m 1
 200 320 l 1
 610 320 l 2
 684 324 708 438 716 500 c 1
 708 562 684 676 610 680 c 1
 400 680 l 1
 298 675 290 460 290 460 c 1
 -50 460 l 1
 -50 540 l 1
 211 540 l 5
 211 540 242 760 350 760 c 0
 650 760 l 0
 758 760 800 540 800 540 c 1
 850 540 l 1
 850 460 l 1
 800 460 l 1
 800 460 758 240 650 240 c 2
 200 240 l 1
EndSplineSet
Validated: 1
EndChar

StartChar: beringin_ext_letter_swa.rtla
Encoding: 216 -1 216
Width: 800
VWidth: 600
Flags: W
HStem: 240 21G<60 140> 240 21G<60 140> 460 80<-50 60 140 210 460 670.687 760 850> 680 80<354.281 640.129>
VStem: 60 80<240 460 540 760> 220 80<338 460> 690 100<560.338 637.565>
LayerCount: 3
Fore
SplineSet
670 760 m 1xbe
 729 743 789 661 790 630 c 0
 790 627 790 623 790 620 c 0
 790 581 769 557 760 540 c 1
 850 540 l 1
 850 460 l 1
 460 460 l 1
 460 540 l 1
 620 540 l 1
 652 544 690 567 690 597 c 0
 690 621 667 650 600 680 c 1
 400 680 l 2
 326 676 308 562 300 500 c 1
 300 338 l 1
 420 430 l 1
 490 380 l 1
 300 233 l 1
 299 240 l 1
 220 240 l 1x7e
 220 460 l 1
 140 460 l 1
 140 240 l 1
 60 240 l 1
 60 460 l 1
 -50 460 l 1
 -50 540 l 1
 60 540 l 1
 60 760 l 1
 140 760 l 1
 140 540 l 1
 210 540 l 5
 210 540 242 760 350 760 c 2
 670 760 l 1xbe
EndSplineSet
Validated: 1
EndChar

StartChar: beringin_affix_nya.rtla
Encoding: 217 -1 217
Width: 800
VWidth: 600
Flags: W
HStem: 240 80<222.54 345.478> 460 80<535.628 850> 675 85<226.312 285> 740 20G<459.952 512.6>
VStem: 40 80<429.275 568.455>
LayerCount: 3
Fore
SplineSet
260 550 m 25xd8
 481 760 l 25
 560 710 l 25
 340 500 l 25
 260 550 l 25xd8
285 675 m 1xe8
 207 666 120 577 120 500 c 0
 120 421 211 320 290 320 c 0
 369 320 450 461 450 540 c 0
 537 540 l 1
 850 540 l 1
 850 460 l 1
 539 460 l 5
 519 341 413 240 290 240 c 0
 154 240 40 364 40 500 c 0
 40 634 151 757 285 760 c 0
 285 675 l 1xe8
EndSplineSet
Validated: 1
EndChar

StartChar: beringin_letter_nye.rtla
Encoding: 218 -1 218
Width: 800
VWidth: 600
Flags: W
HStem: 460 80<-50 190 289.313 500 800 850> 680 80<319.871 627.054>
VStem: 170 100<559.311 630>
LayerCount: 3
Fore
SplineSet
320 760 m 25
 640 760 l 2
 748 760 800 540 800 540 c 1
 850 540 l 1
 850 460 l 1
 720 460 l 1
 720 460 682 675 580 680 c 1
 360 680 l 1
 293 650 270 621 270 597 c 0
 270 566 308 544 340 540 c 1
 500 540 l 1
 500 460 l 1
 -50 460 l 1
 -50 540 l 1
 190 540 l 5
 181 557 170 581 170 620 c 0
 170 624 170 627 170 630 c 1
 170 630 250 743 320 760 c 25
EndSplineSet
Validated: 1
EndChar

StartChar: beringin_ext_letter_dwa.rtla
Encoding: 219 -1 219
Width: 800
VWidth: 600
Flags: W
HStem: 240 80<354.281 640.129> 460 80<-50 60 140 210 460 670.687 760 850> 740 20G<60 140> 740 20G<60 140>
VStem: 60 80<240 460 540 760> 220 80<540 662> 690 100<362.435 439.662>
LayerCount: 3
Fore
SplineSet
670 240 m 1xde
 350 240 l 2
 242 240 210 460 210 460 c 5
 140 460 l 1
 140 240 l 1
 60 240 l 1
 60 460 l 1
 -50 460 l 1
 -50 540 l 1
 60 540 l 1
 60 760 l 1
 140 760 l 1xee
 140 540 l 1
 220 540 l 1
 220 760 l 1
 299 760 l 1
 300 767 l 1
 490 620 l 1
 420 570 l 1
 300 662 l 1
 300 500 l 1
 308 438 326 324 400 320 c 2
 600 320 l 1
 667 350 690 379 690 403 c 0
 690 433 652 456 620 460 c 1
 460 460 l 1
 460 540 l 1
 850 540 l 1
 850 460 l 1
 760 460 l 1
 769 443 790 419 790 380 c 0
 790 377 790 373 790 370 c 0
 789 339 729 257 670 240 c 1xde
EndSplineSet
Validated: 1
EndChar

StartChar: beringin_open_single_quote.rtla
Encoding: 220 -1 220
Width: 800
VWidth: 600
Flags: W
HStem: 240 21G<680 760> 240 21G<680 760> 460 80<-50 680> 680 80<450 680>
VStem: 680 80<240 460 540 680>
LayerCount: 3
Fore
SplineSet
760 240 m 25xb8
 680 240 l 1
 680 460 l 25
 -50 460 l 25
 -50 540 l 25
 680 540 l 25
 680 680 l 25
 450 680 l 25
 450 760 l 25
 760 760 l 1
 760 240 l 25xb8
EndSplineSet
Validated: 1
EndChar

StartChar: beringin_ext_letter_tra.rtla
Encoding: 221 -1 221
Width: 800
VWidth: 600
Flags: W
HStem: 240 80<0 655.014> 460 80<-50 500 800 850> 680 80<200 654.891>
LayerCount: 3
Fore
SplineSet
-50 460 m 1
 -50 540 l 1
 500 540 l 1
 500 460 l 1
 -50 460 l 1
610 320 m 5
 690 324 706 447 720 504 c 1
 710 568 679 676 610 680 c 2
 200 680 l 1
 200 760 l 1
 650 760 l 2
 758 760 800 540 800 540 c 1
 850 540 l 1
 850 460 l 1
 800 460 l 1
 800 460 758 240 650 240 c 0
 0 240 l 1
 0 320 l 5
 203 320 407 320 610 320 c 5
EndSplineSet
Validated: 1
EndChar

StartChar: beringin_close_sgle_quote.rtla
Encoding: 222 -1 222
Width: 800
VWidth: 600
Flags: W
HStem: 240 80<120 350> 460 80<120 850> 740 20G<40 120> 740 20G<40 120>
VStem: 40 80<320 460 540 760>
LayerCount: 3
Fore
SplineSet
40 760 m 25xe8
 120 760 l 1
 120 540 l 25
 850 540 l 29
 850 460 l 29
 120 460 l 25
 120 320 l 25
 350 320 l 25
 350 240 l 25
 40 240 l 1
 40 760 l 25xe8
EndSplineSet
Validated: 1
EndChar

StartChar: beringin_vowel_a.rtla
Encoding: 223 -1 223
Width: 800
VWidth: 600
Flags: W
HStem: 460 80<-50 220 595.3 850> 740 20G<440 530> 740 20G<440 530>
VStem: 220 80<243 460 540 615.014>
LayerCount: 3
Fore
SplineSet
220 460 m 1xd0
 -50 460 l 1
 -50 540 l 1
 220 540 l 1
 220 610 l 2
 220 718 440 760 440 760 c 1
 530 760 l 1
 530 760 538 545 640 540 c 0
 850 540 l 1
 850 460 l 1
 590 460 l 0
 494 460 460 635 454 673 c 1
 390 662 303 635 300 570 c 0
 300 243 l 1
 220 243 l 1
 220 460 l 1xd0
EndSplineSet
Validated: 1
EndChar

StartChar: beringin_letter_beh.rtla
Encoding: 224 -1 224
Width: 800
VWidth: 600
Flags: W
HStem: 460 80<-50 213 460 850> 680 80<355.3 800>
LayerCount: 3
Fore
SplineSet
800 760 m 25
 800 680 l 1
 400 680 l 0
 298 675 290 460 290 460 c 1
 -50 460 l 1
 -50 540 l 1
 213 540 l 25
 213 540 242 760 350 760 c 2
 800 760 l 25
850 540 m 25
 850 460 l 25
 460 460 l 25
 460 540 l 25
 850 540 l 25
EndSplineSet
Validated: 1
EndChar

StartChar: beringin_letter_cheh.rtla
Encoding: 225 -1 225
Width: 800
VWidth: 600
Flags: W
HStem: 240 80<300 434.473> 460 80<-50 1 358.344 520 595.593 850> 680 80<145.3 600>
LayerCount: 3
Fore
SplineSet
600 760 m 1
 600 680 l 1
 190 680 l 0
 88 675 80 460 80 460 c 1
 -50 460 l 1
 -50 540 l 1
 1 540 l 5
 1 540 32 760 140 760 c 0
 600 760 l 1
850 540 m 1
 850 460 l 2
 600 460 l 1
 570 341 513 240 333 240 c 0
 332 240 331 240 330 240 c 0
 220 240 l 1
 220 320 l 1
 220 320 252 540 360 540 c 0
 475 540 850 540 850 540 c 1
520 460 m 1
 410 460 l 0
 346 457 311 383 300 320 c 1
 330 320 l 0
 460 321 486 379 520 460 c 1
EndSplineSet
Validated: 1
EndChar

StartChar: beringin_letter_deh.rtla
Encoding: 226 -1 226
Width: 800
VWidth: 600
Flags: W
HStem: 460 80<-50 500 799 850> 680 80<200 654.7>
LayerCount: 3
Fore
SplineSet
200 760 m 25
 650 760 l 2
 758 760 799 540 799 540 c 29
 850 540 l 1
 850 460 l 1
 720 460 l 1
 720 460 712 675 610 680 c 0
 200 680 l 1
 200 760 l 25
-50 540 m 25
 500 540 l 25
 500 460 l 25
 -50 460 l 25
 -50 540 l 25
EndSplineSet
Validated: 1
EndChar

StartChar: beringin_vowel_eh.rtla
Encoding: 227 -1 227
Width: 800
VWidth: 600
Flags: W
HStem: 240 21G<220 300> 240 21G<220 300> 460 80<-50 220 300 500 595.3 850> 740 20G<440 530> 740 20G<440 530>
VStem: 220 80<240 460 540 615.014>
LayerCount: 3
Fore
SplineSet
220 460 m 1xb4
 -50 460 l 1
 -50 540 l 1
 220 540 l 1
 220 610 l 2
 220 718 440 760 440 760 c 1
 530 760 l 1
 530 760 538 545 640 540 c 0
 850 540 l 1
 850 460 l 1
 300 460 l 1
 300 240 l 2
 220 240 l 1
 220 460 l 1xb4
500 540 m 1
 475 591 457 652 454 673 c 1
 390 662 303 635 300 570 c 0
 299 540 l 5
 500 540 l 1
EndSplineSet
Validated: 1
EndChar

StartChar: beringin_letter_ehf.rtla
Encoding: 228 -1 228
Width: 800
VWidth: 600
Flags: W
HStem: 240 80<355.3 800> 460 80<-50 211 410 600 800 850> 680 80<200 654.7>
LayerCount: 3
Fore
SplineSet
410 460 m 25
 410 540 l 25
 600 540 l 25
 600 460 l 25
 410 460 l 25
200 760 m 25
 650 760 l 0
 758 760 800 540 800 540 c 25
 850 540 l 1
 850 460 l 1
 720 460 l 1
 720 460 712 675 610 680 c 0
 200 680 l 1
 200 760 l 25
800 240 m 25
 350 240 l 0
 242 240 211 460 211 460 c 29
 -50 460 l 1
 -50 540 l 1
 290 540 l 1
 290 540 298 325 400 320 c 0
 800 320 l 1
 800 240 l 25
EndSplineSet
Validated: 1
EndChar

StartChar: beringin_letter_geh.rtla
Encoding: 229 -1 229
Width: 800
VWidth: 600
Flags: W
HStem: 240 80<365.527 500> 460 80<-49.8996 205.965 280 441.656 800 850> 680 80<200 654.7>
LayerCount: 3
Fore
SplineSet
200 760 m 1
 660 760 l 2
 768 760 800 540 800 540 c 1
 850 540 l 1
 850 460 l 1
 720 460 l 1
 720 460 712 675 610 680 c 0
 200 680 l 1
 200 760 l 1
-50 540 m 1
 440 540 l 2
 548 540 580 320 580 320 c 1
 580 240 l 1
 470 240 l 0
 469 240 468 240 467 240 c 0
 287 240 230 342 200 461 c 5
 88 461 -50 460 -50 460 c 1
 -50 540 l 1
280 460 m 1
 314 379 340 321 470 320 c 0
 500 320 l 1
 489 383 454 457 390 460 c 0
 280 460 l 1
EndSplineSet
Validated: 1
EndChar

StartChar: beringin_letter_ha.rtla
Encoding: 230 -1 230
Width: 800
VWidth: 600
Flags: W
HStem: 240 80<355.3 800> 460 80<-50 211 800 850> 680 80<200 654.7>
LayerCount: 3
Fore
SplineSet
200 760 m 25
 650 760 l 0
 758 760 800 540 800 540 c 25
 850 540 l 1
 850 460 l 1
 720 460 l 1
 720 460 712 675 610 680 c 0
 200 680 l 1
 200 760 l 25
800 240 m 25
 350 240 l 2
 242 240 211 460 211 460 c 29
 -50 460 l 1
 -50 540 l 1
 290 540 l 1
 290 540 298 325 400 320 c 0
 800 320 l 1
 800 240 l 25
EndSplineSet
Validated: 1
EndChar

StartChar: beringin_vowel_i.rtla
Encoding: 231 -1 231
Width: 800
VWidth: 600
Flags: W
HStem: 240 21G<554.37 601> 240 21G<554.37 601> 460 80<-50 220 595.3 850> 740 20G<440 530> 740 20G<440 530>
VStem: 220 80<243 460 540 615.014>
LayerCount: 3
Fore
SplineSet
336 424 m 1xa4
 393 481 l 1
 637 296 l 1
 581 240 l 1
 336 424 l 1xa4
220 460 m 1
 -50 460 l 1
 -50 540 l 1
 220 540 l 1
 220 610 l 2
 220 718 440 760 440 760 c 1
 530 760 l 1x34
 530 760 538 545 640 540 c 0
 850 540 l 1
 850 460 l 1
 590 460 l 0
 494 460 460 635 454 673 c 1
 390 662 303 635 300 570 c 0
 300 243 l 1
 220 243 l 1
 220 460 l 1
EndSplineSet
Validated: 1
EndChar

StartChar: beringin_letter_jeh.rtla
Encoding: 232 -1 232
Width: 800
VWidth: 600
Flags: W
HStem: 240 80<145.3 600> 460 80<-50 1 358.344 520 595.593 850> 680 80<220 223 300 434.473>
LayerCount: 3
Fore
SplineSet
600 240 m 1
 140 240 l 0
 32 240 1 460 1 460 c 5
 -50 460 l 1
 -50 540 l 1
 80 540 l 1
 80 540 88 325 190 320 c 0
 600 320 l 1
 600 240 l 1
850 460 m 1
 360 460 l 0
 252 460 223 680 223 680 c 1
 220 680 l 1
 220 760 l 1
 330 760 l 0
 331 760 332 760 333 760 c 0
 513 760 570 659 600 540 c 1
 850 540 l 2
 850 460 l 1
520 540 m 1
 486 621 460 679 330 680 c 0
 300 680 l 1
 311 617 346 543 410 540 c 0
 520 540 l 1
EndSplineSet
Validated: 1
EndChar

StartChar: beringin_letter_ka.rtla
Encoding: 233 -1 233
Width: 800
VWidth: 600
Flags: W
HStem: 240 80<200 654.7> 460 80<-50 204.368 280 441.656 800 850> 680 80<366.375 500>
LayerCount: 3
Fore
SplineSet
200 240 m 1
 200 320 l 1
 610 320 l 0
 712 325 720 540 720 540 c 1
 850 540 l 1
 850 460 l 1
 800 460 l 1
 800 460 768 240 660 240 c 2
 200 240 l 1
-50 460 m 1
 -50 540 l 1
 200 540 l 1
 230 659 281 760 461 760 c 4
 462 760 469 760 470 760 c 0
 580 760 l 1
 580 680 l 1
 580 680 548 460 440 460 c 2
 -50 460 l 1
280 540 m 1
 390 540 l 0
 454 543 489 617 500 680 c 1
 470 680 l 0
 340 679 314 621 280 540 c 1
EndSplineSet
Validated: 1
EndChar

StartChar: beringin_letter_ehl.rtla
Encoding: 234 -1 234
Width: 800
VWidth: 600
Flags: W
HStem: 240 80<200 655.014> 460 80<-50 190 289.313 500 800 850> 680 80<319.871 629.838>
VStem: 170 100<560.338 630>
LayerCount: 3
Fore
SplineSet
200 240 m 1
 200 320 l 1
 610 320 l 0
 679 324 704 422 714 486 c 1
 700 543 660 676 580 680 c 1
 360 680 l 1
 293 650 270 621 270 597 c 0
 270 567 308 544 340 540 c 1
 500 540 l 1
 500 460 l 1
 -50 460 l 1
 -50 540 l 1
 190 540 l 5
 181 557 170 581 170 620 c 0
 170 623 170 627 170 630 c 1
 170 630 250 743 320 760 c 1
 640 760 l 2
 748 760 800 540 800 540 c 1
 850 540 l 1
 850 460 l 1
 800 460 l 1
 800 460 758 240 650 240 c 0
 200 240 l 1
EndSplineSet
Validated: 1
EndChar

StartChar: beringin_letter_ehm.rtla
Encoding: 235 -1 235
Width: 800
VWidth: 600
Flags: W
HStem: 460 80<-50 210 460 671.117 770 850> 680 80<355.3 640.129>
VStem: 690 100<559.697 637.565>
LayerCount: 3
Fore
SplineSet
670 760 m 1
 729 743 789 661 790 630 c 0
 790 627 790 623 790 620 c 0
 790 581 779 557 770 540 c 5
 850 540 l 1
 850 460 l 1
 460 460 l 1
 460 540 l 1
 621 540 l 1
 653 544 690 567 690 597 c 0
 690 621 667 650 600 680 c 1
 400 680 l 1
 298 675 290 460 290 460 c 1
 -50 460 l 1
 -50 540 l 1
 210 540 l 1
 210 540 242 760 350 760 c 2
 670 760 l 1
EndSplineSet
Validated: 1
EndChar

StartChar: beringin_letter_ehn.rtla
Encoding: 236 -1 236
Width: 800
VWidth: 600
Flags: W
HStem: 240 80<355.3 640.129> 460 80<-50 211 460 670.687 760 850>
VStem: 690 100<362.435 439.662>
LayerCount: 3
Fore
SplineSet
670 240 m 1
 350 240 l 2
 242 240 211 460 211 460 c 1
 -50 460 l 1
 -50 540 l 1
 290 540 l 1
 290 540 298 325 400 320 c 1
 600 320 l 1
 667 350 690 379 690 403 c 0
 690 433 652 456 620 460 c 1
 460 460 l 1
 460 540 l 1
 850 540 l 1
 850 460 l 1
 760 460 l 1
 769 443 790 419 790 380 c 0
 790 377 790 373 790 370 c 0
 789 339 729 257 670 240 c 1
EndSplineSet
Validated: 1
EndChar

StartChar: beringin_vowel_o.rtla
Encoding: 237 -1 237
Width: 800
VWidth: 600
Flags: W
HStem: 240 80<298 410> 460 80<-50 220 300 354.539 595.3 850> 740 20G<440 530> 740 20G<440 530>
VStem: 220 80<320 459 540 615.014>
LayerCount: 3
Fore
SplineSet
220 460 m 1xe8
 -50 460 l 1
 -50 540 l 1
 220 540 l 1
 220 610 l 2
 220 718 440 760 440 760 c 1
 530 760 l 1
 530 760 538 545 640 540 c 0
 850 540 l 1
 850 460 l 1
 590 460 l 2
 494 460 460 635 454 673 c 1
 390 662 303 635 300 570 c 0
 300 540 l 1
 485 540 492 320 492 320 c 1
 490 320 l 1
 490 240 l 1
 220 240 l 1
 220 460 l 1xe8
300 459 m 5
 298 320 l 1
 410 320 l 1
 410 377 377 458 300 459 c 5
EndSplineSet
Validated: 1
EndChar

StartChar: beringin_letter_peh.rtla
Encoding: 238 -1 238
Width: 800
VWidth: 600
Flags: W
HStem: 240 80<355.3 800> 460 80<-50 211 460 850>
LayerCount: 3
Fore
SplineSet
800 240 m 25
 350 240 l 2
 242 240 211 460 211 460 c 29
 -50 460 l 1
 -50 540 l 1
 290 540 l 1
 290 540 298 325 400 320 c 0
 800 320 l 1
 800 240 l 25
850 460 m 25
 460 460 l 25
 460 540 l 25
 850 540 l 25
 850 460 l 25
EndSplineSet
Validated: 1
EndChar

StartChar: beringin_letter_ki.rtla
Encoding: 239 -1 239
Width: 800
VWidth: 600
Flags: W
HStem: 240 80<200 654.7> 460 80<-50 60 140 204.407 280 441.656 800 850> 680 80<365.527 500>
VStem: 60 80<240 460 540 760>
LayerCount: 3
Fore
SplineSet
280 540 m 1
 390 540 l 0
 454 543 489 617 500 680 c 1
 470 680 l 0
 340 679 314 621 280 540 c 1
200 240 m 1
 200 320 l 1
 610 320 l 0
 712 325 720 540 720 540 c 1
 850 540 l 1
 850 460 l 1
 800 460 l 1
 800 460 768 240 660 240 c 0
 200 240 l 1
60 460 m 1
 -50 460 l 1
 -50 540 l 1
 60 539 l 5
 60 760 l 1
 140 760 l 1
 140 540 l 1
 200 540 l 1
 230 659 287 760 467 760 c 0
 468 760 469 760 470 760 c 0
 580 760 l 1
 580 680 l 1
 580 680 548 460 440 460 c 2
 140 460 l 1
 140 240 l 1
 60 240 l 1
 60 460 l 1
EndSplineSet
Validated: 1
EndChar

StartChar: beringin_letter_ehr.rtla
Encoding: 240 -1 240
Width: 800
VWidth: 600
Flags: W
HStem: 240 80<319.871 629.838> 460 80<-50 190 289.313 500 800 850> 680 80<200 655.014>
VStem: 170 100<370 439.662>
LayerCount: 3
Fore
SplineSet
200 760 m 1
 650 760 l 2
 758 760 800 540 800 540 c 1
 850 540 l 1
 850 460 l 1
 800 460 l 1
 800 460 748 240 640 240 c 2
 320 240 l 1
 250 257 170 370 170 370 c 1
 170 373 170 377 170 380 c 0
 170 419 181 443 190 460 c 5
 -50 460 l 1
 -50 540 l 1
 500 540 l 1
 500 460 l 1
 340 460 l 1
 308 456 270 433 270 403 c 0
 270 379 293 350 360 320 c 1
 580 320 l 1
 660 324 700 457 714 514 c 1
 704 578 679 676 610 680 c 0
 200 680 l 1
 200 760 l 1
EndSplineSet
Validated: 1
EndChar

StartChar: beringin_letter_ehs.rtla
Encoding: 241 -1 241
Width: 800
VWidth: 600
Flags: W
HStem: 240 80<353.344 800> 460 80<-50 210 460 670.687 760 850> 680 80<353.344 640.129>
VStem: 690 100<560.338 637.565>
LayerCount: 3
Fore
SplineSet
670 760 m 1
 729 743 789 661 790 630 c 0
 790 627 790 623 790 620 c 0
 790 581 769 557 760 540 c 1
 850 540 l 1
 850 460 l 1
 460 460 l 1
 460 540 l 1
 620 540 l 1
 652 544 690 567 690 597 c 0
 690 621 667 650 600 680 c 1
 400 680 l 1
 326 676 302 562 294 500 c 1
 302 438 326 324 400 320 c 0
 800 320 l 1
 800 240 l 1
 350 240 l 0
 242 240 211 460 211 460 c 5
 -50 460 l 1
 -50 540 l 1
 210 540 l 1
 210 540 242 760 350 760 c 2
 670 760 l 1
EndSplineSet
Validated: 1
EndChar

StartChar: beringin_letter_teh.rtla
Encoding: 242 -1 242
Width: 800
VWidth: 600
Flags: W
HStem: 240 80<200 654.7> 460 80<-50 500 799 850>
LayerCount: 3
Fore
SplineSet
200 240 m 25
 200 320 l 1
 610 320 l 0
 712 325 720 540 720 540 c 1
 850 540 l 1
 850 460 l 1
 799 460 l 29
 799 460 758 240 650 240 c 0
 200 240 l 25
-50 460 m 25
 -50 540 l 25
 500 540 l 25
 500 460 l 25
 -50 460 l 25
EndSplineSet
Validated: 1
EndChar

StartChar: beringin_vowel_u.rtla
Encoding: 243 -1 243
Width: 800
VWidth: 600
Flags: W
HStem: 460 80<-50 220 595.3 850> 740 20G<440 530> 740 20G<440 530>
VStem: 220 80<339 460 540 615.014>
LayerCount: 3
Fore
SplineSet
220 540 m 1xd0
 220 610 l 2
 220 718 440 760 440 760 c 1
 530 760 l 1
 530 760 538 545 640 540 c 0
 850 540 l 1
 850 460 l 1
 590 460 l 0
 494 460 460 635 454 673 c 1
 390 662 303 635 300 570 c 1
 300 339 l 1
 430 440 l 1
 500 390 l 1
 310 243 l 1
 220 243 l 1
 220 460 l 1
 -50 460 l 1
 -50 540 l 1
 220 540 l 1xd0
EndSplineSet
Validated: 1
EndChar

StartChar: beringin_letter_fi.rtla
Encoding: 244 -1 244
Width: 800
VWidth: 600
Flags: W
HStem: 240 80<200 654.7> 460 80<-50 211 410 600 800 850> 680 80<355.3 800>
LayerCount: 3
Fore
SplineSet
410 540 m 25
 600 540 l 25
 600 460 l 25
 410 460 l 25
 410 540 l 25
200 240 m 25
 200 320 l 1
 610 320 l 0
 712 325 720 540 720 540 c 1
 850 540 l 1
 850 460 l 1
 800 460 l 25
 800 460 758 240 650 240 c 2
 200 240 l 25
800 760 m 25
 800 680 l 1
 400 680 l 0
 298 675 290 460 290 460 c 1
 -50 460 l 1
 -50 540 l 1
 211 540 l 29
 211 540 242 760 350 760 c 2
 800 760 l 25
EndSplineSet
Validated: 1
EndChar

StartChar: beringin_letter_weh.rtla
Encoding: 245 -1 245
Width: 800
VWidth: 600
Flags: W
HStem: 240 21G<60 140> 240 21G<60 140> 460 80<-50 60 595.3 850> 740 20G<60 140 440 530> 740 20G<60 140 440 530>
VStem: 60 80<240 460 539 760> 220 80<340 615.014>
LayerCount: 3
Fore
SplineSet
140 240 m 1xb6
 60 240 l 1
 60 460 l 1
 -50 460 l 1
 -50 540 l 1
 60 539 l 1
 60 760 l 1
 140 760 l 1
 140 240 l 1xb6
220 243 m 1
 220 610 l 2
 220 718 440 760 440 760 c 1
 530 760 l 1
 530 760 538 545 640 540 c 0
 850 540 l 1
 850 460 l 1
 590 460 l 2
 494 460 460 635 454 673 c 1
 390 662 303 635 300 570 c 2
 300 340 l 1
 430 440 l 1
 500 390 l 1
 310 243 l 1
 220 243 l 1
EndSplineSet
Validated: 1
EndChar

StartChar: beringin_letter_ehks.rtla
Encoding: 246 -1 246
Width: 800
VWidth: 600
Flags: W
HStem: 240 80<353.344 640.129> 460 80<-50 60 140 210 460 671.117 760 850> 680 80<353.344 800>
VStem: 60 80<240 460 540 760> 690 100<362.435 440.303>
LayerCount: 3
Fore
SplineSet
670 240 m 1
 350 240 l 2
 242 240 210 460 210 460 c 1
 140 460 l 1
 140 240 l 1
 60 240 l 1
 60 460 l 1
 -50 460 l 1
 -50 540 l 1
 60 540 l 1
 60 760 l 1
 140 760 l 1
 140 540 l 1
 210 540 l 1
 210 540 242 760 350 760 c 2
 800 760 l 1
 800 680 l 1
 400 680 l 0
 326 676 302 562 294 500 c 1
 302 438 326 324 400 320 c 1
 600 320 l 1
 667 350 690 379 690 403 c 0
 690 433 653 456 621 460 c 5
 460 460 l 1
 460 540 l 1
 850 540 l 1
 850 460 l 1
 760 460 l 1
 769 443 790 419 790 380 c 0
 790 377 790 373 790 370 c 0
 789 339 729 257 670 240 c 1
EndSplineSet
Validated: 1
EndChar

StartChar: beringin_letter_yeh.rtla
Encoding: 247 -1 247
Width: 800
VWidth: 600
Flags: W
HStem: 240 21G<60 140 220 300 554.37 601> 240 21G<60 140 220 300 554.37 601> 460 80<-50 60 595.3 850> 740 20G<60 140 440 530> 740 20G<60 140 440 530>
VStem: 60 80<240 460 539 760> 220 80<240 615.014>
LayerCount: 3
Fore
SplineSet
336 424 m 25xa6
 393 481 l 25
 637 296 l 25
 581 240 l 25
 336 424 l 25xa6
140 240 m 1
 60 240 l 1
 60 460 l 1
 -50 460 l 1
 -50 540 l 1
 60 539 l 5
 60 760 l 1
 140 760 l 1xb6
 140 240 l 1
220 240 m 1
 220 610 l 0
 220 718 440 760 440 760 c 1
 530 760 l 1
 530 760 538 545 640 540 c 0
 850 540 l 1
 850 460 l 1
 590 460 l 0
 494 460 460 634 454 673 c 1
 391 661 303 635 300 570 c 0
 300 240 l 1
 220 240 l 1
EndSplineSet
Validated: 1
EndChar

StartChar: beringin_letter_zeht.rtla
Encoding: 248 -1 248
Width: 800
VWidth: 600
Flags: W
HStem: 240 80<353.344 640.129> 460 80<-50 211 460 670.687 760 850> 680 80<353.344 810>
VStem: 690 100<362.435 439.662>
LayerCount: 3
Fore
SplineSet
670 240 m 1
 350 240 l 2
 242 240 211 460 211 460 c 5
 -50 460 l 1
 -50 540 l 1
 211 540 l 5
 211 540 242 760 350 760 c 2
 810 760 l 1
 810 680 l 1
 400 680 l 0
 326 676 302 562 294 500 c 1
 302 438 326 324 400 320 c 1
 600 320 l 1
 667 350 690 379 690 403 c 0
 690 433 652 456 620 460 c 1
 460 460 l 1
 460 540 l 1
 850 540 l 1
 850 460 l 1
 760 460 l 1
 769 443 790 419 790 380 c 0
 790 377 790 373 790 370 c 0
 789 339 729 257 670 240 c 1
EndSplineSet
Validated: 1
EndChar

StartChar: beringin_ext_letter_dza.rtla
Encoding: 249 -1 249
Width: 800
VWidth: 600
Flags: W
HStem: 240 80<354.281 640.129> 460 80<-50 220 460 671.117 760 850> 740 20G<220 327.143> 740 20G<220 327.143>
VStem: 220 80<540 662> 690 100<362.435 440.303>
LayerCount: 3
Fore
SplineSet
220 540 m 1xec
 220 760 l 1
 300 760 l 1
 490 620 l 1
 420 570 l 1
 300 662 l 1
 300 500 l 1
 308 438 326 324 400 320 c 2
 600 320 l 1
 667 350 690 379 690 403 c 0
 690 433 653 456 621 460 c 5
 460 460 l 1
 460 540 l 1
 850 540 l 1
 850 460 l 1
 760 460 l 1
 769 443 790 419 790 380 c 0
 790 377 790 373 790 370 c 0
 789 339 729 257 670 240 c 1
 350 240 l 2
 242 240 220 460 220 460 c 1
 -50 460 l 1
 -50 540 l 1
 220 540 l 1xec
EndSplineSet
Validated: 1
EndChar

StartChar: beringin_ext_letter_tsa.rtla
Encoding: 250 -1 250
Width: 800
VWidth: 600
Flags: W
HStem: 240 21G<220 327.143> 240 21G<220 327.143> 460 80<-50 220 460 671.117 760 850> 680 80<354.281 640.129>
VStem: 220 80<338 460> 690 100<559.697 637.565>
LayerCount: 3
Fore
SplineSet
220 460 m 1xbc
 -50 460 l 1
 -50 540 l 1
 220 540 l 1
 220 540 242 760 350 760 c 2
 670 760 l 1
 729 743 789 661 790 630 c 0
 790 627 790 623 790 620 c 0
 790 581 769 557 760 540 c 1
 850 540 l 1
 850 460 l 1
 460 460 l 1
 460 540 l 1
 621 540 l 5
 653 544 690 567 690 597 c 0
 690 621 667 650 600 680 c 1
 400 680 l 2
 326 676 308 562 300 500 c 1
 300 338 l 1
 420 430 l 1
 490 380 l 1
 300 240 l 1
 220 240 l 1
 220 460 l 1xbc
EndSplineSet
Validated: 1
EndChar

StartChar: beringin_ext_letter_dra.rtla
Encoding: 251 -1 251
Width: 800
VWidth: 600
Flags: W
HStem: 240 80<200 654.891> 460 80<-50 500 800 850> 680 80<0 655.014>
LayerCount: 3
Fore
SplineSet
500 540 m 1
 500 460 l 1
 -50 460 l 1
 -50 540 l 1
 500 540 l 1
150 680 m 5
 0 680 l 1
 0 760 l 1
 650 760 l 0
 758 760 800 540 800 540 c 1
 850 540 l 1
 850 460 l 1
 800 460 l 1
 800 460 758 240 650 240 c 2
 200 240 l 1
 200 320 l 1
 610 320 l 2
 679 324 710 432 720 496 c 1
 706 553 690 676 610 680 c 1
 150 680 l 5
EndSplineSet
Validated: 1
EndChar
